%TF.GenerationSoftware,KiCad,Pcbnew,5.0.1-33cea8e~68~ubuntu16.04.1*%
%TF.CreationDate,2018-11-11T12:10:47-08:00*%
%TF.ProjectId,teensythumbboard,7465656E73797468756D62626F617264,rev?*%
%TF.SameCoordinates,PX68290a0PY463f660*%
%TF.FileFunction,Legend,Top*%
%TF.FilePolarity,Positive*%
%FSLAX46Y46*%
G04 Gerber Fmt 4.6, Leading zero omitted, Abs format (unit mm)*
G04 Created by KiCad (PCBNEW 5.0.1-33cea8e~68~ubuntu16.04.1) date Sun 11 Nov 2018 12:10:47 PM PST*
%MOMM*%
%LPD*%
G01*
G04 APERTURE LIST*
%ADD10C,0.150000*%
%ADD11C,0.300000*%
%ADD12C,0.200000*%
%ADD13C,0.100000*%
%ADD14C,0.120000*%
%ADD15C,0.250000*%
G04 APERTURE END LIST*
D10*
X47625000Y-1270000D02*
X47625000Y-3810000D01*
X40005000Y-1270000D02*
X47625000Y-1270000D01*
X40005000Y-3810000D02*
X40005000Y-1270000D01*
D11*
X11287571Y-29394571D02*
X12144714Y-29394571D01*
X11716142Y-30894571D02*
X11716142Y-29394571D01*
X13216142Y-30823142D02*
X13073285Y-30894571D01*
X12787571Y-30894571D01*
X12644714Y-30823142D01*
X12573285Y-30680285D01*
X12573285Y-30108857D01*
X12644714Y-29966000D01*
X12787571Y-29894571D01*
X13073285Y-29894571D01*
X13216142Y-29966000D01*
X13287571Y-30108857D01*
X13287571Y-30251714D01*
X12573285Y-30394571D01*
X14501857Y-30823142D02*
X14359000Y-30894571D01*
X14073285Y-30894571D01*
X13930428Y-30823142D01*
X13859000Y-30680285D01*
X13859000Y-30108857D01*
X13930428Y-29966000D01*
X14073285Y-29894571D01*
X14359000Y-29894571D01*
X14501857Y-29966000D01*
X14573285Y-30108857D01*
X14573285Y-30251714D01*
X13859000Y-30394571D01*
X15216142Y-29894571D02*
X15216142Y-30894571D01*
X15216142Y-30037428D02*
X15287571Y-29966000D01*
X15430428Y-29894571D01*
X15644714Y-29894571D01*
X15787571Y-29966000D01*
X15859000Y-30108857D01*
X15859000Y-30894571D01*
X16501857Y-30823142D02*
X16644714Y-30894571D01*
X16930428Y-30894571D01*
X17073285Y-30823142D01*
X17144714Y-30680285D01*
X17144714Y-30608857D01*
X17073285Y-30466000D01*
X16930428Y-30394571D01*
X16716142Y-30394571D01*
X16573285Y-30323142D01*
X16501857Y-30180285D01*
X16501857Y-30108857D01*
X16573285Y-29966000D01*
X16716142Y-29894571D01*
X16930428Y-29894571D01*
X17073285Y-29966000D01*
X17644714Y-29894571D02*
X18001857Y-30894571D01*
X18359000Y-29894571D02*
X18001857Y-30894571D01*
X17859000Y-31251714D01*
X17787571Y-31323142D01*
X17644714Y-31394571D01*
X11394714Y-31944571D02*
X12251857Y-31944571D01*
X11823285Y-33444571D02*
X11823285Y-31944571D01*
X12751857Y-33444571D02*
X12751857Y-31944571D01*
X13394714Y-33444571D02*
X13394714Y-32658857D01*
X13323285Y-32516000D01*
X13180428Y-32444571D01*
X12966142Y-32444571D01*
X12823285Y-32516000D01*
X12751857Y-32587428D01*
X14751857Y-32444571D02*
X14751857Y-33444571D01*
X14109000Y-32444571D02*
X14109000Y-33230285D01*
X14180428Y-33373142D01*
X14323285Y-33444571D01*
X14537571Y-33444571D01*
X14680428Y-33373142D01*
X14751857Y-33301714D01*
X15466142Y-33444571D02*
X15466142Y-32444571D01*
X15466142Y-32587428D02*
X15537571Y-32516000D01*
X15680428Y-32444571D01*
X15894714Y-32444571D01*
X16037571Y-32516000D01*
X16109000Y-32658857D01*
X16109000Y-33444571D01*
X16109000Y-32658857D02*
X16180428Y-32516000D01*
X16323285Y-32444571D01*
X16537571Y-32444571D01*
X16680428Y-32516000D01*
X16751857Y-32658857D01*
X16751857Y-33444571D01*
X17466142Y-33444571D02*
X17466142Y-31944571D01*
X17466142Y-32516000D02*
X17609000Y-32444571D01*
X17894714Y-32444571D01*
X18037571Y-32516000D01*
X18109000Y-32587428D01*
X18180428Y-32730285D01*
X18180428Y-33158857D01*
X18109000Y-33301714D01*
X18037571Y-33373142D01*
X17894714Y-33444571D01*
X17609000Y-33444571D01*
X17466142Y-33373142D01*
X10109000Y-35208857D02*
X10323285Y-35280285D01*
X10394714Y-35351714D01*
X10466142Y-35494571D01*
X10466142Y-35708857D01*
X10394714Y-35851714D01*
X10323285Y-35923142D01*
X10180428Y-35994571D01*
X9609000Y-35994571D01*
X9609000Y-34494571D01*
X10109000Y-34494571D01*
X10251857Y-34566000D01*
X10323285Y-34637428D01*
X10394714Y-34780285D01*
X10394714Y-34923142D01*
X10323285Y-35066000D01*
X10251857Y-35137428D01*
X10109000Y-35208857D01*
X9609000Y-35208857D01*
X11323285Y-35994571D02*
X11180428Y-35923142D01*
X11109000Y-35851714D01*
X11037571Y-35708857D01*
X11037571Y-35280285D01*
X11109000Y-35137428D01*
X11180428Y-35066000D01*
X11323285Y-34994571D01*
X11537571Y-34994571D01*
X11680428Y-35066000D01*
X11751857Y-35137428D01*
X11823285Y-35280285D01*
X11823285Y-35708857D01*
X11751857Y-35851714D01*
X11680428Y-35923142D01*
X11537571Y-35994571D01*
X11323285Y-35994571D01*
X13109000Y-35994571D02*
X13109000Y-35208857D01*
X13037571Y-35066000D01*
X12894714Y-34994571D01*
X12609000Y-34994571D01*
X12466142Y-35066000D01*
X13109000Y-35923142D02*
X12966142Y-35994571D01*
X12609000Y-35994571D01*
X12466142Y-35923142D01*
X12394714Y-35780285D01*
X12394714Y-35637428D01*
X12466142Y-35494571D01*
X12609000Y-35423142D01*
X12966142Y-35423142D01*
X13109000Y-35351714D01*
X13823285Y-35994571D02*
X13823285Y-34994571D01*
X13823285Y-35280285D02*
X13894714Y-35137428D01*
X13966142Y-35066000D01*
X14109000Y-34994571D01*
X14251857Y-34994571D01*
X15394714Y-35994571D02*
X15394714Y-34494571D01*
X15394714Y-35923142D02*
X15251857Y-35994571D01*
X14966142Y-35994571D01*
X14823285Y-35923142D01*
X14751857Y-35851714D01*
X14680428Y-35708857D01*
X14680428Y-35280285D01*
X14751857Y-35137428D01*
X14823285Y-35066000D01*
X14966142Y-34994571D01*
X15251857Y-34994571D01*
X15394714Y-35066000D01*
X18037571Y-35994571D02*
X17180428Y-35994571D01*
X17609000Y-35994571D02*
X17609000Y-34494571D01*
X17466142Y-34708857D01*
X17323285Y-34851714D01*
X17180428Y-34923142D01*
X18680428Y-35851714D02*
X18751857Y-35923142D01*
X18680428Y-35994571D01*
X18609000Y-35923142D01*
X18680428Y-35851714D01*
X18680428Y-35994571D01*
X19680428Y-34494571D02*
X19823285Y-34494571D01*
X19966142Y-34566000D01*
X20037571Y-34637428D01*
X20109000Y-34780285D01*
X20180428Y-35066000D01*
X20180428Y-35423142D01*
X20109000Y-35708857D01*
X20037571Y-35851714D01*
X19966142Y-35923142D01*
X19823285Y-35994571D01*
X19680428Y-35994571D01*
X19537571Y-35923142D01*
X19466142Y-35851714D01*
X19394714Y-35708857D01*
X19323285Y-35423142D01*
X19323285Y-35066000D01*
X19394714Y-34780285D01*
X19466142Y-34637428D01*
X19537571Y-34566000D01*
X19680428Y-34494571D01*
D10*
X40005000Y-3810000D02*
X47625000Y-3810000D01*
X35941000Y-1270000D02*
X29845000Y-1270000D01*
X35941000Y-3810000D02*
X35941000Y-1270000D01*
X27305000Y-3810000D02*
X35941000Y-3810000D01*
X27305000Y-1270000D02*
X27305000Y-3810000D01*
X29845000Y-1270000D02*
X27305000Y-1270000D01*
D12*
X6600263Y-6866499D02*
X5893156Y-6159393D01*
X6633935Y-6428767D01*
X6364561Y-5687988D01*
X7071667Y-6395095D01*
X7408385Y-6058377D02*
X6701278Y-5351271D01*
X7677759Y-5721660D02*
X7812446Y-5654316D01*
X7980805Y-5485958D01*
X8014476Y-5384942D01*
X8014476Y-5317599D01*
X7980805Y-5216584D01*
X7913461Y-5149240D01*
X7812446Y-5115568D01*
X7745102Y-5115568D01*
X7644087Y-5149240D01*
X7475728Y-5250255D01*
X7374713Y-5283927D01*
X7307370Y-5283927D01*
X7206354Y-5250255D01*
X7139011Y-5182912D01*
X7105339Y-5081897D01*
X7105339Y-5014553D01*
X7139011Y-4913538D01*
X7307370Y-4745179D01*
X7442057Y-4677836D01*
X7846118Y-4206431D02*
X7980805Y-4071744D01*
X8081820Y-4038072D01*
X8216507Y-4038072D01*
X8384866Y-4139088D01*
X8620568Y-4374790D01*
X8721583Y-4543149D01*
X8721583Y-4677836D01*
X8687911Y-4778851D01*
X8553224Y-4913538D01*
X8452209Y-4947210D01*
X8317522Y-4947210D01*
X8149163Y-4846194D01*
X7913461Y-4610492D01*
X7812446Y-4442133D01*
X7812446Y-4307446D01*
X7846118Y-4206431D01*
D10*
X50165000Y-8890000D02*
X50165000Y-6350000D01*
X41275000Y-8890000D02*
X50165000Y-8890000D01*
X41275000Y-6350000D02*
X41275000Y-8890000D01*
X50165000Y-6350000D02*
X41275000Y-6350000D01*
D12*
X40272142Y-1992380D02*
X40605476Y-2992380D01*
X40938809Y-1992380D01*
X41272142Y-2992380D02*
X41272142Y-2325714D01*
X41272142Y-1992380D02*
X41224523Y-2040000D01*
X41272142Y-2087619D01*
X41319761Y-2040000D01*
X41272142Y-1992380D01*
X41272142Y-2087619D01*
X41748333Y-2325714D02*
X41748333Y-2992380D01*
X41748333Y-2420952D02*
X41795952Y-2373333D01*
X41891190Y-2325714D01*
X42034047Y-2325714D01*
X42129285Y-2373333D01*
X42176904Y-2468571D01*
X42176904Y-2992380D01*
X35545190Y-4641904D02*
X35811857Y-5441904D01*
X36078523Y-4641904D01*
X36345190Y-4641904D02*
X36345190Y-5289523D01*
X36383285Y-5365714D01*
X36421380Y-5403809D01*
X36497571Y-5441904D01*
X36649952Y-5441904D01*
X36726142Y-5403809D01*
X36764238Y-5365714D01*
X36802333Y-5289523D01*
X36802333Y-4641904D01*
X37145190Y-5403809D02*
X37259476Y-5441904D01*
X37449952Y-5441904D01*
X37526142Y-5403809D01*
X37564238Y-5365714D01*
X37602333Y-5289523D01*
X37602333Y-5213333D01*
X37564238Y-5137142D01*
X37526142Y-5099047D01*
X37449952Y-5060952D01*
X37297571Y-5022857D01*
X37221380Y-4984761D01*
X37183285Y-4946666D01*
X37145190Y-4870476D01*
X37145190Y-4794285D01*
X37183285Y-4718095D01*
X37221380Y-4680000D01*
X37297571Y-4641904D01*
X37488047Y-4641904D01*
X37602333Y-4680000D01*
X38211857Y-5022857D02*
X38326142Y-5060952D01*
X38364238Y-5099047D01*
X38402333Y-5175238D01*
X38402333Y-5289523D01*
X38364238Y-5365714D01*
X38326142Y-5403809D01*
X38249952Y-5441904D01*
X37945190Y-5441904D01*
X37945190Y-4641904D01*
X38211857Y-4641904D01*
X38288047Y-4680000D01*
X38326142Y-4718095D01*
X38364238Y-4794285D01*
X38364238Y-4870476D01*
X38326142Y-4946666D01*
X38288047Y-4984761D01*
X38211857Y-5022857D01*
X37945190Y-5022857D01*
X38745190Y-5137142D02*
X39354714Y-5137142D01*
X39697571Y-5213333D02*
X40078523Y-5213333D01*
X39621380Y-5441904D02*
X39888047Y-4641904D01*
X40154714Y-5441904D01*
X40840428Y-4680000D02*
X40764238Y-4641904D01*
X40649952Y-4641904D01*
X40535666Y-4680000D01*
X40459476Y-4756190D01*
X40421380Y-4832380D01*
X40383285Y-4984761D01*
X40383285Y-5099047D01*
X40421380Y-5251428D01*
X40459476Y-5327619D01*
X40535666Y-5403809D01*
X40649952Y-5441904D01*
X40726142Y-5441904D01*
X40840428Y-5403809D01*
X40878523Y-5365714D01*
X40878523Y-5099047D01*
X40726142Y-5099047D01*
X41221380Y-5441904D02*
X41221380Y-4641904D01*
X41678523Y-5441904D01*
X41678523Y-4641904D01*
X42059476Y-5441904D02*
X42059476Y-4641904D01*
X42249952Y-4641904D01*
X42364238Y-4680000D01*
X42440428Y-4756190D01*
X42478523Y-4832380D01*
X42516619Y-4984761D01*
X42516619Y-5099047D01*
X42478523Y-5251428D01*
X42440428Y-5327619D01*
X42364238Y-5403809D01*
X42249952Y-5441904D01*
X42059476Y-5441904D01*
X41955000Y-7072380D02*
X42574047Y-7072380D01*
X42240714Y-7453333D01*
X42383571Y-7453333D01*
X42478809Y-7500952D01*
X42526428Y-7548571D01*
X42574047Y-7643809D01*
X42574047Y-7881904D01*
X42526428Y-7977142D01*
X42478809Y-8024761D01*
X42383571Y-8072380D01*
X42097857Y-8072380D01*
X42002619Y-8024761D01*
X41955000Y-7977142D01*
X43002619Y-7977142D02*
X43050238Y-8024761D01*
X43002619Y-8072380D01*
X42955000Y-8024761D01*
X43002619Y-7977142D01*
X43002619Y-8072380D01*
X43383571Y-7072380D02*
X44002619Y-7072380D01*
X43669285Y-7453333D01*
X43812142Y-7453333D01*
X43907380Y-7500952D01*
X43955000Y-7548571D01*
X44002619Y-7643809D01*
X44002619Y-7881904D01*
X43955000Y-7977142D01*
X43907380Y-8024761D01*
X43812142Y-8072380D01*
X43526428Y-8072380D01*
X43431190Y-8024761D01*
X43383571Y-7977142D01*
X44335952Y-7405714D02*
X44574047Y-8072380D01*
X44812142Y-7405714D01*
X36611857Y-10293333D02*
X36992809Y-10293333D01*
X36535666Y-10521904D02*
X36802333Y-9721904D01*
X37069000Y-10521904D01*
X37792809Y-10521904D02*
X37526142Y-10140952D01*
X37335666Y-10521904D02*
X37335666Y-9721904D01*
X37640428Y-9721904D01*
X37716619Y-9760000D01*
X37754714Y-9798095D01*
X37792809Y-9874285D01*
X37792809Y-9988571D01*
X37754714Y-10064761D01*
X37716619Y-10102857D01*
X37640428Y-10140952D01*
X37335666Y-10140952D01*
X38135666Y-10102857D02*
X38402333Y-10102857D01*
X38516619Y-10521904D02*
X38135666Y-10521904D01*
X38135666Y-9721904D01*
X38516619Y-9721904D01*
X39126142Y-10102857D02*
X38859476Y-10102857D01*
X38859476Y-10521904D02*
X38859476Y-9721904D01*
X39240428Y-9721904D01*
X39545190Y-10217142D02*
X40154714Y-10217142D01*
X40535666Y-10521904D02*
X40535666Y-9721904D01*
X40726142Y-9721904D01*
X40840428Y-9760000D01*
X40916619Y-9836190D01*
X40954714Y-9912380D01*
X40992809Y-10064761D01*
X40992809Y-10179047D01*
X40954714Y-10331428D01*
X40916619Y-10407619D01*
X40840428Y-10483809D01*
X40726142Y-10521904D01*
X40535666Y-10521904D01*
X41297571Y-9798095D02*
X41335666Y-9760000D01*
X41411857Y-9721904D01*
X41602333Y-9721904D01*
X41678523Y-9760000D01*
X41716619Y-9798095D01*
X41754714Y-9874285D01*
X41754714Y-9950476D01*
X41716619Y-10064761D01*
X41259476Y-10521904D01*
X41754714Y-10521904D01*
X42021380Y-9721904D02*
X42516619Y-9721904D01*
X42249952Y-10026666D01*
X42364238Y-10026666D01*
X42440428Y-10064761D01*
X42478523Y-10102857D01*
X42516619Y-10179047D01*
X42516619Y-10369523D01*
X42478523Y-10445714D01*
X42440428Y-10483809D01*
X42364238Y-10521904D01*
X42135666Y-10521904D01*
X42059476Y-10483809D01*
X42021380Y-10445714D01*
X37297571Y-12833333D02*
X37678523Y-12833333D01*
X37221380Y-13061904D02*
X37488047Y-12261904D01*
X37754714Y-13061904D01*
X38440428Y-13061904D02*
X37983285Y-13061904D01*
X38211857Y-13061904D02*
X38211857Y-12261904D01*
X38135666Y-12376190D01*
X38059476Y-12452380D01*
X37983285Y-12490476D01*
X38935666Y-12261904D02*
X39011857Y-12261904D01*
X39088047Y-12300000D01*
X39126142Y-12338095D01*
X39164238Y-12414285D01*
X39202333Y-12566666D01*
X39202333Y-12757142D01*
X39164238Y-12909523D01*
X39126142Y-12985714D01*
X39088047Y-13023809D01*
X39011857Y-13061904D01*
X38935666Y-13061904D01*
X38859476Y-13023809D01*
X38821380Y-12985714D01*
X38783285Y-12909523D01*
X38745190Y-12757142D01*
X38745190Y-12566666D01*
X38783285Y-12414285D01*
X38821380Y-12338095D01*
X38859476Y-12300000D01*
X38935666Y-12261904D01*
X39545190Y-12757142D02*
X40154714Y-12757142D01*
X40535666Y-13061904D02*
X40535666Y-12261904D01*
X40726142Y-12261904D01*
X40840428Y-12300000D01*
X40916619Y-12376190D01*
X40954714Y-12452380D01*
X40992809Y-12604761D01*
X40992809Y-12719047D01*
X40954714Y-12871428D01*
X40916619Y-12947619D01*
X40840428Y-13023809D01*
X40726142Y-13061904D01*
X40535666Y-13061904D01*
X41297571Y-12338095D02*
X41335666Y-12300000D01*
X41411857Y-12261904D01*
X41602333Y-12261904D01*
X41678523Y-12300000D01*
X41716619Y-12338095D01*
X41754714Y-12414285D01*
X41754714Y-12490476D01*
X41716619Y-12604761D01*
X41259476Y-13061904D01*
X41754714Y-13061904D01*
X42059476Y-12338095D02*
X42097571Y-12300000D01*
X42173761Y-12261904D01*
X42364238Y-12261904D01*
X42440428Y-12300000D01*
X42478523Y-12338095D01*
X42516619Y-12414285D01*
X42516619Y-12490476D01*
X42478523Y-12604761D01*
X42021380Y-13061904D01*
X42516619Y-13061904D01*
X37297571Y-15373333D02*
X37678523Y-15373333D01*
X37221380Y-15601904D02*
X37488047Y-14801904D01*
X37754714Y-15601904D01*
X38440428Y-15601904D02*
X37983285Y-15601904D01*
X38211857Y-15601904D02*
X38211857Y-14801904D01*
X38135666Y-14916190D01*
X38059476Y-14992380D01*
X37983285Y-15030476D01*
X39202333Y-15601904D02*
X38745190Y-15601904D01*
X38973761Y-15601904D02*
X38973761Y-14801904D01*
X38897571Y-14916190D01*
X38821380Y-14992380D01*
X38745190Y-15030476D01*
X39545190Y-15297142D02*
X40154714Y-15297142D01*
X40535666Y-15601904D02*
X40535666Y-14801904D01*
X40726142Y-14801904D01*
X40840428Y-14840000D01*
X40916619Y-14916190D01*
X40954714Y-14992380D01*
X40992809Y-15144761D01*
X40992809Y-15259047D01*
X40954714Y-15411428D01*
X40916619Y-15487619D01*
X40840428Y-15563809D01*
X40726142Y-15601904D01*
X40535666Y-15601904D01*
X41297571Y-14878095D02*
X41335666Y-14840000D01*
X41411857Y-14801904D01*
X41602333Y-14801904D01*
X41678523Y-14840000D01*
X41716619Y-14878095D01*
X41754714Y-14954285D01*
X41754714Y-15030476D01*
X41716619Y-15144761D01*
X41259476Y-15601904D01*
X41754714Y-15601904D01*
X42516619Y-15601904D02*
X42059476Y-15601904D01*
X42288047Y-15601904D02*
X42288047Y-14801904D01*
X42211857Y-14916190D01*
X42135666Y-14992380D01*
X42059476Y-15030476D01*
X42542333Y-18232380D02*
X42542333Y-17232380D01*
X42780428Y-17232380D01*
X42923285Y-17280000D01*
X43018523Y-17375238D01*
X43066142Y-17470476D01*
X43113761Y-17660952D01*
X43113761Y-17803809D01*
X43066142Y-17994285D01*
X43018523Y-18089523D01*
X42923285Y-18184761D01*
X42780428Y-18232380D01*
X42542333Y-18232380D01*
X43494714Y-17327619D02*
X43542333Y-17280000D01*
X43637571Y-17232380D01*
X43875666Y-17232380D01*
X43970904Y-17280000D01*
X44018523Y-17327619D01*
X44066142Y-17422857D01*
X44066142Y-17518095D01*
X44018523Y-17660952D01*
X43447095Y-18232380D01*
X44066142Y-18232380D01*
X44685190Y-17232380D02*
X44780428Y-17232380D01*
X44875666Y-17280000D01*
X44923285Y-17327619D01*
X44970904Y-17422857D01*
X45018523Y-17613333D01*
X45018523Y-17851428D01*
X44970904Y-18041904D01*
X44923285Y-18137142D01*
X44875666Y-18184761D01*
X44780428Y-18232380D01*
X44685190Y-18232380D01*
X44589952Y-18184761D01*
X44542333Y-18137142D01*
X44494714Y-18041904D01*
X44447095Y-17851428D01*
X44447095Y-17613333D01*
X44494714Y-17422857D01*
X44542333Y-17327619D01*
X44589952Y-17280000D01*
X44685190Y-17232380D01*
X42542333Y-20772380D02*
X42542333Y-19772380D01*
X42780428Y-19772380D01*
X42923285Y-19820000D01*
X43018523Y-19915238D01*
X43066142Y-20010476D01*
X43113761Y-20200952D01*
X43113761Y-20343809D01*
X43066142Y-20534285D01*
X43018523Y-20629523D01*
X42923285Y-20724761D01*
X42780428Y-20772380D01*
X42542333Y-20772380D01*
X44066142Y-20772380D02*
X43494714Y-20772380D01*
X43780428Y-20772380D02*
X43780428Y-19772380D01*
X43685190Y-19915238D01*
X43589952Y-20010476D01*
X43494714Y-20058095D01*
X44542333Y-20772380D02*
X44732809Y-20772380D01*
X44828047Y-20724761D01*
X44875666Y-20677142D01*
X44970904Y-20534285D01*
X45018523Y-20343809D01*
X45018523Y-19962857D01*
X44970904Y-19867619D01*
X44923285Y-19820000D01*
X44828047Y-19772380D01*
X44637571Y-19772380D01*
X44542333Y-19820000D01*
X44494714Y-19867619D01*
X44447095Y-19962857D01*
X44447095Y-20200952D01*
X44494714Y-20296190D01*
X44542333Y-20343809D01*
X44637571Y-20391428D01*
X44828047Y-20391428D01*
X44923285Y-20343809D01*
X44970904Y-20296190D01*
X45018523Y-20200952D01*
X42542333Y-23312380D02*
X42542333Y-22312380D01*
X42780428Y-22312380D01*
X42923285Y-22360000D01*
X43018523Y-22455238D01*
X43066142Y-22550476D01*
X43113761Y-22740952D01*
X43113761Y-22883809D01*
X43066142Y-23074285D01*
X43018523Y-23169523D01*
X42923285Y-23264761D01*
X42780428Y-23312380D01*
X42542333Y-23312380D01*
X44066142Y-23312380D02*
X43494714Y-23312380D01*
X43780428Y-23312380D02*
X43780428Y-22312380D01*
X43685190Y-22455238D01*
X43589952Y-22550476D01*
X43494714Y-22598095D01*
X44637571Y-22740952D02*
X44542333Y-22693333D01*
X44494714Y-22645714D01*
X44447095Y-22550476D01*
X44447095Y-22502857D01*
X44494714Y-22407619D01*
X44542333Y-22360000D01*
X44637571Y-22312380D01*
X44828047Y-22312380D01*
X44923285Y-22360000D01*
X44970904Y-22407619D01*
X45018523Y-22502857D01*
X45018523Y-22550476D01*
X44970904Y-22645714D01*
X44923285Y-22693333D01*
X44828047Y-22740952D01*
X44637571Y-22740952D01*
X44542333Y-22788571D01*
X44494714Y-22836190D01*
X44447095Y-22931428D01*
X44447095Y-23121904D01*
X44494714Y-23217142D01*
X44542333Y-23264761D01*
X44637571Y-23312380D01*
X44828047Y-23312380D01*
X44923285Y-23264761D01*
X44970904Y-23217142D01*
X45018523Y-23121904D01*
X45018523Y-22931428D01*
X44970904Y-22836190D01*
X44923285Y-22788571D01*
X44828047Y-22740952D01*
X42542333Y-25852380D02*
X42542333Y-24852380D01*
X42780428Y-24852380D01*
X42923285Y-24900000D01*
X43018523Y-24995238D01*
X43066142Y-25090476D01*
X43113761Y-25280952D01*
X43113761Y-25423809D01*
X43066142Y-25614285D01*
X43018523Y-25709523D01*
X42923285Y-25804761D01*
X42780428Y-25852380D01*
X42542333Y-25852380D01*
X44066142Y-25852380D02*
X43494714Y-25852380D01*
X43780428Y-25852380D02*
X43780428Y-24852380D01*
X43685190Y-24995238D01*
X43589952Y-25090476D01*
X43494714Y-25138095D01*
X44399476Y-24852380D02*
X45066142Y-24852380D01*
X44637571Y-25852380D01*
X42542333Y-28392380D02*
X42542333Y-27392380D01*
X42780428Y-27392380D01*
X42923285Y-27440000D01*
X43018523Y-27535238D01*
X43066142Y-27630476D01*
X43113761Y-27820952D01*
X43113761Y-27963809D01*
X43066142Y-28154285D01*
X43018523Y-28249523D01*
X42923285Y-28344761D01*
X42780428Y-28392380D01*
X42542333Y-28392380D01*
X44066142Y-28392380D02*
X43494714Y-28392380D01*
X43780428Y-28392380D02*
X43780428Y-27392380D01*
X43685190Y-27535238D01*
X43589952Y-27630476D01*
X43494714Y-27678095D01*
X44923285Y-27392380D02*
X44732809Y-27392380D01*
X44637571Y-27440000D01*
X44589952Y-27487619D01*
X44494714Y-27630476D01*
X44447095Y-27820952D01*
X44447095Y-28201904D01*
X44494714Y-28297142D01*
X44542333Y-28344761D01*
X44637571Y-28392380D01*
X44828047Y-28392380D01*
X44923285Y-28344761D01*
X44970904Y-28297142D01*
X45018523Y-28201904D01*
X45018523Y-27963809D01*
X44970904Y-27868571D01*
X44923285Y-27820952D01*
X44828047Y-27773333D01*
X44637571Y-27773333D01*
X44542333Y-27820952D01*
X44494714Y-27868571D01*
X44447095Y-27963809D01*
X42542333Y-30932380D02*
X42542333Y-29932380D01*
X42780428Y-29932380D01*
X42923285Y-29980000D01*
X43018523Y-30075238D01*
X43066142Y-30170476D01*
X43113761Y-30360952D01*
X43113761Y-30503809D01*
X43066142Y-30694285D01*
X43018523Y-30789523D01*
X42923285Y-30884761D01*
X42780428Y-30932380D01*
X42542333Y-30932380D01*
X44066142Y-30932380D02*
X43494714Y-30932380D01*
X43780428Y-30932380D02*
X43780428Y-29932380D01*
X43685190Y-30075238D01*
X43589952Y-30170476D01*
X43494714Y-30218095D01*
X44970904Y-29932380D02*
X44494714Y-29932380D01*
X44447095Y-30408571D01*
X44494714Y-30360952D01*
X44589952Y-30313333D01*
X44828047Y-30313333D01*
X44923285Y-30360952D01*
X44970904Y-30408571D01*
X45018523Y-30503809D01*
X45018523Y-30741904D01*
X44970904Y-30837142D01*
X44923285Y-30884761D01*
X44828047Y-30932380D01*
X44589952Y-30932380D01*
X44494714Y-30884761D01*
X44447095Y-30837142D01*
X42542333Y-33472380D02*
X42542333Y-32472380D01*
X42780428Y-32472380D01*
X42923285Y-32520000D01*
X43018523Y-32615238D01*
X43066142Y-32710476D01*
X43113761Y-32900952D01*
X43113761Y-33043809D01*
X43066142Y-33234285D01*
X43018523Y-33329523D01*
X42923285Y-33424761D01*
X42780428Y-33472380D01*
X42542333Y-33472380D01*
X44066142Y-33472380D02*
X43494714Y-33472380D01*
X43780428Y-33472380D02*
X43780428Y-32472380D01*
X43685190Y-32615238D01*
X43589952Y-32710476D01*
X43494714Y-32758095D01*
X44923285Y-32805714D02*
X44923285Y-33472380D01*
X44685190Y-32424761D02*
X44447095Y-33139047D01*
X45066142Y-33139047D01*
X32753095Y-10612380D02*
X32753095Y-9612380D01*
X32991190Y-9612380D01*
X33134047Y-9660000D01*
X33229285Y-9755238D01*
X33276904Y-9850476D01*
X33324523Y-10040952D01*
X33324523Y-10183809D01*
X33276904Y-10374285D01*
X33229285Y-10469523D01*
X33134047Y-10564761D01*
X32991190Y-10612380D01*
X32753095Y-10612380D01*
X33705476Y-9707619D02*
X33753095Y-9660000D01*
X33848333Y-9612380D01*
X34086428Y-9612380D01*
X34181666Y-9660000D01*
X34229285Y-9707619D01*
X34276904Y-9802857D01*
X34276904Y-9898095D01*
X34229285Y-10040952D01*
X33657857Y-10612380D01*
X34276904Y-10612380D01*
X32753095Y-13152380D02*
X32753095Y-12152380D01*
X32991190Y-12152380D01*
X33134047Y-12200000D01*
X33229285Y-12295238D01*
X33276904Y-12390476D01*
X33324523Y-12580952D01*
X33324523Y-12723809D01*
X33276904Y-12914285D01*
X33229285Y-13009523D01*
X33134047Y-13104761D01*
X32991190Y-13152380D01*
X32753095Y-13152380D01*
X33657857Y-12152380D02*
X34276904Y-12152380D01*
X33943571Y-12533333D01*
X34086428Y-12533333D01*
X34181666Y-12580952D01*
X34229285Y-12628571D01*
X34276904Y-12723809D01*
X34276904Y-12961904D01*
X34229285Y-13057142D01*
X34181666Y-13104761D01*
X34086428Y-13152380D01*
X33800714Y-13152380D01*
X33705476Y-13104761D01*
X33657857Y-13057142D01*
X32753095Y-15692380D02*
X32753095Y-14692380D01*
X32991190Y-14692380D01*
X33134047Y-14740000D01*
X33229285Y-14835238D01*
X33276904Y-14930476D01*
X33324523Y-15120952D01*
X33324523Y-15263809D01*
X33276904Y-15454285D01*
X33229285Y-15549523D01*
X33134047Y-15644761D01*
X32991190Y-15692380D01*
X32753095Y-15692380D01*
X34181666Y-15025714D02*
X34181666Y-15692380D01*
X33943571Y-14644761D02*
X33705476Y-15359047D01*
X34324523Y-15359047D01*
X32753095Y-18232380D02*
X32753095Y-17232380D01*
X32991190Y-17232380D01*
X33134047Y-17280000D01*
X33229285Y-17375238D01*
X33276904Y-17470476D01*
X33324523Y-17660952D01*
X33324523Y-17803809D01*
X33276904Y-17994285D01*
X33229285Y-18089523D01*
X33134047Y-18184761D01*
X32991190Y-18232380D01*
X32753095Y-18232380D01*
X34229285Y-17232380D02*
X33753095Y-17232380D01*
X33705476Y-17708571D01*
X33753095Y-17660952D01*
X33848333Y-17613333D01*
X34086428Y-17613333D01*
X34181666Y-17660952D01*
X34229285Y-17708571D01*
X34276904Y-17803809D01*
X34276904Y-18041904D01*
X34229285Y-18137142D01*
X34181666Y-18184761D01*
X34086428Y-18232380D01*
X33848333Y-18232380D01*
X33753095Y-18184761D01*
X33705476Y-18137142D01*
X32753095Y-20772380D02*
X32753095Y-19772380D01*
X32991190Y-19772380D01*
X33134047Y-19820000D01*
X33229285Y-19915238D01*
X33276904Y-20010476D01*
X33324523Y-20200952D01*
X33324523Y-20343809D01*
X33276904Y-20534285D01*
X33229285Y-20629523D01*
X33134047Y-20724761D01*
X32991190Y-20772380D01*
X32753095Y-20772380D01*
X34181666Y-19772380D02*
X33991190Y-19772380D01*
X33895952Y-19820000D01*
X33848333Y-19867619D01*
X33753095Y-20010476D01*
X33705476Y-20200952D01*
X33705476Y-20581904D01*
X33753095Y-20677142D01*
X33800714Y-20724761D01*
X33895952Y-20772380D01*
X34086428Y-20772380D01*
X34181666Y-20724761D01*
X34229285Y-20677142D01*
X34276904Y-20581904D01*
X34276904Y-20343809D01*
X34229285Y-20248571D01*
X34181666Y-20200952D01*
X34086428Y-20153333D01*
X33895952Y-20153333D01*
X33800714Y-20200952D01*
X33753095Y-20248571D01*
X33705476Y-20343809D01*
X32753095Y-23312380D02*
X32753095Y-22312380D01*
X32991190Y-22312380D01*
X33134047Y-22360000D01*
X33229285Y-22455238D01*
X33276904Y-22550476D01*
X33324523Y-22740952D01*
X33324523Y-22883809D01*
X33276904Y-23074285D01*
X33229285Y-23169523D01*
X33134047Y-23264761D01*
X32991190Y-23312380D01*
X32753095Y-23312380D01*
X33657857Y-22312380D02*
X34324523Y-22312380D01*
X33895952Y-23312380D01*
X32753095Y-25852380D02*
X32753095Y-24852380D01*
X32991190Y-24852380D01*
X33134047Y-24900000D01*
X33229285Y-24995238D01*
X33276904Y-25090476D01*
X33324523Y-25280952D01*
X33324523Y-25423809D01*
X33276904Y-25614285D01*
X33229285Y-25709523D01*
X33134047Y-25804761D01*
X32991190Y-25852380D01*
X32753095Y-25852380D01*
X33895952Y-25280952D02*
X33800714Y-25233333D01*
X33753095Y-25185714D01*
X33705476Y-25090476D01*
X33705476Y-25042857D01*
X33753095Y-24947619D01*
X33800714Y-24900000D01*
X33895952Y-24852380D01*
X34086428Y-24852380D01*
X34181666Y-24900000D01*
X34229285Y-24947619D01*
X34276904Y-25042857D01*
X34276904Y-25090476D01*
X34229285Y-25185714D01*
X34181666Y-25233333D01*
X34086428Y-25280952D01*
X33895952Y-25280952D01*
X33800714Y-25328571D01*
X33753095Y-25376190D01*
X33705476Y-25471428D01*
X33705476Y-25661904D01*
X33753095Y-25757142D01*
X33800714Y-25804761D01*
X33895952Y-25852380D01*
X34086428Y-25852380D01*
X34181666Y-25804761D01*
X34229285Y-25757142D01*
X34276904Y-25661904D01*
X34276904Y-25471428D01*
X34229285Y-25376190D01*
X34181666Y-25328571D01*
X34086428Y-25280952D01*
X32753095Y-28392380D02*
X32753095Y-27392380D01*
X32991190Y-27392380D01*
X33134047Y-27440000D01*
X33229285Y-27535238D01*
X33276904Y-27630476D01*
X33324523Y-27820952D01*
X33324523Y-27963809D01*
X33276904Y-28154285D01*
X33229285Y-28249523D01*
X33134047Y-28344761D01*
X32991190Y-28392380D01*
X32753095Y-28392380D01*
X33800714Y-28392380D02*
X33991190Y-28392380D01*
X34086428Y-28344761D01*
X34134047Y-28297142D01*
X34229285Y-28154285D01*
X34276904Y-27963809D01*
X34276904Y-27582857D01*
X34229285Y-27487619D01*
X34181666Y-27440000D01*
X34086428Y-27392380D01*
X33895952Y-27392380D01*
X33800714Y-27440000D01*
X33753095Y-27487619D01*
X33705476Y-27582857D01*
X33705476Y-27820952D01*
X33753095Y-27916190D01*
X33800714Y-27963809D01*
X33895952Y-28011428D01*
X34086428Y-28011428D01*
X34181666Y-27963809D01*
X34229285Y-27916190D01*
X34276904Y-27820952D01*
X32753095Y-33472380D02*
X32753095Y-32472380D01*
X32991190Y-32472380D01*
X33134047Y-32520000D01*
X33229285Y-32615238D01*
X33276904Y-32710476D01*
X33324523Y-32900952D01*
X33324523Y-33043809D01*
X33276904Y-33234285D01*
X33229285Y-33329523D01*
X33134047Y-33424761D01*
X32991190Y-33472380D01*
X32753095Y-33472380D01*
X34276904Y-33472380D02*
X33705476Y-33472380D01*
X33991190Y-33472380D02*
X33991190Y-32472380D01*
X33895952Y-32615238D01*
X33800714Y-32710476D01*
X33705476Y-32758095D01*
X35229285Y-33472380D02*
X34657857Y-33472380D01*
X34943571Y-33472380D02*
X34943571Y-32472380D01*
X34848333Y-32615238D01*
X34753095Y-32710476D01*
X34657857Y-32758095D01*
X32753095Y-30932380D02*
X32753095Y-29932380D01*
X32991190Y-29932380D01*
X33134047Y-29980000D01*
X33229285Y-30075238D01*
X33276904Y-30170476D01*
X33324523Y-30360952D01*
X33324523Y-30503809D01*
X33276904Y-30694285D01*
X33229285Y-30789523D01*
X33134047Y-30884761D01*
X32991190Y-30932380D01*
X32753095Y-30932380D01*
X34276904Y-30932380D02*
X33705476Y-30932380D01*
X33991190Y-30932380D02*
X33991190Y-29932380D01*
X33895952Y-30075238D01*
X33800714Y-30170476D01*
X33705476Y-30218095D01*
X34895952Y-29932380D02*
X34991190Y-29932380D01*
X35086428Y-29980000D01*
X35134047Y-30027619D01*
X35181666Y-30122857D01*
X35229285Y-30313333D01*
X35229285Y-30551428D01*
X35181666Y-30741904D01*
X35134047Y-30837142D01*
X35086428Y-30884761D01*
X34991190Y-30932380D01*
X34895952Y-30932380D01*
X34800714Y-30884761D01*
X34753095Y-30837142D01*
X34705476Y-30741904D01*
X34657857Y-30551428D01*
X34657857Y-30313333D01*
X34705476Y-30122857D01*
X34753095Y-30027619D01*
X34800714Y-29980000D01*
X34895952Y-29932380D01*
X32753095Y-8072380D02*
X32753095Y-7072380D01*
X32991190Y-7072380D01*
X33134047Y-7120000D01*
X33229285Y-7215238D01*
X33276904Y-7310476D01*
X33324523Y-7500952D01*
X33324523Y-7643809D01*
X33276904Y-7834285D01*
X33229285Y-7929523D01*
X33134047Y-8024761D01*
X32991190Y-8072380D01*
X32753095Y-8072380D01*
X34276904Y-8072380D02*
X33705476Y-8072380D01*
X33991190Y-8072380D02*
X33991190Y-7072380D01*
X33895952Y-7215238D01*
X33800714Y-7310476D01*
X33705476Y-7358095D01*
X32753095Y-5532380D02*
X32753095Y-4532380D01*
X32991190Y-4532380D01*
X33134047Y-4580000D01*
X33229285Y-4675238D01*
X33276904Y-4770476D01*
X33324523Y-4960952D01*
X33324523Y-5103809D01*
X33276904Y-5294285D01*
X33229285Y-5389523D01*
X33134047Y-5484761D01*
X32991190Y-5532380D01*
X32753095Y-5532380D01*
X33943571Y-4532380D02*
X34038809Y-4532380D01*
X34134047Y-4580000D01*
X34181666Y-4627619D01*
X34229285Y-4722857D01*
X34276904Y-4913333D01*
X34276904Y-5151428D01*
X34229285Y-5341904D01*
X34181666Y-5437142D01*
X34134047Y-5484761D01*
X34038809Y-5532380D01*
X33943571Y-5532380D01*
X33848333Y-5484761D01*
X33800714Y-5437142D01*
X33753095Y-5341904D01*
X33705476Y-5151428D01*
X33705476Y-4913333D01*
X33753095Y-4722857D01*
X33800714Y-4627619D01*
X33848333Y-4580000D01*
X33943571Y-4532380D01*
X33276904Y-2040000D02*
X33181666Y-1992380D01*
X33038809Y-1992380D01*
X32895952Y-2040000D01*
X32800714Y-2135238D01*
X32753095Y-2230476D01*
X32705476Y-2420952D01*
X32705476Y-2563809D01*
X32753095Y-2754285D01*
X32800714Y-2849523D01*
X32895952Y-2944761D01*
X33038809Y-2992380D01*
X33134047Y-2992380D01*
X33276904Y-2944761D01*
X33324523Y-2897142D01*
X33324523Y-2563809D01*
X33134047Y-2563809D01*
X33753095Y-2992380D02*
X33753095Y-1992380D01*
X34324523Y-2992380D01*
X34324523Y-1992380D01*
X34800714Y-2992380D02*
X34800714Y-1992380D01*
X35038809Y-1992380D01*
X35181666Y-2040000D01*
X35276904Y-2135238D01*
X35324523Y-2230476D01*
X35372142Y-2420952D01*
X35372142Y-2563809D01*
X35324523Y-2754285D01*
X35276904Y-2849523D01*
X35181666Y-2944761D01*
X35038809Y-2992380D01*
X34800714Y-2992380D01*
X9140263Y-6866499D02*
X8433156Y-6159393D01*
X9173935Y-6428767D01*
X8904561Y-5687988D01*
X9611667Y-6395095D01*
X9375965Y-5216584D02*
X9510652Y-5081897D01*
X9611667Y-5048225D01*
X9746354Y-5048225D01*
X9914713Y-5149240D01*
X10150415Y-5384942D01*
X10251431Y-5553301D01*
X10251431Y-5687988D01*
X10217759Y-5789003D01*
X10083072Y-5923690D01*
X9982057Y-5957362D01*
X9847370Y-5957362D01*
X9679011Y-5856347D01*
X9443309Y-5620645D01*
X9342293Y-5452286D01*
X9342293Y-5317599D01*
X9375965Y-5216584D01*
X10621820Y-5317599D02*
X10756507Y-5250255D01*
X10924866Y-5081897D01*
X10958537Y-4980881D01*
X10958537Y-4913538D01*
X10924866Y-4812523D01*
X10857522Y-4745179D01*
X10756507Y-4711507D01*
X10689163Y-4711507D01*
X10588148Y-4745179D01*
X10419789Y-4846194D01*
X10318774Y-4879866D01*
X10251431Y-4879866D01*
X10150415Y-4846194D01*
X10083072Y-4778851D01*
X10049400Y-4677836D01*
X10049400Y-4610492D01*
X10083072Y-4509477D01*
X10251431Y-4341118D01*
X10386118Y-4273775D01*
X11362599Y-4644164D02*
X10655492Y-3937057D01*
X10064019Y-8482743D02*
X9356912Y-7775637D01*
X9525271Y-7607278D01*
X9659958Y-7539934D01*
X9794645Y-7539934D01*
X9895660Y-7573606D01*
X10064019Y-7674621D01*
X10165034Y-7775637D01*
X10266049Y-7943995D01*
X10299721Y-8045011D01*
X10299721Y-8179698D01*
X10232378Y-8314385D01*
X10064019Y-8482743D01*
X11141515Y-7405247D02*
X10737454Y-7809308D01*
X10939484Y-7607278D02*
X10232378Y-6900171D01*
X10266049Y-7068530D01*
X10266049Y-7203217D01*
X10232378Y-7304232D01*
X10872141Y-6260408D02*
X10939484Y-6193064D01*
X11040500Y-6159393D01*
X11107843Y-6159393D01*
X11208858Y-6193064D01*
X11377217Y-6294080D01*
X11545576Y-6462438D01*
X11646591Y-6630797D01*
X11680263Y-6731812D01*
X11680263Y-6799156D01*
X11646591Y-6900171D01*
X11579248Y-6967515D01*
X11478232Y-7001186D01*
X11410889Y-7001186D01*
X11309874Y-6967515D01*
X11141515Y-6866499D01*
X10973156Y-6698141D01*
X10872141Y-6529782D01*
X10838469Y-6428767D01*
X10838469Y-6361423D01*
X10872141Y-6260408D01*
X11882293Y-5182912D02*
X12185339Y-6698141D01*
X13195492Y-5216584D02*
X13195492Y-5283927D01*
X13128148Y-5418614D01*
X13060805Y-5485958D01*
X12926118Y-5553301D01*
X12791431Y-5553301D01*
X12690415Y-5519629D01*
X12522057Y-5418614D01*
X12421041Y-5317599D01*
X12320026Y-5149240D01*
X12286354Y-5048225D01*
X12286354Y-4913538D01*
X12353698Y-4778851D01*
X12421041Y-4711507D01*
X12555728Y-4644164D01*
X12623072Y-4644164D01*
X13498537Y-4980881D02*
X13633224Y-4913538D01*
X13801583Y-4745179D01*
X13835255Y-4644164D01*
X13835255Y-4576820D01*
X13801583Y-4475805D01*
X13734240Y-4408462D01*
X13633224Y-4374790D01*
X13565881Y-4374790D01*
X13464866Y-4408462D01*
X13296507Y-4509477D01*
X13195492Y-4543149D01*
X13128148Y-4543149D01*
X13027133Y-4509477D01*
X12959789Y-4442133D01*
X12926118Y-4341118D01*
X12926118Y-4273775D01*
X12959789Y-4172759D01*
X13128148Y-4004400D01*
X13262835Y-3937057D01*
X14624324Y-6395095D02*
X14759011Y-6327751D01*
X14927370Y-6159393D01*
X14961041Y-6058377D01*
X14961041Y-5991034D01*
X14927370Y-5890019D01*
X14860026Y-5822675D01*
X14759011Y-5789003D01*
X14691667Y-5789003D01*
X14590652Y-5822675D01*
X14422293Y-5923690D01*
X14321278Y-5957362D01*
X14253935Y-5957362D01*
X14152919Y-5923690D01*
X14085576Y-5856347D01*
X14051904Y-5755332D01*
X14051904Y-5687988D01*
X14085576Y-5586973D01*
X14253935Y-5418614D01*
X14388622Y-5351271D01*
X15701820Y-5250255D02*
X15701820Y-5317599D01*
X15634476Y-5452286D01*
X15567133Y-5519629D01*
X15432446Y-5586973D01*
X15297759Y-5586973D01*
X15196744Y-5553301D01*
X15028385Y-5452286D01*
X14927370Y-5351271D01*
X14826354Y-5182912D01*
X14792683Y-5081897D01*
X14792683Y-4947210D01*
X14860026Y-4812523D01*
X14927370Y-4745179D01*
X15062057Y-4677836D01*
X15129400Y-4677836D01*
X16072209Y-5014553D02*
X15365102Y-4307446D01*
X16476270Y-4610492D02*
X15769163Y-4509477D01*
X15769163Y-3903385D02*
X15769163Y-4711507D01*
X17265339Y-6294080D02*
X17400026Y-6226736D01*
X17568385Y-6058377D01*
X17602057Y-5957362D01*
X17602057Y-5890019D01*
X17568385Y-5789003D01*
X17501041Y-5721660D01*
X17400026Y-5687988D01*
X17332683Y-5687988D01*
X17231667Y-5721660D01*
X17063309Y-5822675D01*
X16962293Y-5856347D01*
X16894950Y-5856347D01*
X16793935Y-5822675D01*
X16726591Y-5755332D01*
X16692919Y-5654316D01*
X16692919Y-5586973D01*
X16726591Y-5485958D01*
X16894950Y-5317599D01*
X17029637Y-5250255D01*
X18006118Y-5620645D02*
X17299011Y-4913538D01*
X17467370Y-4745179D01*
X17602057Y-4677836D01*
X17736744Y-4677836D01*
X17837759Y-4711507D01*
X18006118Y-4812523D01*
X18107133Y-4913538D01*
X18208148Y-5081897D01*
X18241820Y-5182912D01*
X18241820Y-5317599D01*
X18174476Y-5452286D01*
X18006118Y-5620645D01*
X18477522Y-4745179D02*
X18814240Y-4408462D01*
X18612209Y-5014553D02*
X18140805Y-4071744D01*
X19083614Y-4543149D01*
X19839011Y-6260408D02*
X19973698Y-6193064D01*
X20142057Y-6024706D01*
X20175728Y-5923690D01*
X20175728Y-5856347D01*
X20142057Y-5755332D01*
X20074713Y-5687988D01*
X19973698Y-5654316D01*
X19906354Y-5654316D01*
X19805339Y-5687988D01*
X19636980Y-5789003D01*
X19535965Y-5822675D01*
X19468622Y-5822675D01*
X19367606Y-5789003D01*
X19300263Y-5721660D01*
X19266591Y-5620645D01*
X19266591Y-5553301D01*
X19300263Y-5452286D01*
X19468622Y-5283927D01*
X19603309Y-5216584D01*
X20916507Y-5115568D02*
X20916507Y-5182912D01*
X20849163Y-5317599D01*
X20781820Y-5384942D01*
X20647133Y-5452286D01*
X20512446Y-5452286D01*
X20411431Y-5418614D01*
X20243072Y-5317599D01*
X20142057Y-5216584D01*
X20041041Y-5048225D01*
X20007370Y-4947210D01*
X20007370Y-4812523D01*
X20074713Y-4677836D01*
X20142057Y-4610492D01*
X20276744Y-4543149D01*
X20344087Y-4543149D01*
X21623614Y-4543149D02*
X21286896Y-4879866D01*
X20579789Y-4172759D01*
X20089332Y-8213369D02*
X20426049Y-7876652D01*
X20224019Y-8482743D02*
X19752614Y-7539934D01*
X20695423Y-8011339D01*
X20628080Y-7270560D02*
X20527065Y-7304232D01*
X20459721Y-7304232D01*
X20358706Y-7270560D01*
X20325034Y-7236889D01*
X20291362Y-7135873D01*
X20291362Y-7068530D01*
X20325034Y-6967515D01*
X20459721Y-6832828D01*
X20560736Y-6799156D01*
X20628080Y-6799156D01*
X20729095Y-6832828D01*
X20762767Y-6866499D01*
X20796439Y-6967515D01*
X20796439Y-7034858D01*
X20762767Y-7135873D01*
X20628080Y-7270560D01*
X20594408Y-7371576D01*
X20594408Y-7438919D01*
X20628080Y-7539934D01*
X20762767Y-7674621D01*
X20863782Y-7708293D01*
X20931126Y-7708293D01*
X21032141Y-7674621D01*
X21166828Y-7539934D01*
X21200500Y-7438919D01*
X21200500Y-7371576D01*
X21166828Y-7270560D01*
X21032141Y-7135873D01*
X20931126Y-7102202D01*
X20863782Y-7102202D01*
X20762767Y-7135873D01*
X21368858Y-5856347D02*
X21671904Y-7371576D01*
X22345339Y-6361423D02*
X21638232Y-5654316D01*
X21806591Y-5485958D01*
X21941278Y-5418614D01*
X22075965Y-5418614D01*
X22176980Y-5452286D01*
X22345339Y-5553301D01*
X22446354Y-5654316D01*
X22547370Y-5822675D01*
X22581041Y-5923690D01*
X22581041Y-6058377D01*
X22513698Y-6193064D01*
X22345339Y-6361423D01*
X22379011Y-5048225D02*
X22379011Y-4980881D01*
X22412683Y-4879866D01*
X22581041Y-4711507D01*
X22682057Y-4677836D01*
X22749400Y-4677836D01*
X22850415Y-4711507D01*
X22917759Y-4778851D01*
X22985102Y-4913538D01*
X22985102Y-5721660D01*
X23422835Y-5283927D01*
X23052446Y-4374790D02*
X23052446Y-4307446D01*
X23086118Y-4206431D01*
X23254476Y-4038072D01*
X23355492Y-4004400D01*
X23422835Y-4004400D01*
X23523850Y-4038072D01*
X23591194Y-4105416D01*
X23658537Y-4240103D01*
X23658537Y-5048225D01*
X24096270Y-4610492D01*
X22629332Y-8213369D02*
X22966049Y-7876652D01*
X22764019Y-8482743D02*
X22292614Y-7539934D01*
X23235423Y-8011339D01*
X23504797Y-7741965D02*
X23639484Y-7607278D01*
X23673156Y-7506263D01*
X23673156Y-7438919D01*
X23639484Y-7270560D01*
X23538469Y-7102202D01*
X23269095Y-6832828D01*
X23168080Y-6799156D01*
X23100736Y-6799156D01*
X22999721Y-6832828D01*
X22865034Y-6967515D01*
X22831362Y-7068530D01*
X22831362Y-7135873D01*
X22865034Y-7236889D01*
X23033393Y-7405247D01*
X23134408Y-7438919D01*
X23201752Y-7438919D01*
X23302767Y-7405247D01*
X23437454Y-7270560D01*
X23471126Y-7169545D01*
X23471126Y-7102202D01*
X23437454Y-7001186D01*
X23908858Y-5856347D02*
X24211904Y-7371576D01*
X24885339Y-6361423D02*
X24178232Y-5654316D01*
X24346591Y-5485958D01*
X24481278Y-5418614D01*
X24615965Y-5418614D01*
X24716980Y-5452286D01*
X24885339Y-5553301D01*
X24986354Y-5654316D01*
X25087370Y-5822675D01*
X25121041Y-5923690D01*
X25121041Y-6058377D01*
X25053698Y-6193064D01*
X24885339Y-6361423D01*
X24817996Y-5014553D02*
X25255728Y-4576820D01*
X25289400Y-5081897D01*
X25390415Y-4980881D01*
X25491431Y-4947210D01*
X25558774Y-4947210D01*
X25659789Y-4980881D01*
X25828148Y-5149240D01*
X25861820Y-5250255D01*
X25861820Y-5317599D01*
X25828148Y-5418614D01*
X25626118Y-5620645D01*
X25525102Y-5654316D01*
X25457759Y-5654316D01*
X25592446Y-4374790D02*
X25592446Y-4307446D01*
X25626118Y-4206431D01*
X25794476Y-4038072D01*
X25895492Y-4004400D01*
X25962835Y-4004400D01*
X26063850Y-4038072D01*
X26131194Y-4105416D01*
X26198537Y-4240103D01*
X26198537Y-5048225D01*
X26636270Y-4610492D01*
D13*
X48934714Y-32648571D02*
X48906142Y-32620000D01*
X48877571Y-32534285D01*
X48877571Y-32477142D01*
X48906142Y-32391428D01*
X48963285Y-32334285D01*
X49020428Y-32305714D01*
X49134714Y-32277142D01*
X49220428Y-32277142D01*
X49334714Y-32305714D01*
X49391857Y-32334285D01*
X49449000Y-32391428D01*
X49477571Y-32477142D01*
X49477571Y-32534285D01*
X49449000Y-32620000D01*
X49420428Y-32648571D01*
X49477571Y-33020000D02*
X49477571Y-33134285D01*
X49449000Y-33191428D01*
X49391857Y-33248571D01*
X49277571Y-33277142D01*
X49077571Y-33277142D01*
X48963285Y-33248571D01*
X48906142Y-33191428D01*
X48877571Y-33134285D01*
X48877571Y-33020000D01*
X48906142Y-32962857D01*
X48963285Y-32905714D01*
X49077571Y-32877142D01*
X49277571Y-32877142D01*
X49391857Y-32905714D01*
X49449000Y-32962857D01*
X49477571Y-33020000D01*
X48877571Y-33820000D02*
X48877571Y-33534285D01*
X49477571Y-33534285D01*
X48934714Y-29981571D02*
X48906142Y-29953000D01*
X48877571Y-29867285D01*
X48877571Y-29810142D01*
X48906142Y-29724428D01*
X48963285Y-29667285D01*
X49020428Y-29638714D01*
X49134714Y-29610142D01*
X49220428Y-29610142D01*
X49334714Y-29638714D01*
X49391857Y-29667285D01*
X49449000Y-29724428D01*
X49477571Y-29810142D01*
X49477571Y-29867285D01*
X49449000Y-29953000D01*
X49420428Y-29981571D01*
X49477571Y-30353000D02*
X49477571Y-30467285D01*
X49449000Y-30524428D01*
X49391857Y-30581571D01*
X49277571Y-30610142D01*
X49077571Y-30610142D01*
X48963285Y-30581571D01*
X48906142Y-30524428D01*
X48877571Y-30467285D01*
X48877571Y-30353000D01*
X48906142Y-30295857D01*
X48963285Y-30238714D01*
X49077571Y-30210142D01*
X49277571Y-30210142D01*
X49391857Y-30238714D01*
X49449000Y-30295857D01*
X49477571Y-30353000D01*
X48877571Y-31153000D02*
X48877571Y-30867285D01*
X49477571Y-30867285D01*
X48934714Y-27441571D02*
X48906142Y-27413000D01*
X48877571Y-27327285D01*
X48877571Y-27270142D01*
X48906142Y-27184428D01*
X48963285Y-27127285D01*
X49020428Y-27098714D01*
X49134714Y-27070142D01*
X49220428Y-27070142D01*
X49334714Y-27098714D01*
X49391857Y-27127285D01*
X49449000Y-27184428D01*
X49477571Y-27270142D01*
X49477571Y-27327285D01*
X49449000Y-27413000D01*
X49420428Y-27441571D01*
X49477571Y-27813000D02*
X49477571Y-27927285D01*
X49449000Y-27984428D01*
X49391857Y-28041571D01*
X49277571Y-28070142D01*
X49077571Y-28070142D01*
X48963285Y-28041571D01*
X48906142Y-27984428D01*
X48877571Y-27927285D01*
X48877571Y-27813000D01*
X48906142Y-27755857D01*
X48963285Y-27698714D01*
X49077571Y-27670142D01*
X49277571Y-27670142D01*
X49391857Y-27698714D01*
X49449000Y-27755857D01*
X49477571Y-27813000D01*
X48877571Y-28613000D02*
X48877571Y-28327285D01*
X49477571Y-28327285D01*
X48934714Y-25028571D02*
X48906142Y-25000000D01*
X48877571Y-24914285D01*
X48877571Y-24857142D01*
X48906142Y-24771428D01*
X48963285Y-24714285D01*
X49020428Y-24685714D01*
X49134714Y-24657142D01*
X49220428Y-24657142D01*
X49334714Y-24685714D01*
X49391857Y-24714285D01*
X49449000Y-24771428D01*
X49477571Y-24857142D01*
X49477571Y-24914285D01*
X49449000Y-25000000D01*
X49420428Y-25028571D01*
X49477571Y-25400000D02*
X49477571Y-25514285D01*
X49449000Y-25571428D01*
X49391857Y-25628571D01*
X49277571Y-25657142D01*
X49077571Y-25657142D01*
X48963285Y-25628571D01*
X48906142Y-25571428D01*
X48877571Y-25514285D01*
X48877571Y-25400000D01*
X48906142Y-25342857D01*
X48963285Y-25285714D01*
X49077571Y-25257142D01*
X49277571Y-25257142D01*
X49391857Y-25285714D01*
X49449000Y-25342857D01*
X49477571Y-25400000D01*
X48877571Y-26200000D02*
X48877571Y-25914285D01*
X49477571Y-25914285D01*
X48934714Y-17408571D02*
X48906142Y-17380000D01*
X48877571Y-17294285D01*
X48877571Y-17237142D01*
X48906142Y-17151428D01*
X48963285Y-17094285D01*
X49020428Y-17065714D01*
X49134714Y-17037142D01*
X49220428Y-17037142D01*
X49334714Y-17065714D01*
X49391857Y-17094285D01*
X49449000Y-17151428D01*
X49477571Y-17237142D01*
X49477571Y-17294285D01*
X49449000Y-17380000D01*
X49420428Y-17408571D01*
X49477571Y-17780000D02*
X49477571Y-17894285D01*
X49449000Y-17951428D01*
X49391857Y-18008571D01*
X49277571Y-18037142D01*
X49077571Y-18037142D01*
X48963285Y-18008571D01*
X48906142Y-17951428D01*
X48877571Y-17894285D01*
X48877571Y-17780000D01*
X48906142Y-17722857D01*
X48963285Y-17665714D01*
X49077571Y-17637142D01*
X49277571Y-17637142D01*
X49391857Y-17665714D01*
X49449000Y-17722857D01*
X49477571Y-17780000D01*
X48877571Y-18580000D02*
X48877571Y-18294285D01*
X49477571Y-18294285D01*
X48934714Y-14868571D02*
X48906142Y-14840000D01*
X48877571Y-14754285D01*
X48877571Y-14697142D01*
X48906142Y-14611428D01*
X48963285Y-14554285D01*
X49020428Y-14525714D01*
X49134714Y-14497142D01*
X49220428Y-14497142D01*
X49334714Y-14525714D01*
X49391857Y-14554285D01*
X49449000Y-14611428D01*
X49477571Y-14697142D01*
X49477571Y-14754285D01*
X49449000Y-14840000D01*
X49420428Y-14868571D01*
X49477571Y-15240000D02*
X49477571Y-15354285D01*
X49449000Y-15411428D01*
X49391857Y-15468571D01*
X49277571Y-15497142D01*
X49077571Y-15497142D01*
X48963285Y-15468571D01*
X48906142Y-15411428D01*
X48877571Y-15354285D01*
X48877571Y-15240000D01*
X48906142Y-15182857D01*
X48963285Y-15125714D01*
X49077571Y-15097142D01*
X49277571Y-15097142D01*
X49391857Y-15125714D01*
X49449000Y-15182857D01*
X49477571Y-15240000D01*
X48877571Y-16040000D02*
X48877571Y-15754285D01*
X49477571Y-15754285D01*
X28535285Y-5451428D02*
X28563857Y-5480000D01*
X28592428Y-5565714D01*
X28592428Y-5622857D01*
X28563857Y-5708571D01*
X28506714Y-5765714D01*
X28449571Y-5794285D01*
X28335285Y-5822857D01*
X28249571Y-5822857D01*
X28135285Y-5794285D01*
X28078142Y-5765714D01*
X28021000Y-5708571D01*
X27992428Y-5622857D01*
X27992428Y-5565714D01*
X28021000Y-5480000D01*
X28049571Y-5451428D01*
X27992428Y-5080000D02*
X27992428Y-4965714D01*
X28021000Y-4908571D01*
X28078142Y-4851428D01*
X28192428Y-4822857D01*
X28392428Y-4822857D01*
X28506714Y-4851428D01*
X28563857Y-4908571D01*
X28592428Y-4965714D01*
X28592428Y-5080000D01*
X28563857Y-5137142D01*
X28506714Y-5194285D01*
X28392428Y-5222857D01*
X28192428Y-5222857D01*
X28078142Y-5194285D01*
X28021000Y-5137142D01*
X27992428Y-5080000D01*
X28592428Y-4280000D02*
X28592428Y-4565714D01*
X27992428Y-4565714D01*
X28535285Y-7991428D02*
X28563857Y-8020000D01*
X28592428Y-8105714D01*
X28592428Y-8162857D01*
X28563857Y-8248571D01*
X28506714Y-8305714D01*
X28449571Y-8334285D01*
X28335285Y-8362857D01*
X28249571Y-8362857D01*
X28135285Y-8334285D01*
X28078142Y-8305714D01*
X28021000Y-8248571D01*
X27992428Y-8162857D01*
X27992428Y-8105714D01*
X28021000Y-8020000D01*
X28049571Y-7991428D01*
X27992428Y-7620000D02*
X27992428Y-7505714D01*
X28021000Y-7448571D01*
X28078142Y-7391428D01*
X28192428Y-7362857D01*
X28392428Y-7362857D01*
X28506714Y-7391428D01*
X28563857Y-7448571D01*
X28592428Y-7505714D01*
X28592428Y-7620000D01*
X28563857Y-7677142D01*
X28506714Y-7734285D01*
X28392428Y-7762857D01*
X28192428Y-7762857D01*
X28078142Y-7734285D01*
X28021000Y-7677142D01*
X27992428Y-7620000D01*
X28592428Y-6820000D02*
X28592428Y-7105714D01*
X27992428Y-7105714D01*
X28535285Y-10531428D02*
X28563857Y-10560000D01*
X28592428Y-10645714D01*
X28592428Y-10702857D01*
X28563857Y-10788571D01*
X28506714Y-10845714D01*
X28449571Y-10874285D01*
X28335285Y-10902857D01*
X28249571Y-10902857D01*
X28135285Y-10874285D01*
X28078142Y-10845714D01*
X28021000Y-10788571D01*
X27992428Y-10702857D01*
X27992428Y-10645714D01*
X28021000Y-10560000D01*
X28049571Y-10531428D01*
X27992428Y-10160000D02*
X27992428Y-10045714D01*
X28021000Y-9988571D01*
X28078142Y-9931428D01*
X28192428Y-9902857D01*
X28392428Y-9902857D01*
X28506714Y-9931428D01*
X28563857Y-9988571D01*
X28592428Y-10045714D01*
X28592428Y-10160000D01*
X28563857Y-10217142D01*
X28506714Y-10274285D01*
X28392428Y-10302857D01*
X28192428Y-10302857D01*
X28078142Y-10274285D01*
X28021000Y-10217142D01*
X27992428Y-10160000D01*
X28592428Y-9360000D02*
X28592428Y-9645714D01*
X27992428Y-9645714D01*
X28535285Y-13071428D02*
X28563857Y-13100000D01*
X28592428Y-13185714D01*
X28592428Y-13242857D01*
X28563857Y-13328571D01*
X28506714Y-13385714D01*
X28449571Y-13414285D01*
X28335285Y-13442857D01*
X28249571Y-13442857D01*
X28135285Y-13414285D01*
X28078142Y-13385714D01*
X28021000Y-13328571D01*
X27992428Y-13242857D01*
X27992428Y-13185714D01*
X28021000Y-13100000D01*
X28049571Y-13071428D01*
X27992428Y-12700000D02*
X27992428Y-12585714D01*
X28021000Y-12528571D01*
X28078142Y-12471428D01*
X28192428Y-12442857D01*
X28392428Y-12442857D01*
X28506714Y-12471428D01*
X28563857Y-12528571D01*
X28592428Y-12585714D01*
X28592428Y-12700000D01*
X28563857Y-12757142D01*
X28506714Y-12814285D01*
X28392428Y-12842857D01*
X28192428Y-12842857D01*
X28078142Y-12814285D01*
X28021000Y-12757142D01*
X27992428Y-12700000D01*
X28592428Y-11900000D02*
X28592428Y-12185714D01*
X27992428Y-12185714D01*
D14*
X28592428Y-28411428D02*
X28306714Y-28611428D01*
X28592428Y-28754285D02*
X27992428Y-28754285D01*
X27992428Y-28525714D01*
X28021000Y-28468571D01*
X28049571Y-28440000D01*
X28106714Y-28411428D01*
X28192428Y-28411428D01*
X28249571Y-28440000D01*
X28278142Y-28468571D01*
X28306714Y-28525714D01*
X28306714Y-28754285D01*
X27992428Y-28040000D02*
X27992428Y-27925714D01*
X28021000Y-27868571D01*
X28078142Y-27811428D01*
X28192428Y-27782857D01*
X28392428Y-27782857D01*
X28506714Y-27811428D01*
X28563857Y-27868571D01*
X28592428Y-27925714D01*
X28592428Y-28040000D01*
X28563857Y-28097142D01*
X28506714Y-28154285D01*
X28392428Y-28182857D01*
X28192428Y-28182857D01*
X28078142Y-28154285D01*
X28021000Y-28097142D01*
X27992428Y-28040000D01*
X27992428Y-27582857D02*
X28592428Y-27440000D01*
X28163857Y-27325714D01*
X28592428Y-27211428D01*
X27992428Y-27068571D01*
D13*
X28592428Y-25871428D02*
X28306714Y-26071428D01*
X28592428Y-26214285D02*
X27992428Y-26214285D01*
X27992428Y-25985714D01*
X28021000Y-25928571D01*
X28049571Y-25900000D01*
X28106714Y-25871428D01*
X28192428Y-25871428D01*
X28249571Y-25900000D01*
X28278142Y-25928571D01*
X28306714Y-25985714D01*
X28306714Y-26214285D01*
X27992428Y-25500000D02*
X27992428Y-25385714D01*
X28021000Y-25328571D01*
X28078142Y-25271428D01*
X28192428Y-25242857D01*
X28392428Y-25242857D01*
X28506714Y-25271428D01*
X28563857Y-25328571D01*
X28592428Y-25385714D01*
X28592428Y-25500000D01*
X28563857Y-25557142D01*
X28506714Y-25614285D01*
X28392428Y-25642857D01*
X28192428Y-25642857D01*
X28078142Y-25614285D01*
X28021000Y-25557142D01*
X27992428Y-25500000D01*
X27992428Y-25042857D02*
X28592428Y-24900000D01*
X28163857Y-24785714D01*
X28592428Y-24671428D01*
X27992428Y-24528571D01*
X28592428Y-23331428D02*
X28306714Y-23531428D01*
X28592428Y-23674285D02*
X27992428Y-23674285D01*
X27992428Y-23445714D01*
X28021000Y-23388571D01*
X28049571Y-23360000D01*
X28106714Y-23331428D01*
X28192428Y-23331428D01*
X28249571Y-23360000D01*
X28278142Y-23388571D01*
X28306714Y-23445714D01*
X28306714Y-23674285D01*
X27992428Y-22960000D02*
X27992428Y-22845714D01*
X28021000Y-22788571D01*
X28078142Y-22731428D01*
X28192428Y-22702857D01*
X28392428Y-22702857D01*
X28506714Y-22731428D01*
X28563857Y-22788571D01*
X28592428Y-22845714D01*
X28592428Y-22960000D01*
X28563857Y-23017142D01*
X28506714Y-23074285D01*
X28392428Y-23102857D01*
X28192428Y-23102857D01*
X28078142Y-23074285D01*
X28021000Y-23017142D01*
X27992428Y-22960000D01*
X27992428Y-22502857D02*
X28592428Y-22360000D01*
X28163857Y-22245714D01*
X28592428Y-22131428D01*
X27992428Y-21988571D01*
X28592428Y-20791428D02*
X28306714Y-20991428D01*
X28592428Y-21134285D02*
X27992428Y-21134285D01*
X27992428Y-20905714D01*
X28021000Y-20848571D01*
X28049571Y-20820000D01*
X28106714Y-20791428D01*
X28192428Y-20791428D01*
X28249571Y-20820000D01*
X28278142Y-20848571D01*
X28306714Y-20905714D01*
X28306714Y-21134285D01*
X27992428Y-20420000D02*
X27992428Y-20305714D01*
X28021000Y-20248571D01*
X28078142Y-20191428D01*
X28192428Y-20162857D01*
X28392428Y-20162857D01*
X28506714Y-20191428D01*
X28563857Y-20248571D01*
X28592428Y-20305714D01*
X28592428Y-20420000D01*
X28563857Y-20477142D01*
X28506714Y-20534285D01*
X28392428Y-20562857D01*
X28192428Y-20562857D01*
X28078142Y-20534285D01*
X28021000Y-20477142D01*
X27992428Y-20420000D01*
X27992428Y-19962857D02*
X28592428Y-19820000D01*
X28163857Y-19705714D01*
X28592428Y-19591428D01*
X27992428Y-19448571D01*
X28592428Y-18251428D02*
X28306714Y-18451428D01*
X28592428Y-18594285D02*
X27992428Y-18594285D01*
X27992428Y-18365714D01*
X28021000Y-18308571D01*
X28049571Y-18280000D01*
X28106714Y-18251428D01*
X28192428Y-18251428D01*
X28249571Y-18280000D01*
X28278142Y-18308571D01*
X28306714Y-18365714D01*
X28306714Y-18594285D01*
X27992428Y-17880000D02*
X27992428Y-17765714D01*
X28021000Y-17708571D01*
X28078142Y-17651428D01*
X28192428Y-17622857D01*
X28392428Y-17622857D01*
X28506714Y-17651428D01*
X28563857Y-17708571D01*
X28592428Y-17765714D01*
X28592428Y-17880000D01*
X28563857Y-17937142D01*
X28506714Y-17994285D01*
X28392428Y-18022857D01*
X28192428Y-18022857D01*
X28078142Y-17994285D01*
X28021000Y-17937142D01*
X27992428Y-17880000D01*
X27992428Y-17422857D02*
X28592428Y-17280000D01*
X28163857Y-17165714D01*
X28592428Y-17051428D01*
X27992428Y-16908571D01*
X28592428Y-15711428D02*
X28306714Y-15911428D01*
X28592428Y-16054285D02*
X27992428Y-16054285D01*
X27992428Y-15825714D01*
X28021000Y-15768571D01*
X28049571Y-15740000D01*
X28106714Y-15711428D01*
X28192428Y-15711428D01*
X28249571Y-15740000D01*
X28278142Y-15768571D01*
X28306714Y-15825714D01*
X28306714Y-16054285D01*
X27992428Y-15340000D02*
X27992428Y-15225714D01*
X28021000Y-15168571D01*
X28078142Y-15111428D01*
X28192428Y-15082857D01*
X28392428Y-15082857D01*
X28506714Y-15111428D01*
X28563857Y-15168571D01*
X28592428Y-15225714D01*
X28592428Y-15340000D01*
X28563857Y-15397142D01*
X28506714Y-15454285D01*
X28392428Y-15482857D01*
X28192428Y-15482857D01*
X28078142Y-15454285D01*
X28021000Y-15397142D01*
X27992428Y-15340000D01*
X27992428Y-14882857D02*
X28592428Y-14740000D01*
X28163857Y-14625714D01*
X28592428Y-14511428D01*
X27992428Y-14368571D01*
D11*
X35373571Y-28788571D02*
X35373571Y-27931428D01*
X36873571Y-28360000D02*
X35373571Y-28360000D01*
X36802142Y-26860000D02*
X36873571Y-27002857D01*
X36873571Y-27288571D01*
X36802142Y-27431428D01*
X36659285Y-27502857D01*
X36087857Y-27502857D01*
X35945000Y-27431428D01*
X35873571Y-27288571D01*
X35873571Y-27002857D01*
X35945000Y-26860000D01*
X36087857Y-26788571D01*
X36230714Y-26788571D01*
X36373571Y-27502857D01*
X36802142Y-25574285D02*
X36873571Y-25717142D01*
X36873571Y-26002857D01*
X36802142Y-26145714D01*
X36659285Y-26217142D01*
X36087857Y-26217142D01*
X35945000Y-26145714D01*
X35873571Y-26002857D01*
X35873571Y-25717142D01*
X35945000Y-25574285D01*
X36087857Y-25502857D01*
X36230714Y-25502857D01*
X36373571Y-26217142D01*
X35873571Y-24860000D02*
X36873571Y-24860000D01*
X36016428Y-24860000D02*
X35945000Y-24788571D01*
X35873571Y-24645714D01*
X35873571Y-24431428D01*
X35945000Y-24288571D01*
X36087857Y-24217142D01*
X36873571Y-24217142D01*
X36802142Y-23574285D02*
X36873571Y-23431428D01*
X36873571Y-23145714D01*
X36802142Y-23002857D01*
X36659285Y-22931428D01*
X36587857Y-22931428D01*
X36445000Y-23002857D01*
X36373571Y-23145714D01*
X36373571Y-23360000D01*
X36302142Y-23502857D01*
X36159285Y-23574285D01*
X36087857Y-23574285D01*
X35945000Y-23502857D01*
X35873571Y-23360000D01*
X35873571Y-23145714D01*
X35945000Y-23002857D01*
X35873571Y-22431428D02*
X36873571Y-22074285D01*
X35873571Y-21717142D02*
X36873571Y-22074285D01*
X37230714Y-22217142D01*
X37302142Y-22288571D01*
X37373571Y-22431428D01*
X35373571Y-20145714D02*
X35373571Y-19217142D01*
X35945000Y-19717142D01*
X35945000Y-19502857D01*
X36016428Y-19360000D01*
X36087857Y-19288571D01*
X36230714Y-19217142D01*
X36587857Y-19217142D01*
X36730714Y-19288571D01*
X36802142Y-19360000D01*
X36873571Y-19502857D01*
X36873571Y-19931428D01*
X36802142Y-20074285D01*
X36730714Y-20145714D01*
X36730714Y-18574285D02*
X36802142Y-18502857D01*
X36873571Y-18574285D01*
X36802142Y-18645714D01*
X36730714Y-18574285D01*
X36873571Y-18574285D01*
X35516428Y-17931428D02*
X35445000Y-17860000D01*
X35373571Y-17717142D01*
X35373571Y-17360000D01*
X35445000Y-17217142D01*
X35516428Y-17145714D01*
X35659285Y-17074285D01*
X35802142Y-17074285D01*
X36016428Y-17145714D01*
X36873571Y-18002857D01*
X36873571Y-17074285D01*
D12*
X29448095Y-27392380D02*
X28971904Y-27392380D01*
X28924285Y-27868571D01*
X28971904Y-27820952D01*
X29067142Y-27773333D01*
X29305238Y-27773333D01*
X29400476Y-27820952D01*
X29448095Y-27868571D01*
X29495714Y-27963809D01*
X29495714Y-28201904D01*
X29448095Y-28297142D01*
X29400476Y-28344761D01*
X29305238Y-28392380D01*
X29067142Y-28392380D01*
X28971904Y-28344761D01*
X28924285Y-28297142D01*
X28876666Y-24852380D02*
X29495714Y-24852380D01*
X29162380Y-25233333D01*
X29305238Y-25233333D01*
X29400476Y-25280952D01*
X29448095Y-25328571D01*
X29495714Y-25423809D01*
X29495714Y-25661904D01*
X29448095Y-25757142D01*
X29400476Y-25804761D01*
X29305238Y-25852380D01*
X29019523Y-25852380D01*
X28924285Y-25804761D01*
X28876666Y-25757142D01*
X28924285Y-22407619D02*
X28971904Y-22360000D01*
X29067142Y-22312380D01*
X29305238Y-22312380D01*
X29400476Y-22360000D01*
X29448095Y-22407619D01*
X29495714Y-22502857D01*
X29495714Y-22598095D01*
X29448095Y-22740952D01*
X28876666Y-23312380D01*
X29495714Y-23312380D01*
X29400476Y-20105714D02*
X29400476Y-20772380D01*
X29162380Y-19724761D02*
X28924285Y-20439047D01*
X29543333Y-20439047D01*
X29495714Y-18232380D02*
X28924285Y-18232380D01*
X29210000Y-18232380D02*
X29210000Y-17232380D01*
X29114761Y-17375238D01*
X29019523Y-17470476D01*
X28924285Y-17518095D01*
X29162380Y-14692380D02*
X29257619Y-14692380D01*
X29352857Y-14740000D01*
X29400476Y-14787619D01*
X29448095Y-14882857D01*
X29495714Y-15073333D01*
X29495714Y-15311428D01*
X29448095Y-15501904D01*
X29400476Y-15597142D01*
X29352857Y-15644761D01*
X29257619Y-15692380D01*
X29162380Y-15692380D01*
X29067142Y-15644761D01*
X29019523Y-15597142D01*
X28971904Y-15501904D01*
X28924285Y-15311428D01*
X28924285Y-15073333D01*
X28971904Y-14882857D01*
X29019523Y-14787619D01*
X29067142Y-14740000D01*
X29162380Y-14692380D01*
X28876666Y-12152380D02*
X29495714Y-12152380D01*
X29162380Y-12533333D01*
X29305238Y-12533333D01*
X29400476Y-12580952D01*
X29448095Y-12628571D01*
X29495714Y-12723809D01*
X29495714Y-12961904D01*
X29448095Y-13057142D01*
X29400476Y-13104761D01*
X29305238Y-13152380D01*
X29019523Y-13152380D01*
X28924285Y-13104761D01*
X28876666Y-13057142D01*
X28924285Y-9707619D02*
X28971904Y-9660000D01*
X29067142Y-9612380D01*
X29305238Y-9612380D01*
X29400476Y-9660000D01*
X29448095Y-9707619D01*
X29495714Y-9802857D01*
X29495714Y-9898095D01*
X29448095Y-10040952D01*
X28876666Y-10612380D01*
X29495714Y-10612380D01*
X29495714Y-8072380D02*
X28924285Y-8072380D01*
X29210000Y-8072380D02*
X29210000Y-7072380D01*
X29114761Y-7215238D01*
X29019523Y-7310476D01*
X28924285Y-7358095D01*
X29162380Y-4532380D02*
X29257619Y-4532380D01*
X29352857Y-4580000D01*
X29400476Y-4627619D01*
X29448095Y-4722857D01*
X29495714Y-4913333D01*
X29495714Y-5151428D01*
X29448095Y-5341904D01*
X29400476Y-5437142D01*
X29352857Y-5484761D01*
X29257619Y-5532380D01*
X29162380Y-5532380D01*
X29067142Y-5484761D01*
X29019523Y-5437142D01*
X28971904Y-5341904D01*
X28924285Y-5151428D01*
X28924285Y-4913333D01*
X28971904Y-4722857D01*
X29019523Y-4627619D01*
X29067142Y-4580000D01*
X29162380Y-4532380D01*
X48069523Y-15692380D02*
X48260000Y-15692380D01*
X48355238Y-15644761D01*
X48402857Y-15597142D01*
X48498095Y-15454285D01*
X48545714Y-15263809D01*
X48545714Y-14882857D01*
X48498095Y-14787619D01*
X48450476Y-14740000D01*
X48355238Y-14692380D01*
X48164761Y-14692380D01*
X48069523Y-14740000D01*
X48021904Y-14787619D01*
X47974285Y-14882857D01*
X47974285Y-15120952D01*
X48021904Y-15216190D01*
X48069523Y-15263809D01*
X48164761Y-15311428D01*
X48355238Y-15311428D01*
X48450476Y-15263809D01*
X48498095Y-15216190D01*
X48545714Y-15120952D01*
X48164761Y-17660952D02*
X48069523Y-17613333D01*
X48021904Y-17565714D01*
X47974285Y-17470476D01*
X47974285Y-17422857D01*
X48021904Y-17327619D01*
X48069523Y-17280000D01*
X48164761Y-17232380D01*
X48355238Y-17232380D01*
X48450476Y-17280000D01*
X48498095Y-17327619D01*
X48545714Y-17422857D01*
X48545714Y-17470476D01*
X48498095Y-17565714D01*
X48450476Y-17613333D01*
X48355238Y-17660952D01*
X48164761Y-17660952D01*
X48069523Y-17708571D01*
X48021904Y-17756190D01*
X47974285Y-17851428D01*
X47974285Y-18041904D01*
X48021904Y-18137142D01*
X48069523Y-18184761D01*
X48164761Y-18232380D01*
X48355238Y-18232380D01*
X48450476Y-18184761D01*
X48498095Y-18137142D01*
X48545714Y-18041904D01*
X48545714Y-17851428D01*
X48498095Y-17756190D01*
X48450476Y-17708571D01*
X48355238Y-17660952D01*
X48450476Y-24852380D02*
X48260000Y-24852380D01*
X48164761Y-24900000D01*
X48117142Y-24947619D01*
X48021904Y-25090476D01*
X47974285Y-25280952D01*
X47974285Y-25661904D01*
X48021904Y-25757142D01*
X48069523Y-25804761D01*
X48164761Y-25852380D01*
X48355238Y-25852380D01*
X48450476Y-25804761D01*
X48498095Y-25757142D01*
X48545714Y-25661904D01*
X48545714Y-25423809D01*
X48498095Y-25328571D01*
X48450476Y-25280952D01*
X48355238Y-25233333D01*
X48164761Y-25233333D01*
X48069523Y-25280952D01*
X48021904Y-25328571D01*
X47974285Y-25423809D01*
X47926666Y-27392380D02*
X48593333Y-27392380D01*
X48164761Y-28392380D01*
X48450476Y-30265714D02*
X48450476Y-30932380D01*
X48212380Y-29884761D02*
X47974285Y-30599047D01*
X48593333Y-30599047D01*
X48498095Y-32472380D02*
X48021904Y-32472380D01*
X47974285Y-32948571D01*
X48021904Y-32900952D01*
X48117142Y-32853333D01*
X48355238Y-32853333D01*
X48450476Y-32900952D01*
X48498095Y-32948571D01*
X48545714Y-33043809D01*
X48545714Y-33281904D01*
X48498095Y-33377142D01*
X48450476Y-33424761D01*
X48355238Y-33472380D01*
X48117142Y-33472380D01*
X48021904Y-33424761D01*
X47974285Y-33377142D01*
X50668750Y-69290000D02*
X57812500Y-69290000D01*
X45906250Y-69290000D02*
X38762500Y-69290000D01*
X38762500Y-79450000D02*
X38762500Y-69290000D01*
X57812500Y-79450000D02*
X38762500Y-79450000D01*
X57812500Y-69290000D02*
X57812500Y-79450000D01*
D15*
X24201476Y-28503571D02*
X23868142Y-28503571D01*
X23868142Y-29027380D02*
X23868142Y-28027380D01*
X24344333Y-28027380D01*
X24725285Y-28360714D02*
X24725285Y-29027380D01*
X24725285Y-28455952D02*
X24772904Y-28408333D01*
X24868142Y-28360714D01*
X25011000Y-28360714D01*
X25106238Y-28408333D01*
X25153857Y-28503571D01*
X25153857Y-29027380D01*
X4377380Y-28608571D02*
X4710714Y-28608571D01*
X4853571Y-29132380D02*
X4377380Y-29132380D01*
X4377380Y-28132380D01*
X4853571Y-28132380D01*
X5234523Y-29084761D02*
X5329761Y-29132380D01*
X5520238Y-29132380D01*
X5615476Y-29084761D01*
X5663095Y-28989523D01*
X5663095Y-28941904D01*
X5615476Y-28846666D01*
X5520238Y-28799047D01*
X5377380Y-28799047D01*
X5282142Y-28751428D01*
X5234523Y-28656190D01*
X5234523Y-28608571D01*
X5282142Y-28513333D01*
X5377380Y-28465714D01*
X5520238Y-28465714D01*
X5615476Y-28513333D01*
X6520238Y-29084761D02*
X6425000Y-29132380D01*
X6234523Y-29132380D01*
X6139285Y-29084761D01*
X6091666Y-29037142D01*
X6044047Y-28941904D01*
X6044047Y-28656190D01*
X6091666Y-28560952D01*
X6139285Y-28513333D01*
X6234523Y-28465714D01*
X6425000Y-28465714D01*
X6520238Y-28513333D01*
D11*
X90078571Y-27858571D02*
X89935714Y-28144285D01*
X91792857Y-27858571D02*
X91792857Y-28144285D01*
X92364285Y-27858571D02*
X92364285Y-28144285D01*
X91150000Y-7437142D02*
X89864285Y-9365714D01*
X91864285Y-8865714D02*
X91935714Y-8937142D01*
X91864285Y-9008571D01*
X91792857Y-8937142D01*
X91864285Y-8865714D01*
X91864285Y-9008571D01*
X91578571Y-7580000D02*
X91721428Y-7508571D01*
X92078571Y-7508571D01*
X92221428Y-7580000D01*
X92292857Y-7722857D01*
X92292857Y-7865714D01*
X92221428Y-8008571D01*
X92150000Y-8080000D01*
X92007142Y-8151428D01*
X91935714Y-8222857D01*
X91864285Y-8365714D01*
X91864285Y-8437142D01*
X80482142Y-18627142D02*
X81625000Y-18627142D01*
X81982142Y-19341428D02*
X83125000Y-19341428D01*
X89650000Y-18412857D02*
X90792857Y-18412857D01*
X90792857Y-18841428D02*
X89650000Y-18841428D01*
X91507142Y-18627142D02*
X92650000Y-18627142D01*
X92078571Y-19198571D02*
X92078571Y-18055714D01*
X81053571Y-7538571D02*
X81196428Y-7538571D01*
X81339285Y-7610000D01*
X81410714Y-7681428D01*
X81482142Y-7824285D01*
X81553571Y-8110000D01*
X81553571Y-8467142D01*
X81482142Y-8752857D01*
X81410714Y-8895714D01*
X81339285Y-8967142D01*
X81196428Y-9038571D01*
X81053571Y-9038571D01*
X80910714Y-8967142D01*
X80839285Y-8895714D01*
X80767857Y-8752857D01*
X80696428Y-8467142D01*
X80696428Y-8110000D01*
X80767857Y-7824285D01*
X80839285Y-7681428D01*
X80910714Y-7610000D01*
X81053571Y-7538571D01*
X82053571Y-9610000D02*
X82125000Y-9538571D01*
X82267857Y-9324285D01*
X82339285Y-9181428D01*
X82410714Y-8967142D01*
X82482142Y-8610000D01*
X82482142Y-8324285D01*
X82410714Y-7967142D01*
X82339285Y-7752857D01*
X82267857Y-7610000D01*
X82125000Y-7395714D01*
X82053571Y-7324285D01*
X81339285Y-29257142D02*
X81339285Y-29328571D01*
X81267857Y-29471428D01*
X81196428Y-29542857D01*
X81267857Y-28400000D02*
X81339285Y-28471428D01*
X81267857Y-28542857D01*
X81196428Y-28471428D01*
X81267857Y-28400000D01*
X81267857Y-28542857D01*
X81982142Y-29185714D02*
X82053571Y-29257142D01*
X81982142Y-29328571D01*
X81910714Y-29257142D01*
X81982142Y-29185714D01*
X81982142Y-29328571D01*
X81982142Y-28400000D02*
X82053571Y-28471428D01*
X81982142Y-28542857D01*
X81910714Y-28471428D01*
X81982142Y-28400000D01*
X81982142Y-28542857D01*
X71314285Y-9038571D02*
X71600000Y-9038571D01*
X71742857Y-8967142D01*
X71814285Y-8895714D01*
X71957142Y-8681428D01*
X72028571Y-8395714D01*
X72028571Y-7824285D01*
X71957142Y-7681428D01*
X71885714Y-7610000D01*
X71742857Y-7538571D01*
X71457142Y-7538571D01*
X71314285Y-7610000D01*
X71242857Y-7681428D01*
X71171428Y-7824285D01*
X71171428Y-8181428D01*
X71242857Y-8324285D01*
X71314285Y-8395714D01*
X71457142Y-8467142D01*
X71742857Y-8467142D01*
X71885714Y-8395714D01*
X71957142Y-8324285D01*
X72028571Y-8181428D01*
X73100000Y-9610000D02*
X73028571Y-9538571D01*
X72885714Y-9324285D01*
X72814285Y-9181428D01*
X72742857Y-8967142D01*
X72671428Y-8610000D01*
X72671428Y-8324285D01*
X72742857Y-7967142D01*
X72814285Y-7752857D01*
X72885714Y-7610000D01*
X73028571Y-7395714D01*
X73100000Y-7324285D01*
X61860714Y-8181428D02*
X61717857Y-8110000D01*
X61646428Y-8038571D01*
X61575000Y-7895714D01*
X61575000Y-7824285D01*
X61646428Y-7681428D01*
X61717857Y-7610000D01*
X61860714Y-7538571D01*
X62146428Y-7538571D01*
X62289285Y-7610000D01*
X62360714Y-7681428D01*
X62432142Y-7824285D01*
X62432142Y-7895714D01*
X62360714Y-8038571D01*
X62289285Y-8110000D01*
X62146428Y-8181428D01*
X61860714Y-8181428D01*
X61717857Y-8252857D01*
X61646428Y-8324285D01*
X61575000Y-8467142D01*
X61575000Y-8752857D01*
X61646428Y-8895714D01*
X61717857Y-8967142D01*
X61860714Y-9038571D01*
X62146428Y-9038571D01*
X62289285Y-8967142D01*
X62360714Y-8895714D01*
X62432142Y-8752857D01*
X62432142Y-8467142D01*
X62360714Y-8324285D01*
X62289285Y-8252857D01*
X62146428Y-8181428D01*
X63289285Y-7538571D02*
X63289285Y-7895714D01*
X62932142Y-7752857D02*
X63289285Y-7895714D01*
X63646428Y-7752857D01*
X63075000Y-8181428D02*
X63289285Y-7895714D01*
X63503571Y-8181428D01*
X51621428Y-7538571D02*
X52621428Y-7538571D01*
X51978571Y-9038571D01*
X54407142Y-9038571D02*
X54335714Y-9038571D01*
X54192857Y-8967142D01*
X53978571Y-8752857D01*
X53621428Y-8324285D01*
X53478571Y-8110000D01*
X53407142Y-7895714D01*
X53407142Y-7752857D01*
X53478571Y-7610000D01*
X53621428Y-7538571D01*
X53692857Y-7538571D01*
X53835714Y-7610000D01*
X53907142Y-7752857D01*
X53907142Y-7824285D01*
X53835714Y-7967142D01*
X53764285Y-8038571D01*
X53335714Y-8324285D01*
X53264285Y-8395714D01*
X53192857Y-8538571D01*
X53192857Y-8752857D01*
X53264285Y-8895714D01*
X53335714Y-8967142D01*
X53478571Y-9038571D01*
X53692857Y-9038571D01*
X53835714Y-8967142D01*
X53907142Y-8895714D01*
X54121428Y-8610000D01*
X54192857Y-8395714D01*
X54192857Y-8252857D01*
X52621428Y-18198571D02*
X52621428Y-19198571D01*
X52264285Y-17627142D02*
X51907142Y-18698571D01*
X52835714Y-18698571D01*
X53335714Y-19127142D02*
X53550000Y-19198571D01*
X53907142Y-19198571D01*
X54050000Y-19127142D01*
X54121428Y-19055714D01*
X54192857Y-18912857D01*
X54192857Y-18770000D01*
X54121428Y-18627142D01*
X54050000Y-18555714D01*
X53907142Y-18484285D01*
X53621428Y-18412857D01*
X53478571Y-18341428D01*
X53407142Y-18270000D01*
X53335714Y-18127142D01*
X53335714Y-17984285D01*
X53407142Y-17841428D01*
X53478571Y-17770000D01*
X53621428Y-17698571D01*
X53978571Y-17698571D01*
X54192857Y-17770000D01*
X53764285Y-17484285D02*
X53764285Y-19412857D01*
X62075000Y-17698571D02*
X61360714Y-17698571D01*
X61289285Y-18412857D01*
X61360714Y-18341428D01*
X61503571Y-18270000D01*
X61860714Y-18270000D01*
X62003571Y-18341428D01*
X62075000Y-18412857D01*
X62146428Y-18555714D01*
X62146428Y-18912857D01*
X62075000Y-19055714D01*
X62003571Y-19127142D01*
X61860714Y-19198571D01*
X61503571Y-19198571D01*
X61360714Y-19127142D01*
X61289285Y-19055714D01*
X62717857Y-19198571D02*
X63860714Y-17698571D01*
X62932142Y-17698571D02*
X63075000Y-17770000D01*
X63146428Y-17912857D01*
X63075000Y-18055714D01*
X62932142Y-18127142D01*
X62789285Y-18055714D01*
X62717857Y-17912857D01*
X62789285Y-17770000D01*
X62932142Y-17698571D01*
X63789285Y-19127142D02*
X63860714Y-18984285D01*
X63789285Y-18841428D01*
X63646428Y-18770000D01*
X63503571Y-18841428D01*
X63432142Y-18984285D01*
X63503571Y-19127142D01*
X63646428Y-19198571D01*
X63789285Y-19127142D01*
X71957142Y-17698571D02*
X71671428Y-17698571D01*
X71528571Y-17770000D01*
X71457142Y-17841428D01*
X71314285Y-18055714D01*
X71242857Y-18341428D01*
X71242857Y-18912857D01*
X71314285Y-19055714D01*
X71385714Y-19127142D01*
X71528571Y-19198571D01*
X71814285Y-19198571D01*
X71957142Y-19127142D01*
X72028571Y-19055714D01*
X72100000Y-18912857D01*
X72100000Y-18555714D01*
X72028571Y-18412857D01*
X71957142Y-18341428D01*
X71814285Y-18270000D01*
X71528571Y-18270000D01*
X71385714Y-18341428D01*
X71314285Y-18412857D01*
X71242857Y-18555714D01*
X72528571Y-17841428D02*
X72814285Y-17627142D01*
X73100000Y-17841428D01*
X70850000Y-27858571D02*
X71778571Y-27858571D01*
X71278571Y-28430000D01*
X71492857Y-28430000D01*
X71635714Y-28501428D01*
X71707142Y-28572857D01*
X71778571Y-28715714D01*
X71778571Y-29072857D01*
X71707142Y-29215714D01*
X71635714Y-29287142D01*
X71492857Y-29358571D01*
X71064285Y-29358571D01*
X70921428Y-29287142D01*
X70850000Y-29215714D01*
X72350000Y-28358571D02*
X73421428Y-28358571D01*
X72778571Y-27715714D02*
X72350000Y-29644285D01*
X73278571Y-29001428D02*
X72207142Y-29001428D01*
X72850000Y-29644285D02*
X73278571Y-27715714D01*
X61182142Y-28001428D02*
X61253571Y-27930000D01*
X61396428Y-27858571D01*
X61753571Y-27858571D01*
X61896428Y-27930000D01*
X61967857Y-28001428D01*
X62039285Y-28144285D01*
X62039285Y-28287142D01*
X61967857Y-28501428D01*
X61110714Y-29358571D01*
X62039285Y-29358571D01*
X63610714Y-28644285D02*
X63539285Y-28572857D01*
X63396428Y-28501428D01*
X63253571Y-28501428D01*
X63110714Y-28572857D01*
X63039285Y-28644285D01*
X62967857Y-28787142D01*
X62967857Y-28930000D01*
X63039285Y-29072857D01*
X63110714Y-29144285D01*
X63253571Y-29215714D01*
X63396428Y-29215714D01*
X63539285Y-29144285D01*
X63610714Y-29072857D01*
X63610714Y-28501428D02*
X63610714Y-29072857D01*
X63682142Y-29144285D01*
X63753571Y-29144285D01*
X63896428Y-29072857D01*
X63967857Y-28930000D01*
X63967857Y-28572857D01*
X63825000Y-28358571D01*
X63610714Y-28215714D01*
X63325000Y-28144285D01*
X63039285Y-28215714D01*
X62825000Y-28358571D01*
X62682142Y-28572857D01*
X62610714Y-28858571D01*
X62682142Y-29144285D01*
X62825000Y-29358571D01*
X63039285Y-29501428D01*
X63325000Y-29572857D01*
X63610714Y-29501428D01*
X63825000Y-29358571D01*
X53121428Y-29358571D02*
X52264285Y-29358571D01*
X52692857Y-29358571D02*
X52692857Y-27858571D01*
X52550000Y-28072857D01*
X52407142Y-28215714D01*
X52264285Y-28287142D01*
X53764285Y-29215714D02*
X53835714Y-29287142D01*
X53764285Y-29358571D01*
X53692857Y-29287142D01*
X53764285Y-29215714D01*
X53764285Y-29358571D01*
X53764285Y-28787142D02*
X53692857Y-27930000D01*
X53764285Y-27858571D01*
X53835714Y-27930000D01*
X53764285Y-28787142D01*
X53764285Y-27858571D01*
D15*
X46311309Y-69694761D02*
X46406547Y-69742380D01*
X46597023Y-69742380D01*
X46692261Y-69694761D01*
X46739880Y-69599523D01*
X46739880Y-69551904D01*
X46692261Y-69456666D01*
X46597023Y-69409047D01*
X46454166Y-69409047D01*
X46358928Y-69361428D01*
X46311309Y-69266190D01*
X46311309Y-69218571D01*
X46358928Y-69123333D01*
X46454166Y-69075714D01*
X46597023Y-69075714D01*
X46692261Y-69123333D01*
X47168452Y-69075714D02*
X47168452Y-70075714D01*
X47168452Y-69123333D02*
X47263690Y-69075714D01*
X47454166Y-69075714D01*
X47549404Y-69123333D01*
X47597023Y-69170952D01*
X47644642Y-69266190D01*
X47644642Y-69551904D01*
X47597023Y-69647142D01*
X47549404Y-69694761D01*
X47454166Y-69742380D01*
X47263690Y-69742380D01*
X47168452Y-69694761D01*
X48501785Y-69742380D02*
X48501785Y-69218571D01*
X48454166Y-69123333D01*
X48358928Y-69075714D01*
X48168452Y-69075714D01*
X48073214Y-69123333D01*
X48501785Y-69694761D02*
X48406547Y-69742380D01*
X48168452Y-69742380D01*
X48073214Y-69694761D01*
X48025595Y-69599523D01*
X48025595Y-69504285D01*
X48073214Y-69409047D01*
X48168452Y-69361428D01*
X48406547Y-69361428D01*
X48501785Y-69313809D01*
X49406547Y-69694761D02*
X49311309Y-69742380D01*
X49120833Y-69742380D01*
X49025595Y-69694761D01*
X48977976Y-69647142D01*
X48930357Y-69551904D01*
X48930357Y-69266190D01*
X48977976Y-69170952D01*
X49025595Y-69123333D01*
X49120833Y-69075714D01*
X49311309Y-69075714D01*
X49406547Y-69123333D01*
X50216071Y-69694761D02*
X50120833Y-69742380D01*
X49930357Y-69742380D01*
X49835119Y-69694761D01*
X49787500Y-69599523D01*
X49787500Y-69218571D01*
X49835119Y-69123333D01*
X49930357Y-69075714D01*
X50120833Y-69075714D01*
X50216071Y-69123333D01*
X50263690Y-69218571D01*
X50263690Y-69313809D01*
X49787500Y-69409047D01*
D10*
X40767047Y-59872571D02*
X41528952Y-59872571D01*
X41528952Y-60158285D02*
X40767047Y-60158285D01*
D11*
X71242857Y-69927142D02*
X71242857Y-69998571D01*
X71171428Y-70141428D01*
X71100000Y-70212857D01*
X73028571Y-68998571D02*
X71885714Y-69427142D01*
X73028571Y-69855714D01*
D15*
X62265476Y-69248571D02*
X61932142Y-69248571D01*
X61932142Y-69772380D02*
X61932142Y-68772380D01*
X62408333Y-68772380D01*
X62789285Y-69105714D02*
X62789285Y-69772380D01*
X62789285Y-69200952D02*
X62836904Y-69153333D01*
X62932142Y-69105714D01*
X63075000Y-69105714D01*
X63170238Y-69153333D01*
X63217857Y-69248571D01*
X63217857Y-69772380D01*
D12*
X81381600Y-59461400D02*
X80873600Y-59461400D01*
X81381600Y-59969400D02*
X81381600Y-59461400D01*
X81889600Y-59461400D02*
X81889600Y-59969400D01*
X81889600Y-59969400D02*
X81381600Y-59969400D01*
X80873600Y-59461400D02*
X81635600Y-58445400D01*
X81635600Y-58445400D02*
X82397600Y-59461400D01*
X82397600Y-59461400D02*
X81889600Y-59461400D01*
D15*
X90745238Y-69772380D02*
X90411904Y-69296190D01*
X90173809Y-69772380D02*
X90173809Y-68772380D01*
X90554761Y-68772380D01*
X90650000Y-68820000D01*
X90697619Y-68867619D01*
X90745238Y-68962857D01*
X90745238Y-69105714D01*
X90697619Y-69200952D01*
X90650000Y-69248571D01*
X90554761Y-69296190D01*
X90173809Y-69296190D01*
X91554761Y-69724761D02*
X91459523Y-69772380D01*
X91269047Y-69772380D01*
X91173809Y-69724761D01*
X91126190Y-69629523D01*
X91126190Y-69248571D01*
X91173809Y-69153333D01*
X91269047Y-69105714D01*
X91459523Y-69105714D01*
X91554761Y-69153333D01*
X91602380Y-69248571D01*
X91602380Y-69343809D01*
X91126190Y-69439047D01*
X91888095Y-69105714D02*
X92269047Y-69105714D01*
X92030952Y-68772380D02*
X92030952Y-69629523D01*
X92078571Y-69724761D01*
X92173809Y-69772380D01*
X92269047Y-69772380D01*
D12*
X90515000Y-59795000D02*
X92293000Y-59795000D01*
X92293000Y-59795000D02*
X92293000Y-58271000D01*
X89753000Y-59033000D02*
X90515000Y-59795000D01*
X90515000Y-58271000D02*
X89753000Y-59033000D01*
X92293000Y-58271000D02*
X90515000Y-58271000D01*
X90896000Y-59414000D02*
X91658000Y-58652000D01*
X90896000Y-58652000D02*
X91658000Y-59414000D01*
D15*
X33214285Y-69486666D02*
X33690476Y-69486666D01*
X33119047Y-69772380D02*
X33452380Y-68772380D01*
X33785714Y-69772380D01*
X34261904Y-69772380D02*
X34166666Y-69724761D01*
X34119047Y-69629523D01*
X34119047Y-68772380D01*
X34500000Y-69105714D02*
X34880952Y-69105714D01*
X34642857Y-68772380D02*
X34642857Y-69629523D01*
X34690476Y-69724761D01*
X34785714Y-69772380D01*
X34880952Y-69772380D01*
X22546428Y-69724761D02*
X22689285Y-69772380D01*
X22927380Y-69772380D01*
X23022619Y-69724761D01*
X23070238Y-69677142D01*
X23117857Y-69581904D01*
X23117857Y-69486666D01*
X23070238Y-69391428D01*
X23022619Y-69343809D01*
X22927380Y-69296190D01*
X22736904Y-69248571D01*
X22641666Y-69200952D01*
X22594047Y-69153333D01*
X22546428Y-69058095D01*
X22546428Y-68962857D01*
X22594047Y-68867619D01*
X22641666Y-68820000D01*
X22736904Y-68772380D01*
X22975000Y-68772380D01*
X23117857Y-68820000D01*
X23975000Y-69105714D02*
X23975000Y-69772380D01*
X23546428Y-69105714D02*
X23546428Y-69629523D01*
X23594047Y-69724761D01*
X23689285Y-69772380D01*
X23832142Y-69772380D01*
X23927380Y-69724761D01*
X23975000Y-69677142D01*
X24451190Y-69105714D02*
X24451190Y-70105714D01*
X24451190Y-69153333D02*
X24546428Y-69105714D01*
X24736904Y-69105714D01*
X24832142Y-69153333D01*
X24879761Y-69200952D01*
X24927380Y-69296190D01*
X24927380Y-69581904D01*
X24879761Y-69677142D01*
X24832142Y-69724761D01*
X24736904Y-69772380D01*
X24546428Y-69772380D01*
X24451190Y-69724761D01*
X25736904Y-69724761D02*
X25641666Y-69772380D01*
X25451190Y-69772380D01*
X25355952Y-69724761D01*
X25308333Y-69629523D01*
X25308333Y-69248571D01*
X25355952Y-69153333D01*
X25451190Y-69105714D01*
X25641666Y-69105714D01*
X25736904Y-69153333D01*
X25784523Y-69248571D01*
X25784523Y-69343809D01*
X25308333Y-69439047D01*
X26213095Y-69772380D02*
X26213095Y-69105714D01*
X26213095Y-69296190D02*
X26260714Y-69200952D01*
X26308333Y-69153333D01*
X26403571Y-69105714D01*
X26498809Y-69105714D01*
X14711904Y-69677142D02*
X14664285Y-69724761D01*
X14521428Y-69772380D01*
X14426190Y-69772380D01*
X14283333Y-69724761D01*
X14188095Y-69629523D01*
X14140476Y-69534285D01*
X14092857Y-69343809D01*
X14092857Y-69200952D01*
X14140476Y-69010476D01*
X14188095Y-68915238D01*
X14283333Y-68820000D01*
X14426190Y-68772380D01*
X14521428Y-68772380D01*
X14664285Y-68820000D01*
X14711904Y-68867619D01*
X14997619Y-69105714D02*
X15378571Y-69105714D01*
X15140476Y-68772380D02*
X15140476Y-69629523D01*
X15188095Y-69724761D01*
X15283333Y-69772380D01*
X15378571Y-69772380D01*
X15854761Y-69772380D02*
X15759523Y-69724761D01*
X15711904Y-69629523D01*
X15711904Y-68772380D01*
X4234523Y-68772380D02*
X4805952Y-68772380D01*
X4520238Y-69772380D02*
X4520238Y-68772380D01*
X5567857Y-69772380D02*
X5567857Y-69248571D01*
X5520238Y-69153333D01*
X5425000Y-69105714D01*
X5234523Y-69105714D01*
X5139285Y-69153333D01*
X5567857Y-69724761D02*
X5472619Y-69772380D01*
X5234523Y-69772380D01*
X5139285Y-69724761D01*
X5091666Y-69629523D01*
X5091666Y-69534285D01*
X5139285Y-69439047D01*
X5234523Y-69391428D01*
X5472619Y-69391428D01*
X5567857Y-69343809D01*
X6044047Y-69772380D02*
X6044047Y-68772380D01*
X6044047Y-69153333D02*
X6139285Y-69105714D01*
X6329761Y-69105714D01*
X6425000Y-69153333D01*
X6472619Y-69200952D01*
X6520238Y-69296190D01*
X6520238Y-69581904D01*
X6472619Y-69677142D01*
X6425000Y-69724761D01*
X6329761Y-69772380D01*
X6139285Y-69772380D01*
X6044047Y-69724761D01*
D10*
X79200380Y-40092380D02*
X79295619Y-40092380D01*
X79390857Y-40140000D01*
X79438476Y-40187619D01*
X79486095Y-40282857D01*
X79533714Y-40473333D01*
X79533714Y-40711428D01*
X79486095Y-40901904D01*
X79438476Y-40997142D01*
X79390857Y-41044761D01*
X79295619Y-41092380D01*
X79200380Y-41092380D01*
X79105142Y-41044761D01*
X79057523Y-40997142D01*
X79009904Y-40901904D01*
X78962285Y-40711428D01*
X78962285Y-40473333D01*
X79009904Y-40282857D01*
X79057523Y-40187619D01*
X79105142Y-40140000D01*
X79200380Y-40092380D01*
D12*
X5626100Y-59842400D02*
X5118100Y-59842400D01*
X5626100Y-59334400D02*
X5626100Y-59842400D01*
X6134100Y-59334400D02*
X5626100Y-59334400D01*
X5372100Y-58318400D02*
X6134100Y-59334400D01*
X4610100Y-59334400D02*
X5372100Y-58318400D01*
X5118100Y-59334400D02*
X4610100Y-59334400D01*
X5118100Y-59842400D02*
X5118100Y-59334400D01*
D11*
X80696428Y-69825714D02*
X80767857Y-69897142D01*
X80696428Y-69968571D01*
X80625000Y-69897142D01*
X80696428Y-69825714D01*
X80696428Y-69968571D01*
X81410714Y-68968571D02*
X82553571Y-69397142D01*
X81410714Y-69825714D01*
X71600000Y-59838571D02*
X71600000Y-58338571D01*
X72100000Y-59410000D01*
X72600000Y-58338571D01*
X72600000Y-59838571D01*
X62146428Y-59838571D02*
X62146428Y-58338571D01*
X63003571Y-59838571D01*
X63003571Y-58338571D01*
X53157142Y-59052857D02*
X53371428Y-59124285D01*
X53442857Y-59195714D01*
X53514285Y-59338571D01*
X53514285Y-59552857D01*
X53442857Y-59695714D01*
X53371428Y-59767142D01*
X53228571Y-59838571D01*
X52657142Y-59838571D01*
X52657142Y-58338571D01*
X53157142Y-58338571D01*
X53300000Y-58410000D01*
X53371428Y-58481428D01*
X53442857Y-58624285D01*
X53442857Y-58767142D01*
X53371428Y-58910000D01*
X53300000Y-58981428D01*
X53157142Y-59052857D01*
X52657142Y-59052857D01*
X43025000Y-58338571D02*
X43525000Y-59838571D01*
X44025000Y-58338571D01*
X34464285Y-59695714D02*
X34392857Y-59767142D01*
X34178571Y-59838571D01*
X34035714Y-59838571D01*
X33821428Y-59767142D01*
X33678571Y-59624285D01*
X33607142Y-59481428D01*
X33535714Y-59195714D01*
X33535714Y-58981428D01*
X33607142Y-58695714D01*
X33678571Y-58552857D01*
X33821428Y-58410000D01*
X34035714Y-58338571D01*
X34178571Y-58338571D01*
X34392857Y-58410000D01*
X34464285Y-58481428D01*
X23975000Y-58338571D02*
X24975000Y-59838571D01*
X24975000Y-58338571D02*
X23975000Y-59838571D01*
X14486000Y-58338571D02*
X15486000Y-58338571D01*
X14486000Y-59838571D01*
X15486000Y-59838571D01*
X90042857Y-39518571D02*
X90042857Y-38018571D01*
X90614285Y-38018571D01*
X90757142Y-38090000D01*
X90828571Y-38161428D01*
X90900000Y-38304285D01*
X90900000Y-38518571D01*
X90828571Y-38661428D01*
X90757142Y-38732857D01*
X90614285Y-38804285D01*
X90042857Y-38804285D01*
X91900000Y-40018571D02*
X91900000Y-37875714D01*
X80982142Y-38018571D02*
X81267857Y-38018571D01*
X81410714Y-38090000D01*
X81553571Y-38232857D01*
X81625000Y-38518571D01*
X81625000Y-39018571D01*
X81553571Y-39304285D01*
X81410714Y-39447142D01*
X81267857Y-39518571D01*
X80982142Y-39518571D01*
X80839285Y-39447142D01*
X80696428Y-39304285D01*
X80625000Y-39018571D01*
X80625000Y-38518571D01*
X80696428Y-38232857D01*
X80839285Y-38090000D01*
X80982142Y-38018571D01*
X81767857Y-37875714D02*
X83053571Y-39804285D01*
X71600000Y-39518571D02*
X71600000Y-38018571D01*
X72171428Y-40090000D02*
X72242857Y-40090000D01*
X72385714Y-40018571D01*
X72457142Y-39875714D01*
X72457142Y-39161428D01*
X72528571Y-39018571D01*
X72671428Y-38947142D01*
X72528571Y-38875714D01*
X72457142Y-38732857D01*
X72457142Y-38018571D01*
X72385714Y-37875714D01*
X72242857Y-37804285D01*
X72171428Y-37804285D01*
X61646428Y-38018571D02*
X61646428Y-39232857D01*
X61717857Y-39375714D01*
X61789285Y-39447142D01*
X61932142Y-39518571D01*
X62217857Y-39518571D01*
X62360714Y-39447142D01*
X62432142Y-39375714D01*
X62503571Y-39232857D01*
X62503571Y-38018571D01*
X63646428Y-40090000D02*
X63575000Y-40090000D01*
X63432142Y-40018571D01*
X63360714Y-39875714D01*
X63360714Y-39161428D01*
X63289285Y-39018571D01*
X63146428Y-38947142D01*
X63289285Y-38875714D01*
X63360714Y-38732857D01*
X63360714Y-38018571D01*
X63432142Y-37875714D01*
X63575000Y-37804285D01*
X63646428Y-37804285D01*
X53050000Y-38804285D02*
X53050000Y-39518571D01*
X52550000Y-38018571D02*
X53050000Y-38804285D01*
X53550000Y-38018571D01*
X43096428Y-38018571D02*
X43953571Y-38018571D01*
X43525000Y-39518571D02*
X43525000Y-38018571D01*
X34464285Y-39518571D02*
X33964285Y-38804285D01*
X33607142Y-39518571D02*
X33607142Y-38018571D01*
X34178571Y-38018571D01*
X34321428Y-38090000D01*
X34392857Y-38161428D01*
X34464285Y-38304285D01*
X34464285Y-38518571D01*
X34392857Y-38661428D01*
X34321428Y-38732857D01*
X34178571Y-38804285D01*
X33607142Y-38804285D01*
X24153571Y-38732857D02*
X24653571Y-38732857D01*
X24867857Y-39518571D02*
X24153571Y-39518571D01*
X24153571Y-38018571D01*
X24867857Y-38018571D01*
X14089142Y-38018571D02*
X14446285Y-39518571D01*
X14732000Y-38447142D01*
X15017714Y-39518571D01*
X15374857Y-38018571D01*
X5996428Y-39661428D02*
X5853571Y-39590000D01*
X5710714Y-39447142D01*
X5496428Y-39232857D01*
X5353571Y-39161428D01*
X5210714Y-39161428D01*
X5282142Y-39518571D02*
X5139285Y-39447142D01*
X4996428Y-39304285D01*
X4925000Y-39018571D01*
X4925000Y-38518571D01*
X4996428Y-38232857D01*
X5139285Y-38090000D01*
X5282142Y-38018571D01*
X5567857Y-38018571D01*
X5710714Y-38090000D01*
X5853571Y-38232857D01*
X5925000Y-38518571D01*
X5925000Y-39018571D01*
X5853571Y-39304285D01*
X5710714Y-39447142D01*
X5567857Y-39518571D01*
X5282142Y-39518571D01*
X86288285Y-49678571D02*
X85574000Y-49678571D01*
X85574000Y-48178571D01*
X86645428Y-50250000D02*
X86716857Y-50178571D01*
X86859714Y-49964285D01*
X86931142Y-49821428D01*
X87002571Y-49607142D01*
X87074000Y-49250000D01*
X87074000Y-48964285D01*
X87002571Y-48607142D01*
X86931142Y-48392857D01*
X86859714Y-48250000D01*
X86716857Y-48035714D01*
X86645428Y-47964285D01*
X75906142Y-49678571D02*
X75906142Y-48178571D01*
X76763285Y-49678571D02*
X76120428Y-48821428D01*
X76763285Y-48178571D02*
X75906142Y-49035714D01*
X77834714Y-50250000D02*
X77763285Y-50178571D01*
X77620428Y-49964285D01*
X77549000Y-49821428D01*
X77477571Y-49607142D01*
X77406142Y-49250000D01*
X77406142Y-48964285D01*
X77477571Y-48607142D01*
X77549000Y-48392857D01*
X77620428Y-48250000D01*
X77763285Y-48035714D01*
X77834714Y-47964285D01*
X66988285Y-48178571D02*
X66988285Y-49250000D01*
X66916857Y-49464285D01*
X66774000Y-49607142D01*
X66559714Y-49678571D01*
X66416857Y-49678571D01*
X67559714Y-50178571D02*
X67916857Y-50178571D01*
X67916857Y-48035714D01*
X67559714Y-48035714D01*
X56820428Y-49678571D02*
X56820428Y-48178571D01*
X56820428Y-48892857D02*
X57677571Y-48892857D01*
X57677571Y-49678571D02*
X57677571Y-48178571D01*
X58820428Y-50178571D02*
X58463285Y-50178571D01*
X58463285Y-48035714D01*
X58820428Y-48035714D01*
X48616857Y-48250000D02*
X48474000Y-48178571D01*
X48259714Y-48178571D01*
X48045428Y-48250000D01*
X47902571Y-48392857D01*
X47831142Y-48535714D01*
X47759714Y-48821428D01*
X47759714Y-49035714D01*
X47831142Y-49321428D01*
X47902571Y-49464285D01*
X48045428Y-49607142D01*
X48259714Y-49678571D01*
X48402571Y-49678571D01*
X48616857Y-49607142D01*
X48688285Y-49535714D01*
X48688285Y-49035714D01*
X48402571Y-49035714D01*
X38913285Y-48892857D02*
X38413285Y-48892857D01*
X38413285Y-49678571D02*
X38413285Y-48178571D01*
X39127571Y-48178571D01*
X28781142Y-49678571D02*
X28781142Y-48178571D01*
X29138285Y-48178571D01*
X29352571Y-48250000D01*
X29495428Y-48392857D01*
X29566857Y-48535714D01*
X29638285Y-48821428D01*
X29638285Y-49035714D01*
X29566857Y-49321428D01*
X29495428Y-49464285D01*
X29352571Y-49607142D01*
X29138285Y-49678571D01*
X28781142Y-49678571D01*
X19220428Y-49607142D02*
X19434714Y-49678571D01*
X19791857Y-49678571D01*
X19934714Y-49607142D01*
X20006142Y-49535714D01*
X20077571Y-49392857D01*
X20077571Y-49250000D01*
X20006142Y-49107142D01*
X19934714Y-49035714D01*
X19791857Y-48964285D01*
X19506142Y-48892857D01*
X19363285Y-48821428D01*
X19291857Y-48750000D01*
X19220428Y-48607142D01*
X19220428Y-48464285D01*
X19291857Y-48321428D01*
X19363285Y-48250000D01*
X19506142Y-48178571D01*
X19863285Y-48178571D01*
X20077571Y-48250000D01*
X9766857Y-49250000D02*
X10481142Y-49250000D01*
X9624000Y-49678571D02*
X10124000Y-48178571D01*
X10624000Y-49678571D01*
D10*
X94615000Y-81280000D02*
X97155000Y-78740000D01*
X2540000Y-81280000D02*
X0Y-78740000D01*
D12*
X14942820Y-19654520D02*
X14434820Y-19146520D01*
X14942820Y-19654520D02*
X15450820Y-19146520D01*
X14942820Y-18638520D02*
X14942820Y-19654520D01*
X16974820Y-17622520D02*
X16466820Y-17114520D01*
X16974820Y-17622520D02*
X16466820Y-18130520D01*
X15958820Y-17622520D02*
X16974820Y-17622520D01*
X14942820Y-15590520D02*
X15450820Y-16098520D01*
X14942820Y-15590520D02*
X14434820Y-16098520D01*
X14942820Y-16606520D02*
X14942820Y-15590520D01*
X12910820Y-17622520D02*
X13418820Y-17114520D01*
X13418820Y-18130520D02*
X12910820Y-17622520D01*
X13926820Y-17622520D02*
X12910820Y-17622520D01*
D10*
X94615000Y-81280000D02*
X2540000Y-81280000D01*
X97155000Y0D02*
X97155000Y-78740000D01*
X0Y0D02*
X97155000Y0D01*
X0Y0D02*
X0Y-78740000D01*
X42545000Y0D02*
X42545000Y-1270000D01*
X34925000Y0D02*
X42545000Y0D01*
X34925000Y-1270000D02*
X34925000Y0D01*
D14*
X8740000Y-26125000D02*
X8740000Y-23405000D01*
X5960000Y-23405000D02*
X5960000Y-23585000D01*
X9280000Y-23405000D02*
X5960000Y-23405000D01*
X9280000Y-23585000D02*
X9280000Y-23405000D01*
X5960000Y-26125000D02*
X5960000Y-25945000D01*
X9280000Y-26125000D02*
X5960000Y-26125000D01*
X9280000Y-25945000D02*
X9280000Y-26125000D01*
X8740000Y-12155000D02*
X8740000Y-9435000D01*
X5960000Y-9435000D02*
X5960000Y-9615000D01*
X9280000Y-9435000D02*
X5960000Y-9435000D01*
X9280000Y-9615000D02*
X9280000Y-9435000D01*
X5960000Y-12155000D02*
X5960000Y-11975000D01*
X9280000Y-12155000D02*
X5960000Y-12155000D01*
X9280000Y-11975000D02*
X9280000Y-12155000D01*
X23345000Y-26125000D02*
X23345000Y-23405000D01*
X20565000Y-23405000D02*
X20565000Y-23585000D01*
X23885000Y-23405000D02*
X20565000Y-23405000D01*
X23885000Y-23585000D02*
X23885000Y-23405000D01*
X20565000Y-26125000D02*
X20565000Y-25945000D01*
X23885000Y-26125000D02*
X20565000Y-26125000D01*
X23885000Y-25945000D02*
X23885000Y-26125000D01*
X23345000Y-12155000D02*
X23345000Y-9435000D01*
X20565000Y-9435000D02*
X20565000Y-9615000D01*
X23885000Y-9435000D02*
X20565000Y-9435000D01*
X23885000Y-9615000D02*
X23885000Y-9435000D01*
X20565000Y-12155000D02*
X20565000Y-11975000D01*
X23885000Y-12155000D02*
X20565000Y-12155000D01*
X23885000Y-11975000D02*
X23885000Y-12155000D01*
X81558655Y-2546324D02*
X79635324Y-4469655D01*
X81601081Y-6435412D02*
X81728360Y-6308132D01*
X79253487Y-4087817D02*
X81601081Y-6435412D01*
X79380766Y-3960538D02*
X79253487Y-4087817D01*
X83524412Y-4512081D02*
X83397132Y-4639360D01*
X81176817Y-2164487D02*
X83524412Y-4512081D01*
X81049538Y-2291766D02*
X81176817Y-2164487D01*
X88543655Y-2546324D02*
X86620324Y-4469655D01*
X88586081Y-6435412D02*
X88713360Y-6308132D01*
X86238487Y-4087817D02*
X88586081Y-6435412D01*
X86365766Y-3960538D02*
X86238487Y-4087817D01*
X90509412Y-4512081D02*
X90382132Y-4639360D01*
X88161817Y-2164487D02*
X90509412Y-4512081D01*
X88034538Y-2291766D02*
X88161817Y-2164487D01*
X67079538Y-2291766D02*
X67206817Y-2164487D01*
X67206817Y-2164487D02*
X69554412Y-4512081D01*
X69554412Y-4512081D02*
X69427132Y-4639360D01*
X65410766Y-3960538D02*
X65283487Y-4087817D01*
X65283487Y-4087817D02*
X67631081Y-6435412D01*
X67631081Y-6435412D02*
X67758360Y-6308132D01*
X67588655Y-2546324D02*
X65665324Y-4469655D01*
X74573655Y-2546324D02*
X72650324Y-4469655D01*
X74616081Y-6435412D02*
X74743360Y-6308132D01*
X72268487Y-4087817D02*
X74616081Y-6435412D01*
X72395766Y-3960538D02*
X72268487Y-4087817D01*
X76539412Y-4512081D02*
X76412132Y-4639360D01*
X74191817Y-2164487D02*
X76539412Y-4512081D01*
X74064538Y-2291766D02*
X74191817Y-2164487D01*
X60603655Y-2546324D02*
X58680324Y-4469655D01*
X60646081Y-6435412D02*
X60773360Y-6308132D01*
X58298487Y-4087817D02*
X60646081Y-6435412D01*
X58425766Y-3960538D02*
X58298487Y-4087817D01*
X62569412Y-4512081D02*
X62442132Y-4639360D01*
X60221817Y-2164487D02*
X62569412Y-4512081D01*
X60094538Y-2291766D02*
X60221817Y-2164487D01*
X53618655Y-2546324D02*
X51695324Y-4469655D01*
X53661081Y-6435412D02*
X53788360Y-6308132D01*
X51313487Y-4087817D02*
X53661081Y-6435412D01*
X51440766Y-3960538D02*
X51313487Y-4087817D01*
X55584412Y-4512081D02*
X55457132Y-4639360D01*
X53236817Y-2164487D02*
X55584412Y-4512081D01*
X53109538Y-2291766D02*
X53236817Y-2164487D01*
X11215000Y-19978000D02*
X11215000Y-15478000D01*
X7215000Y-21228000D02*
X8715000Y-21228000D01*
X4715000Y-15478000D02*
X4715000Y-19978000D01*
X8715000Y-14228000D02*
X7215000Y-14228000D01*
X18200000Y-13478000D02*
X18200000Y-8978000D01*
X14200000Y-14728000D02*
X15700000Y-14728000D01*
X11700000Y-8978000D02*
X11700000Y-13478000D01*
X15700000Y-7728000D02*
X14200000Y-7728000D01*
X18200000Y-26455000D02*
X18200000Y-21955000D01*
X14200000Y-27705000D02*
X15700000Y-27705000D01*
X11700000Y-21955000D02*
X11700000Y-26455000D01*
X15700000Y-20705000D02*
X14200000Y-20705000D01*
X25185000Y-19978000D02*
X25185000Y-15478000D01*
X21185000Y-21228000D02*
X22685000Y-21228000D01*
X18685000Y-15478000D02*
X18685000Y-19978000D01*
X22685000Y-14228000D02*
X21185000Y-14228000D01*
X84875000Y-15660000D02*
X84875000Y-11160000D01*
X80875000Y-16910000D02*
X82375000Y-16910000D01*
X78375000Y-11160000D02*
X78375000Y-15660000D01*
X82375000Y-9910000D02*
X80875000Y-9910000D01*
X94400000Y-15660000D02*
X94400000Y-11160000D01*
X90400000Y-16910000D02*
X91900000Y-16910000D01*
X87900000Y-11160000D02*
X87900000Y-15660000D01*
X91900000Y-9910000D02*
X90400000Y-9910000D01*
X84875000Y-25820000D02*
X84875000Y-21320000D01*
X80875000Y-27070000D02*
X82375000Y-27070000D01*
X78375000Y-21320000D02*
X78375000Y-25820000D01*
X82375000Y-20070000D02*
X80875000Y-20070000D01*
X94400000Y-25820000D02*
X94400000Y-21320000D01*
X90400000Y-27070000D02*
X91900000Y-27070000D01*
X87900000Y-21320000D02*
X87900000Y-25820000D01*
X91900000Y-20070000D02*
X90400000Y-20070000D01*
X84875000Y-35980000D02*
X84875000Y-31480000D01*
X80875000Y-37230000D02*
X82375000Y-37230000D01*
X78375000Y-31480000D02*
X78375000Y-35980000D01*
X82375000Y-30230000D02*
X80875000Y-30230000D01*
X94400000Y-35980000D02*
X94400000Y-31480000D01*
X90400000Y-37230000D02*
X91900000Y-37230000D01*
X87900000Y-31480000D02*
X87900000Y-35980000D01*
X91900000Y-30230000D02*
X90400000Y-30230000D01*
X56300000Y-15660000D02*
X56300000Y-11160000D01*
X52300000Y-16910000D02*
X53800000Y-16910000D01*
X49800000Y-11160000D02*
X49800000Y-15660000D01*
X53800000Y-9910000D02*
X52300000Y-9910000D01*
X65825000Y-15660000D02*
X65825000Y-11160000D01*
X61825000Y-16910000D02*
X63325000Y-16910000D01*
X59325000Y-11160000D02*
X59325000Y-15660000D01*
X63325000Y-9910000D02*
X61825000Y-9910000D01*
X75350000Y-15660000D02*
X75350000Y-11160000D01*
X71350000Y-16910000D02*
X72850000Y-16910000D01*
X68850000Y-11160000D02*
X68850000Y-15660000D01*
X72850000Y-9910000D02*
X71350000Y-9910000D01*
X56300000Y-25820000D02*
X56300000Y-21320000D01*
X52300000Y-27070000D02*
X53800000Y-27070000D01*
X49800000Y-21320000D02*
X49800000Y-25820000D01*
X53800000Y-20070000D02*
X52300000Y-20070000D01*
X65825000Y-25820000D02*
X65825000Y-21320000D01*
X61825000Y-27070000D02*
X63325000Y-27070000D01*
X59325000Y-21320000D02*
X59325000Y-25820000D01*
X63325000Y-20070000D02*
X61825000Y-20070000D01*
X75350000Y-25820000D02*
X75350000Y-21320000D01*
X71350000Y-27070000D02*
X72850000Y-27070000D01*
X68850000Y-21320000D02*
X68850000Y-25820000D01*
X72850000Y-20070000D02*
X71350000Y-20070000D01*
X56300000Y-35980000D02*
X56300000Y-31480000D01*
X52300000Y-37230000D02*
X53800000Y-37230000D01*
X49800000Y-31480000D02*
X49800000Y-35980000D01*
X53800000Y-30230000D02*
X52300000Y-30230000D01*
X65825000Y-35980000D02*
X65825000Y-31480000D01*
X61825000Y-37230000D02*
X63325000Y-37230000D01*
X59325000Y-31480000D02*
X59325000Y-35980000D01*
X63325000Y-30230000D02*
X61825000Y-30230000D01*
X75350000Y-35980000D02*
X75350000Y-31480000D01*
X71350000Y-37230000D02*
X72850000Y-37230000D01*
X68850000Y-31480000D02*
X68850000Y-35980000D01*
X72850000Y-30230000D02*
X71350000Y-30230000D01*
X8675000Y-35980000D02*
X8675000Y-31480000D01*
X4675000Y-37230000D02*
X6175000Y-37230000D01*
X2175000Y-31480000D02*
X2175000Y-35980000D01*
X6175000Y-30230000D02*
X4675000Y-30230000D01*
X8675000Y-46140000D02*
X8675000Y-41640000D01*
X4675000Y-47390000D02*
X6175000Y-47390000D01*
X2175000Y-41640000D02*
X2175000Y-46140000D01*
X6175000Y-40390000D02*
X4675000Y-40390000D01*
X18200000Y-46140000D02*
X18200000Y-41640000D01*
X14200000Y-47390000D02*
X15700000Y-47390000D01*
X11700000Y-41640000D02*
X11700000Y-46140000D01*
X15700000Y-40390000D02*
X14200000Y-40390000D01*
X27725000Y-46140000D02*
X27725000Y-41640000D01*
X23725000Y-47390000D02*
X25225000Y-47390000D01*
X21225000Y-41640000D02*
X21225000Y-46140000D01*
X25225000Y-40390000D02*
X23725000Y-40390000D01*
X37250000Y-46140000D02*
X37250000Y-41640000D01*
X33250000Y-47390000D02*
X34750000Y-47390000D01*
X30750000Y-41640000D02*
X30750000Y-46140000D01*
X34750000Y-40390000D02*
X33250000Y-40390000D01*
X46775000Y-46140000D02*
X46775000Y-41640000D01*
X42775000Y-47390000D02*
X44275000Y-47390000D01*
X40275000Y-41640000D02*
X40275000Y-46140000D01*
X44275000Y-40390000D02*
X42775000Y-40390000D01*
X56300000Y-46140000D02*
X56300000Y-41640000D01*
X52300000Y-47390000D02*
X53800000Y-47390000D01*
X49800000Y-41640000D02*
X49800000Y-46140000D01*
X53800000Y-40390000D02*
X52300000Y-40390000D01*
X65825000Y-46140000D02*
X65825000Y-41640000D01*
X61825000Y-47390000D02*
X63325000Y-47390000D01*
X59325000Y-41640000D02*
X59325000Y-46140000D01*
X63325000Y-40390000D02*
X61825000Y-40390000D01*
X75350000Y-46140000D02*
X75350000Y-41640000D01*
X71350000Y-47390000D02*
X72850000Y-47390000D01*
X68850000Y-41640000D02*
X68850000Y-46140000D01*
X72850000Y-40390000D02*
X71350000Y-40390000D01*
X84875000Y-46140000D02*
X84875000Y-41640000D01*
X80875000Y-47390000D02*
X82375000Y-47390000D01*
X78375000Y-41640000D02*
X78375000Y-46140000D01*
X82375000Y-40390000D02*
X80875000Y-40390000D01*
X94400000Y-46140000D02*
X94400000Y-41640000D01*
X90400000Y-47390000D02*
X91900000Y-47390000D01*
X87900000Y-41640000D02*
X87900000Y-46140000D01*
X91900000Y-40390000D02*
X90400000Y-40390000D01*
X13374000Y-56300000D02*
X13374000Y-51800000D01*
X9374000Y-57550000D02*
X10874000Y-57550000D01*
X6874000Y-51800000D02*
X6874000Y-56300000D01*
X10874000Y-50550000D02*
X9374000Y-50550000D01*
X22899000Y-56300000D02*
X22899000Y-51800000D01*
X18899000Y-57550000D02*
X20399000Y-57550000D01*
X16399000Y-51800000D02*
X16399000Y-56300000D01*
X20399000Y-50550000D02*
X18899000Y-50550000D01*
X32424000Y-56300000D02*
X32424000Y-51800000D01*
X28424000Y-57550000D02*
X29924000Y-57550000D01*
X25924000Y-51800000D02*
X25924000Y-56300000D01*
X29924000Y-50550000D02*
X28424000Y-50550000D01*
X41949000Y-56300000D02*
X41949000Y-51800000D01*
X37949000Y-57550000D02*
X39449000Y-57550000D01*
X35449000Y-51800000D02*
X35449000Y-56300000D01*
X39449000Y-50550000D02*
X37949000Y-50550000D01*
X51474000Y-56300000D02*
X51474000Y-51800000D01*
X47474000Y-57550000D02*
X48974000Y-57550000D01*
X44974000Y-51800000D02*
X44974000Y-56300000D01*
X48974000Y-50550000D02*
X47474000Y-50550000D01*
X60999000Y-56300000D02*
X60999000Y-51800000D01*
X56999000Y-57550000D02*
X58499000Y-57550000D01*
X54499000Y-51800000D02*
X54499000Y-56300000D01*
X58499000Y-50550000D02*
X56999000Y-50550000D01*
X70524000Y-56300000D02*
X70524000Y-51800000D01*
X66524000Y-57550000D02*
X68024000Y-57550000D01*
X64024000Y-51800000D02*
X64024000Y-56300000D01*
X68024000Y-50550000D02*
X66524000Y-50550000D01*
X80049000Y-56300000D02*
X80049000Y-51800000D01*
X76049000Y-57550000D02*
X77549000Y-57550000D01*
X73549000Y-51800000D02*
X73549000Y-56300000D01*
X77549000Y-50550000D02*
X76049000Y-50550000D01*
X89574000Y-56300000D02*
X89574000Y-51800000D01*
X85574000Y-57550000D02*
X87074000Y-57550000D01*
X83074000Y-51800000D02*
X83074000Y-56300000D01*
X87074000Y-50550000D02*
X85574000Y-50550000D01*
X27725000Y-35980000D02*
X27725000Y-31480000D01*
X23725000Y-37230000D02*
X25225000Y-37230000D01*
X21225000Y-31480000D02*
X21225000Y-35980000D01*
X25225000Y-30230000D02*
X23725000Y-30230000D01*
X8675000Y-66460000D02*
X8675000Y-61960000D01*
X4675000Y-67710000D02*
X6175000Y-67710000D01*
X2175000Y-61960000D02*
X2175000Y-66460000D01*
X6175000Y-60710000D02*
X4675000Y-60710000D01*
X18200000Y-66460000D02*
X18200000Y-61960000D01*
X14200000Y-67710000D02*
X15700000Y-67710000D01*
X11700000Y-61960000D02*
X11700000Y-66460000D01*
X15700000Y-60710000D02*
X14200000Y-60710000D01*
X27725000Y-66460000D02*
X27725000Y-61960000D01*
X23725000Y-67710000D02*
X25225000Y-67710000D01*
X21225000Y-61960000D02*
X21225000Y-66460000D01*
X25225000Y-60710000D02*
X23725000Y-60710000D01*
X37250000Y-66460000D02*
X37250000Y-61960000D01*
X33250000Y-67710000D02*
X34750000Y-67710000D01*
X30750000Y-61960000D02*
X30750000Y-66460000D01*
X34750000Y-60710000D02*
X33250000Y-60710000D01*
X46775000Y-66460000D02*
X46775000Y-61960000D01*
X42775000Y-67710000D02*
X44275000Y-67710000D01*
X40275000Y-61960000D02*
X40275000Y-66460000D01*
X44275000Y-60710000D02*
X42775000Y-60710000D01*
X56300000Y-66460000D02*
X56300000Y-61960000D01*
X52300000Y-67710000D02*
X53800000Y-67710000D01*
X49800000Y-61960000D02*
X49800000Y-66460000D01*
X53800000Y-60710000D02*
X52300000Y-60710000D01*
X65825000Y-66460000D02*
X65825000Y-61960000D01*
X61825000Y-67710000D02*
X63325000Y-67710000D01*
X59325000Y-61960000D02*
X59325000Y-66460000D01*
X63325000Y-60710000D02*
X61825000Y-60710000D01*
X75350000Y-66460000D02*
X75350000Y-61960000D01*
X71350000Y-67710000D02*
X72850000Y-67710000D01*
X68850000Y-61960000D02*
X68850000Y-66460000D01*
X72850000Y-60710000D02*
X71350000Y-60710000D01*
X84875000Y-66460000D02*
X84875000Y-61960000D01*
X80875000Y-67710000D02*
X82375000Y-67710000D01*
X78375000Y-61960000D02*
X78375000Y-66460000D01*
X82375000Y-60710000D02*
X80875000Y-60710000D01*
X94400000Y-66460000D02*
X94400000Y-61960000D01*
X90400000Y-67710000D02*
X91900000Y-67710000D01*
X87900000Y-61960000D02*
X87900000Y-66460000D01*
X91900000Y-60710000D02*
X90400000Y-60710000D01*
X5024148Y-53975000D02*
G75*
G03X5024148Y-53975000I-1849148J0D01*
G01*
X95194148Y-53975000D02*
G75*
G03X95194148Y-53975000I-1849148J0D01*
G01*
X5024148Y-3175000D02*
G75*
G03X5024148Y-3175000I-1849148J0D01*
G01*
X8675000Y-76620000D02*
X8675000Y-72120000D01*
X4675000Y-77870000D02*
X6175000Y-77870000D01*
X2175000Y-72120000D02*
X2175000Y-76620000D01*
X6175000Y-70870000D02*
X4675000Y-70870000D01*
X18200000Y-76620000D02*
X18200000Y-72120000D01*
X14200000Y-77870000D02*
X15700000Y-77870000D01*
X11700000Y-72120000D02*
X11700000Y-76620000D01*
X15700000Y-70870000D02*
X14200000Y-70870000D01*
X27725000Y-76620000D02*
X27725000Y-72120000D01*
X23725000Y-77870000D02*
X25225000Y-77870000D01*
X21225000Y-72120000D02*
X21225000Y-76620000D01*
X25225000Y-70870000D02*
X23725000Y-70870000D01*
X37250000Y-76620000D02*
X37250000Y-72120000D01*
X33250000Y-77870000D02*
X34750000Y-77870000D01*
X30750000Y-72120000D02*
X30750000Y-76620000D01*
X34750000Y-70870000D02*
X33250000Y-70870000D01*
X46775000Y-76620000D02*
X46775000Y-72120000D01*
X42775000Y-77870000D02*
X44275000Y-77870000D01*
X40275000Y-72120000D02*
X40275000Y-76620000D01*
X44275000Y-70870000D02*
X42775000Y-70870000D01*
X56300000Y-76620000D02*
X56300000Y-72120000D01*
X52300000Y-77870000D02*
X53800000Y-77870000D01*
X49800000Y-72120000D02*
X49800000Y-76620000D01*
X53800000Y-70870000D02*
X52300000Y-70870000D01*
X65825000Y-76620000D02*
X65825000Y-72120000D01*
X61825000Y-77870000D02*
X63325000Y-77870000D01*
X59325000Y-72120000D02*
X59325000Y-76620000D01*
X63325000Y-70870000D02*
X61825000Y-70870000D01*
X75350000Y-76620000D02*
X75350000Y-72120000D01*
X71350000Y-77870000D02*
X72850000Y-77870000D01*
X68850000Y-72120000D02*
X68850000Y-76620000D01*
X72850000Y-70870000D02*
X71350000Y-70870000D01*
X84875000Y-76620000D02*
X84875000Y-72120000D01*
X80875000Y-77870000D02*
X82375000Y-77870000D01*
X78375000Y-72120000D02*
X78375000Y-76620000D01*
X82375000Y-70870000D02*
X80875000Y-70870000D01*
X94400000Y-76620000D02*
X94400000Y-72120000D01*
X90400000Y-77870000D02*
X91900000Y-77870000D01*
X87900000Y-72120000D02*
X87900000Y-76620000D01*
X91900000Y-70870000D02*
X90400000Y-70870000D01*
X95194148Y-3175000D02*
G75*
G03X95194148Y-3175000I-1849148J0D01*
G01*
M02*
