%TF.GenerationSoftware,KiCad,Pcbnew,5.0.1-33cea8e~68~ubuntu16.04.1*%
%TF.CreationDate,2018-11-11T12:10:47-08:00*%
%TF.ProjectId,teensythumbboard,7465656E73797468756D62626F617264,rev?*%
%TF.SameCoordinates,PX68290a0PY463f660*%
%TF.FileFunction,Legend,Bot*%
%TF.FilePolarity,Positive*%
%FSLAX46Y46*%
G04 Gerber Fmt 4.6, Leading zero omitted, Abs format (unit mm)*
G04 Created by KiCad (PCBNEW 5.0.1-33cea8e~68~ubuntu16.04.1) date Sun 11 Nov 2018 12:10:47 PM PST*
%MOMM*%
%LPD*%
G01*
G04 APERTURE LIST*
%ADD10C,0.300000*%
%ADD11C,0.250000*%
%ADD12C,0.200000*%
%ADD13C,0.150000*%
G04 APERTURE END LIST*
D10*
X10159714Y-49678571D02*
X10874000Y-49678571D01*
X10874000Y-48178571D01*
X9802571Y-50250000D02*
X9731142Y-50178571D01*
X9588285Y-49964285D01*
X9516857Y-49821428D01*
X9445428Y-49607142D01*
X9374000Y-49250000D01*
X9374000Y-48964285D01*
X9445428Y-48607142D01*
X9516857Y-48392857D01*
X9588285Y-48250000D01*
X9731142Y-48035714D01*
X9802571Y-47964285D01*
X20541857Y-49678571D02*
X20541857Y-48178571D01*
X19684714Y-49678571D02*
X20327571Y-48821428D01*
X19684714Y-48178571D02*
X20541857Y-49035714D01*
X18613285Y-50250000D02*
X18684714Y-50178571D01*
X18827571Y-49964285D01*
X18899000Y-49821428D01*
X18970428Y-49607142D01*
X19041857Y-49250000D01*
X19041857Y-48964285D01*
X18970428Y-48607142D01*
X18899000Y-48392857D01*
X18827571Y-48250000D01*
X18684714Y-48035714D01*
X18613285Y-47964285D01*
X29459714Y-48178571D02*
X29459714Y-49250000D01*
X29531142Y-49464285D01*
X29674000Y-49607142D01*
X29888285Y-49678571D01*
X30031142Y-49678571D01*
X28888285Y-50178571D02*
X28531142Y-50178571D01*
X28531142Y-48035714D01*
X28888285Y-48035714D01*
X86681142Y-49250000D02*
X85966857Y-49250000D01*
X86824000Y-49678571D02*
X86324000Y-48178571D01*
X85824000Y-49678571D01*
X77227571Y-49607142D02*
X77013285Y-49678571D01*
X76656142Y-49678571D01*
X76513285Y-49607142D01*
X76441857Y-49535714D01*
X76370428Y-49392857D01*
X76370428Y-49250000D01*
X76441857Y-49107142D01*
X76513285Y-49035714D01*
X76656142Y-48964285D01*
X76941857Y-48892857D01*
X77084714Y-48821428D01*
X77156142Y-48750000D01*
X77227571Y-48607142D01*
X77227571Y-48464285D01*
X77156142Y-48321428D01*
X77084714Y-48250000D01*
X76941857Y-48178571D01*
X76584714Y-48178571D01*
X76370428Y-48250000D01*
X67666857Y-49678571D02*
X67666857Y-48178571D01*
X67309714Y-48178571D01*
X67095428Y-48250000D01*
X66952571Y-48392857D01*
X66881142Y-48535714D01*
X66809714Y-48821428D01*
X66809714Y-49035714D01*
X66881142Y-49321428D01*
X66952571Y-49464285D01*
X67095428Y-49607142D01*
X67309714Y-49678571D01*
X67666857Y-49678571D01*
X39627571Y-49678571D02*
X39627571Y-48178571D01*
X39627571Y-48892857D02*
X38770428Y-48892857D01*
X38770428Y-49678571D02*
X38770428Y-48178571D01*
X37627571Y-50178571D02*
X37984714Y-50178571D01*
X37984714Y-48035714D01*
X37627571Y-48035714D01*
X57534714Y-48892857D02*
X58034714Y-48892857D01*
X58034714Y-49678571D02*
X58034714Y-48178571D01*
X57320428Y-48178571D01*
X47831142Y-48250000D02*
X47974000Y-48178571D01*
X48188285Y-48178571D01*
X48402571Y-48250000D01*
X48545428Y-48392857D01*
X48616857Y-48535714D01*
X48688285Y-48821428D01*
X48688285Y-49035714D01*
X48616857Y-49321428D01*
X48545428Y-49464285D01*
X48402571Y-49607142D01*
X48188285Y-49678571D01*
X48045428Y-49678571D01*
X47831142Y-49607142D01*
X47759714Y-49535714D01*
X47759714Y-49035714D01*
X48045428Y-49035714D01*
X73350000Y-27858571D02*
X72421428Y-27858571D01*
X72921428Y-28430000D01*
X72707142Y-28430000D01*
X72564285Y-28501428D01*
X72492857Y-28572857D01*
X72421428Y-28715714D01*
X72421428Y-29072857D01*
X72492857Y-29215714D01*
X72564285Y-29287142D01*
X72707142Y-29358571D01*
X73135714Y-29358571D01*
X73278571Y-29287142D01*
X73350000Y-29215714D01*
X71850000Y-28358571D02*
X70778571Y-28358571D01*
X71421428Y-27715714D02*
X71850000Y-29644285D01*
X70921428Y-29001428D02*
X71992857Y-29001428D01*
X71350000Y-29644285D02*
X70921428Y-27715714D01*
D11*
X24784523Y-28503571D02*
X25117857Y-28503571D01*
X25117857Y-29027380D02*
X25117857Y-28027380D01*
X24641666Y-28027380D01*
X24260714Y-28360714D02*
X24260714Y-29027380D01*
X24260714Y-28455952D02*
X24213095Y-28408333D01*
X24117857Y-28360714D01*
X23975000Y-28360714D01*
X23879761Y-28408333D01*
X23832142Y-28503571D01*
X23832142Y-29027380D01*
X6472619Y-28608571D02*
X6139285Y-28608571D01*
X5996428Y-29132380D02*
X6472619Y-29132380D01*
X6472619Y-28132380D01*
X5996428Y-28132380D01*
X5615476Y-29084761D02*
X5520238Y-29132380D01*
X5329761Y-29132380D01*
X5234523Y-29084761D01*
X5186904Y-28989523D01*
X5186904Y-28941904D01*
X5234523Y-28846666D01*
X5329761Y-28799047D01*
X5472619Y-28799047D01*
X5567857Y-28751428D01*
X5615476Y-28656190D01*
X5615476Y-28608571D01*
X5567857Y-28513333D01*
X5472619Y-28465714D01*
X5329761Y-28465714D01*
X5234523Y-28513333D01*
X4329761Y-29084761D02*
X4425000Y-29132380D01*
X4615476Y-29132380D01*
X4710714Y-29084761D01*
X4758333Y-29037142D01*
X4805952Y-28941904D01*
X4805952Y-28656190D01*
X4758333Y-28560952D01*
X4710714Y-28513333D01*
X4615476Y-28465714D01*
X4425000Y-28465714D01*
X4329761Y-28513333D01*
D10*
X53050000Y-7437142D02*
X54335714Y-9365714D01*
X52335714Y-8865714D02*
X52264285Y-8937142D01*
X52335714Y-9008571D01*
X52407142Y-8937142D01*
X52335714Y-8865714D01*
X52335714Y-9008571D01*
X52621428Y-7580000D02*
X52478571Y-7508571D01*
X52121428Y-7508571D01*
X51978571Y-7580000D01*
X51907142Y-7722857D01*
X51907142Y-7865714D01*
X51978571Y-8008571D01*
X52050000Y-8080000D01*
X52192857Y-8151428D01*
X52264285Y-8222857D01*
X52335714Y-8365714D01*
X52335714Y-8437142D01*
X63146428Y-7538571D02*
X63003571Y-7538571D01*
X62860714Y-7610000D01*
X62789285Y-7681428D01*
X62717857Y-7824285D01*
X62646428Y-8110000D01*
X62646428Y-8467142D01*
X62717857Y-8752857D01*
X62789285Y-8895714D01*
X62860714Y-8967142D01*
X63003571Y-9038571D01*
X63146428Y-9038571D01*
X63289285Y-8967142D01*
X63360714Y-8895714D01*
X63432142Y-8752857D01*
X63503571Y-8467142D01*
X63503571Y-8110000D01*
X63432142Y-7824285D01*
X63360714Y-7681428D01*
X63289285Y-7610000D01*
X63146428Y-7538571D01*
X62146428Y-9610000D02*
X62075000Y-9538571D01*
X61932142Y-9324285D01*
X61860714Y-9181428D01*
X61789285Y-8967142D01*
X61717857Y-8610000D01*
X61717857Y-8324285D01*
X61789285Y-7967142D01*
X61860714Y-7752857D01*
X61932142Y-7610000D01*
X62075000Y-7395714D01*
X62146428Y-7324285D01*
X72885714Y-9038571D02*
X72600000Y-9038571D01*
X72457142Y-8967142D01*
X72385714Y-8895714D01*
X72242857Y-8681428D01*
X72171428Y-8395714D01*
X72171428Y-7824285D01*
X72242857Y-7681428D01*
X72314285Y-7610000D01*
X72457142Y-7538571D01*
X72742857Y-7538571D01*
X72885714Y-7610000D01*
X72957142Y-7681428D01*
X73028571Y-7824285D01*
X73028571Y-8181428D01*
X72957142Y-8324285D01*
X72885714Y-8395714D01*
X72742857Y-8467142D01*
X72457142Y-8467142D01*
X72314285Y-8395714D01*
X72242857Y-8324285D01*
X72171428Y-8181428D01*
X71100000Y-9610000D02*
X71171428Y-9538571D01*
X71314285Y-9324285D01*
X71385714Y-9181428D01*
X71457142Y-8967142D01*
X71528571Y-8610000D01*
X71528571Y-8324285D01*
X71457142Y-7967142D01*
X71385714Y-7752857D01*
X71314285Y-7610000D01*
X71171428Y-7395714D01*
X71100000Y-7324285D01*
X82339285Y-8181428D02*
X82482142Y-8110000D01*
X82553571Y-8038571D01*
X82625000Y-7895714D01*
X82625000Y-7824285D01*
X82553571Y-7681428D01*
X82482142Y-7610000D01*
X82339285Y-7538571D01*
X82053571Y-7538571D01*
X81910714Y-7610000D01*
X81839285Y-7681428D01*
X81767857Y-7824285D01*
X81767857Y-7895714D01*
X81839285Y-8038571D01*
X81910714Y-8110000D01*
X82053571Y-8181428D01*
X82339285Y-8181428D01*
X82482142Y-8252857D01*
X82553571Y-8324285D01*
X82625000Y-8467142D01*
X82625000Y-8752857D01*
X82553571Y-8895714D01*
X82482142Y-8967142D01*
X82339285Y-9038571D01*
X82053571Y-9038571D01*
X81910714Y-8967142D01*
X81839285Y-8895714D01*
X81767857Y-8752857D01*
X81767857Y-8467142D01*
X81839285Y-8324285D01*
X81910714Y-8252857D01*
X82053571Y-8181428D01*
X80910714Y-7538571D02*
X80910714Y-7895714D01*
X81267857Y-7752857D02*
X80910714Y-7895714D01*
X80553571Y-7752857D01*
X81125000Y-8181428D02*
X80910714Y-7895714D01*
X80696428Y-8181428D01*
X92578571Y-7508571D02*
X91578571Y-7508571D01*
X92221428Y-9008571D01*
X89792857Y-9008571D02*
X89864285Y-9008571D01*
X90007142Y-8937142D01*
X90221428Y-8722857D01*
X90578571Y-8294285D01*
X90721428Y-8080000D01*
X90792857Y-7865714D01*
X90792857Y-7722857D01*
X90721428Y-7580000D01*
X90578571Y-7508571D01*
X90507142Y-7508571D01*
X90364285Y-7580000D01*
X90292857Y-7722857D01*
X90292857Y-7794285D01*
X90364285Y-7937142D01*
X90435714Y-8008571D01*
X90864285Y-8294285D01*
X90935714Y-8365714D01*
X91007142Y-8508571D01*
X91007142Y-8722857D01*
X90935714Y-8865714D01*
X90864285Y-8937142D01*
X90721428Y-9008571D01*
X90507142Y-9008571D01*
X90364285Y-8937142D01*
X90292857Y-8865714D01*
X90078571Y-8580000D01*
X90007142Y-8365714D01*
X90007142Y-8222857D01*
X54550000Y-18412857D02*
X53407142Y-18412857D01*
X53407142Y-18841428D02*
X54550000Y-18841428D01*
X52692857Y-18627142D02*
X51550000Y-18627142D01*
X52121428Y-19198571D02*
X52121428Y-18055714D01*
X63717857Y-18597142D02*
X62575000Y-18597142D01*
X62217857Y-19311428D02*
X61075000Y-19311428D01*
X72242857Y-17668571D02*
X72528571Y-17668571D01*
X72671428Y-17740000D01*
X72742857Y-17811428D01*
X72885714Y-18025714D01*
X72957142Y-18311428D01*
X72957142Y-18882857D01*
X72885714Y-19025714D01*
X72814285Y-19097142D01*
X72671428Y-19168571D01*
X72385714Y-19168571D01*
X72242857Y-19097142D01*
X72171428Y-19025714D01*
X72100000Y-18882857D01*
X72100000Y-18525714D01*
X72171428Y-18382857D01*
X72242857Y-18311428D01*
X72385714Y-18240000D01*
X72671428Y-18240000D01*
X72814285Y-18311428D01*
X72885714Y-18382857D01*
X72957142Y-18525714D01*
X71671428Y-17811428D02*
X71385714Y-17597142D01*
X71100000Y-17811428D01*
X82125000Y-17698571D02*
X82839285Y-17698571D01*
X82910714Y-18412857D01*
X82839285Y-18341428D01*
X82696428Y-18270000D01*
X82339285Y-18270000D01*
X82196428Y-18341428D01*
X82125000Y-18412857D01*
X82053571Y-18555714D01*
X82053571Y-18912857D01*
X82125000Y-19055714D01*
X82196428Y-19127142D01*
X82339285Y-19198571D01*
X82696428Y-19198571D01*
X82839285Y-19127142D01*
X82910714Y-19055714D01*
X81482142Y-19198571D02*
X80339285Y-17698571D01*
X81267857Y-17698571D02*
X81125000Y-17770000D01*
X81053571Y-17912857D01*
X81125000Y-18055714D01*
X81267857Y-18127142D01*
X81410714Y-18055714D01*
X81482142Y-17912857D01*
X81410714Y-17770000D01*
X81267857Y-17698571D01*
X80410714Y-19127142D02*
X80339285Y-18984285D01*
X80410714Y-18841428D01*
X80553571Y-18770000D01*
X80696428Y-18841428D01*
X80767857Y-18984285D01*
X80696428Y-19127142D01*
X80553571Y-19198571D01*
X80410714Y-19127142D01*
X91578571Y-18168571D02*
X91578571Y-19168571D01*
X91935714Y-17597142D02*
X92292857Y-18668571D01*
X91364285Y-18668571D01*
X90864285Y-19097142D02*
X90650000Y-19168571D01*
X90292857Y-19168571D01*
X90150000Y-19097142D01*
X90078571Y-19025714D01*
X90007142Y-18882857D01*
X90007142Y-18740000D01*
X90078571Y-18597142D01*
X90150000Y-18525714D01*
X90292857Y-18454285D01*
X90578571Y-18382857D01*
X90721428Y-18311428D01*
X90792857Y-18240000D01*
X90864285Y-18097142D01*
X90864285Y-17954285D01*
X90792857Y-17811428D01*
X90721428Y-17740000D01*
X90578571Y-17668571D01*
X90221428Y-17668571D01*
X90007142Y-17740000D01*
X90435714Y-17454285D02*
X90435714Y-19382857D01*
X54121428Y-27828571D02*
X54264285Y-28114285D01*
X52407142Y-27828571D02*
X52407142Y-28114285D01*
X51835714Y-27828571D02*
X51835714Y-28114285D01*
X62860714Y-29257142D02*
X62860714Y-29328571D01*
X62932142Y-29471428D01*
X63003571Y-29542857D01*
X62932142Y-28400000D02*
X62860714Y-28471428D01*
X62932142Y-28542857D01*
X63003571Y-28471428D01*
X62932142Y-28400000D01*
X62932142Y-28542857D01*
X62217857Y-29185714D02*
X62146428Y-29257142D01*
X62217857Y-29328571D01*
X62289285Y-29257142D01*
X62217857Y-29185714D01*
X62217857Y-29328571D01*
X62217857Y-28400000D02*
X62146428Y-28471428D01*
X62217857Y-28542857D01*
X62289285Y-28471428D01*
X62217857Y-28400000D01*
X62217857Y-28542857D01*
X83017857Y-28001428D02*
X82946428Y-27930000D01*
X82803571Y-27858571D01*
X82446428Y-27858571D01*
X82303571Y-27930000D01*
X82232142Y-28001428D01*
X82160714Y-28144285D01*
X82160714Y-28287142D01*
X82232142Y-28501428D01*
X83089285Y-29358571D01*
X82160714Y-29358571D01*
X80589285Y-28644285D02*
X80660714Y-28572857D01*
X80803571Y-28501428D01*
X80946428Y-28501428D01*
X81089285Y-28572857D01*
X81160714Y-28644285D01*
X81232142Y-28787142D01*
X81232142Y-28930000D01*
X81160714Y-29072857D01*
X81089285Y-29144285D01*
X80946428Y-29215714D01*
X80803571Y-29215714D01*
X80660714Y-29144285D01*
X80589285Y-29072857D01*
X80589285Y-28501428D02*
X80589285Y-29072857D01*
X80517857Y-29144285D01*
X80446428Y-29144285D01*
X80303571Y-29072857D01*
X80232142Y-28930000D01*
X80232142Y-28572857D01*
X80375000Y-28358571D01*
X80589285Y-28215714D01*
X80875000Y-28144285D01*
X81160714Y-28215714D01*
X81375000Y-28358571D01*
X81517857Y-28572857D01*
X81589285Y-28858571D01*
X81517857Y-29144285D01*
X81375000Y-29358571D01*
X81160714Y-29501428D01*
X80875000Y-29572857D01*
X80589285Y-29501428D01*
X80375000Y-29358571D01*
X91078571Y-29358571D02*
X91935714Y-29358571D01*
X91507142Y-29358571D02*
X91507142Y-27858571D01*
X91650000Y-28072857D01*
X91792857Y-28215714D01*
X91935714Y-28287142D01*
X90435714Y-29215714D02*
X90364285Y-29287142D01*
X90435714Y-29358571D01*
X90507142Y-29287142D01*
X90435714Y-29215714D01*
X90435714Y-29358571D01*
X90435714Y-28787142D02*
X90507142Y-27930000D01*
X90435714Y-27858571D01*
X90364285Y-27930000D01*
X90435714Y-28787142D01*
X90435714Y-27858571D01*
X6532142Y-39518571D02*
X6532142Y-38018571D01*
X5960714Y-38018571D01*
X5817857Y-38090000D01*
X5746428Y-38161428D01*
X5675000Y-38304285D01*
X5675000Y-38518571D01*
X5746428Y-38661428D01*
X5817857Y-38732857D01*
X5960714Y-38804285D01*
X6532142Y-38804285D01*
X4675000Y-40018571D02*
X4675000Y-37875714D01*
X15592857Y-38018571D02*
X15307142Y-38018571D01*
X15164285Y-38090000D01*
X15021428Y-38232857D01*
X14950000Y-38518571D01*
X14950000Y-39018571D01*
X15021428Y-39304285D01*
X15164285Y-39447142D01*
X15307142Y-39518571D01*
X15592857Y-39518571D01*
X15735714Y-39447142D01*
X15878571Y-39304285D01*
X15950000Y-39018571D01*
X15950000Y-38518571D01*
X15878571Y-38232857D01*
X15735714Y-38090000D01*
X15592857Y-38018571D01*
X14807142Y-37875714D02*
X13521428Y-39804285D01*
X24975000Y-39518571D02*
X24975000Y-38018571D01*
X24403571Y-40090000D02*
X24332142Y-40090000D01*
X24189285Y-40018571D01*
X24117857Y-39875714D01*
X24117857Y-39161428D01*
X24046428Y-39018571D01*
X23903571Y-38947142D01*
X24046428Y-38875714D01*
X24117857Y-38732857D01*
X24117857Y-38018571D01*
X24189285Y-37875714D01*
X24332142Y-37804285D01*
X24403571Y-37804285D01*
X34928571Y-38018571D02*
X34928571Y-39232857D01*
X34857142Y-39375714D01*
X34785714Y-39447142D01*
X34642857Y-39518571D01*
X34357142Y-39518571D01*
X34214285Y-39447142D01*
X34142857Y-39375714D01*
X34071428Y-39232857D01*
X34071428Y-38018571D01*
X32928571Y-40090000D02*
X33000000Y-40090000D01*
X33142857Y-40018571D01*
X33214285Y-39875714D01*
X33214285Y-39161428D01*
X33285714Y-39018571D01*
X33428571Y-38947142D01*
X33285714Y-38875714D01*
X33214285Y-38732857D01*
X33214285Y-38018571D01*
X33142857Y-37875714D01*
X33000000Y-37804285D01*
X32928571Y-37804285D01*
X43525000Y-38774285D02*
X43525000Y-39488571D01*
X44025000Y-37988571D02*
X43525000Y-38774285D01*
X43025000Y-37988571D01*
X53478571Y-37988571D02*
X52621428Y-37988571D01*
X53050000Y-39488571D02*
X53050000Y-37988571D01*
X62110714Y-39518571D02*
X62610714Y-38804285D01*
X62967857Y-39518571D02*
X62967857Y-38018571D01*
X62396428Y-38018571D01*
X62253571Y-38090000D01*
X62182142Y-38161428D01*
X62110714Y-38304285D01*
X62110714Y-38518571D01*
X62182142Y-38661428D01*
X62253571Y-38732857D01*
X62396428Y-38804285D01*
X62967857Y-38804285D01*
X72421428Y-38732857D02*
X71921428Y-38732857D01*
X71707142Y-39518571D02*
X72421428Y-39518571D01*
X72421428Y-38018571D01*
X71707142Y-38018571D01*
X82267857Y-38018571D02*
X81910714Y-39518571D01*
X81625000Y-38447142D01*
X81339285Y-39518571D01*
X80982142Y-38018571D01*
X90578571Y-39661428D02*
X90721428Y-39590000D01*
X90864285Y-39447142D01*
X91078571Y-39232857D01*
X91221428Y-39161428D01*
X91364285Y-39161428D01*
X91292857Y-39518571D02*
X91435714Y-39447142D01*
X91578571Y-39304285D01*
X91650000Y-39018571D01*
X91650000Y-38518571D01*
X91578571Y-38232857D01*
X91435714Y-38090000D01*
X91292857Y-38018571D01*
X91007142Y-38018571D01*
X90864285Y-38090000D01*
X90721428Y-38232857D01*
X90650000Y-38518571D01*
X90650000Y-39018571D01*
X90721428Y-39304285D01*
X90864285Y-39447142D01*
X91007142Y-39518571D01*
X91292857Y-39518571D01*
X24975000Y-59838571D02*
X24975000Y-58338571D01*
X24475000Y-59410000D01*
X23975000Y-58338571D01*
X23975000Y-59838571D01*
X34428571Y-59808571D02*
X34428571Y-58308571D01*
X33571428Y-59808571D01*
X33571428Y-58308571D01*
X43417857Y-59052857D02*
X43203571Y-59124285D01*
X43132142Y-59195714D01*
X43060714Y-59338571D01*
X43060714Y-59552857D01*
X43132142Y-59695714D01*
X43203571Y-59767142D01*
X43346428Y-59838571D01*
X43917857Y-59838571D01*
X43917857Y-58338571D01*
X43417857Y-58338571D01*
X43275000Y-58410000D01*
X43203571Y-58481428D01*
X43132142Y-58624285D01*
X43132142Y-58767142D01*
X43203571Y-58910000D01*
X43275000Y-58981428D01*
X43417857Y-59052857D01*
X43917857Y-59052857D01*
X53550000Y-58338571D02*
X53050000Y-59838571D01*
X52550000Y-58338571D01*
X62110714Y-59665714D02*
X62182142Y-59737142D01*
X62396428Y-59808571D01*
X62539285Y-59808571D01*
X62753571Y-59737142D01*
X62896428Y-59594285D01*
X62967857Y-59451428D01*
X63039285Y-59165714D01*
X63039285Y-58951428D01*
X62967857Y-58665714D01*
X62896428Y-58522857D01*
X62753571Y-58380000D01*
X62539285Y-58308571D01*
X62396428Y-58308571D01*
X62182142Y-58380000D01*
X62110714Y-58451428D01*
X72600000Y-58338571D02*
X71600000Y-59838571D01*
X71600000Y-58338571D02*
X72600000Y-59838571D01*
X82125000Y-58338571D02*
X81125000Y-58338571D01*
X82125000Y-59838571D01*
X81125000Y-59838571D01*
D12*
X14685400Y-59969400D02*
X15193400Y-59969400D01*
X14685400Y-59461400D02*
X14685400Y-59969400D01*
X15193400Y-59969400D02*
X15193400Y-59461400D01*
X15193400Y-59461400D02*
X15701400Y-59461400D01*
X14177400Y-59461400D02*
X14685400Y-59461400D01*
X14939400Y-58445400D02*
X14177400Y-59461400D01*
X15701400Y-59461400D02*
X14939400Y-58445400D01*
X5780671Y-59007853D02*
X5018671Y-59769853D01*
X6161671Y-60150853D02*
X4383671Y-60150853D01*
X5780671Y-59769853D02*
X5018671Y-59007853D01*
X4383671Y-58626853D02*
X6161671Y-58626853D01*
X6161671Y-58626853D02*
X6923671Y-59388853D01*
X6923671Y-59388853D02*
X6161671Y-60150853D01*
X4383671Y-60150853D02*
X4383671Y-58626853D01*
X91964900Y-59334400D02*
X91202900Y-58318400D01*
X91202900Y-58318400D02*
X90440900Y-59334400D01*
X90440900Y-59334400D02*
X90948900Y-59334400D01*
X90948900Y-59334400D02*
X90948900Y-59842400D01*
X90948900Y-59842400D02*
X91456900Y-59842400D01*
X91456900Y-59842400D02*
X91456900Y-59334400D01*
X91456900Y-59334400D02*
X91964900Y-59334400D01*
X38762500Y-69290000D02*
X38762500Y-79450000D01*
X38762500Y-79450000D02*
X57812500Y-79450000D01*
X57812500Y-79450000D02*
X57812500Y-69290000D01*
X50668750Y-69290000D02*
X57812500Y-69290000D01*
X45906250Y-69290000D02*
X38762500Y-69290000D01*
D11*
X34309523Y-69218571D02*
X34642857Y-69218571D01*
X34642857Y-69742380D02*
X34642857Y-68742380D01*
X34166666Y-68742380D01*
X33785714Y-69075714D02*
X33785714Y-69742380D01*
X33785714Y-69170952D02*
X33738095Y-69123333D01*
X33642857Y-69075714D01*
X33500000Y-69075714D01*
X33404761Y-69123333D01*
X33357142Y-69218571D01*
X33357142Y-69742380D01*
D10*
X25332142Y-69897142D02*
X25332142Y-69968571D01*
X25403571Y-70111428D01*
X25475000Y-70182857D01*
X23546428Y-68968571D02*
X24689285Y-69397142D01*
X23546428Y-69825714D01*
D11*
X92340476Y-68742380D02*
X91769047Y-68742380D01*
X92054761Y-69742380D02*
X92054761Y-68742380D01*
X91007142Y-69742380D02*
X91007142Y-69218571D01*
X91054761Y-69123333D01*
X91150000Y-69075714D01*
X91340476Y-69075714D01*
X91435714Y-69123333D01*
X91007142Y-69694761D02*
X91102380Y-69742380D01*
X91340476Y-69742380D01*
X91435714Y-69694761D01*
X91483333Y-69599523D01*
X91483333Y-69504285D01*
X91435714Y-69409047D01*
X91340476Y-69361428D01*
X91102380Y-69361428D01*
X91007142Y-69313809D01*
X90530952Y-69742380D02*
X90530952Y-68742380D01*
X90530952Y-69123333D02*
X90435714Y-69075714D01*
X90245238Y-69075714D01*
X90150000Y-69123333D01*
X90102380Y-69170952D01*
X90054761Y-69266190D01*
X90054761Y-69551904D01*
X90102380Y-69647142D01*
X90150000Y-69694761D01*
X90245238Y-69742380D01*
X90435714Y-69742380D01*
X90530952Y-69694761D01*
X81863095Y-69647142D02*
X81910714Y-69694761D01*
X82053571Y-69742380D01*
X82148809Y-69742380D01*
X82291666Y-69694761D01*
X82386904Y-69599523D01*
X82434523Y-69504285D01*
X82482142Y-69313809D01*
X82482142Y-69170952D01*
X82434523Y-68980476D01*
X82386904Y-68885238D01*
X82291666Y-68790000D01*
X82148809Y-68742380D01*
X82053571Y-68742380D01*
X81910714Y-68790000D01*
X81863095Y-68837619D01*
X81577380Y-69075714D02*
X81196428Y-69075714D01*
X81434523Y-68742380D02*
X81434523Y-69599523D01*
X81386904Y-69694761D01*
X81291666Y-69742380D01*
X81196428Y-69742380D01*
X80720238Y-69742380D02*
X80815476Y-69694761D01*
X80863095Y-69599523D01*
X80863095Y-68742380D01*
X74028571Y-69694761D02*
X73885714Y-69742380D01*
X73647619Y-69742380D01*
X73552380Y-69694761D01*
X73504761Y-69647142D01*
X73457142Y-69551904D01*
X73457142Y-69456666D01*
X73504761Y-69361428D01*
X73552380Y-69313809D01*
X73647619Y-69266190D01*
X73838095Y-69218571D01*
X73933333Y-69170952D01*
X73980952Y-69123333D01*
X74028571Y-69028095D01*
X74028571Y-68932857D01*
X73980952Y-68837619D01*
X73933333Y-68790000D01*
X73838095Y-68742380D01*
X73600000Y-68742380D01*
X73457142Y-68790000D01*
X72600000Y-69075714D02*
X72600000Y-69742380D01*
X73028571Y-69075714D02*
X73028571Y-69599523D01*
X72980952Y-69694761D01*
X72885714Y-69742380D01*
X72742857Y-69742380D01*
X72647619Y-69694761D01*
X72600000Y-69647142D01*
X72123809Y-69075714D02*
X72123809Y-70075714D01*
X72123809Y-69123333D02*
X72028571Y-69075714D01*
X71838095Y-69075714D01*
X71742857Y-69123333D01*
X71695238Y-69170952D01*
X71647619Y-69266190D01*
X71647619Y-69551904D01*
X71695238Y-69647142D01*
X71742857Y-69694761D01*
X71838095Y-69742380D01*
X72028571Y-69742380D01*
X72123809Y-69694761D01*
X70838095Y-69694761D02*
X70933333Y-69742380D01*
X71123809Y-69742380D01*
X71219047Y-69694761D01*
X71266666Y-69599523D01*
X71266666Y-69218571D01*
X71219047Y-69123333D01*
X71123809Y-69075714D01*
X70933333Y-69075714D01*
X70838095Y-69123333D01*
X70790476Y-69218571D01*
X70790476Y-69313809D01*
X71266666Y-69409047D01*
X70361904Y-69742380D02*
X70361904Y-69075714D01*
X70361904Y-69266190D02*
X70314285Y-69170952D01*
X70266666Y-69123333D01*
X70171428Y-69075714D01*
X70076190Y-69075714D01*
X63360714Y-69456666D02*
X62884523Y-69456666D01*
X63455952Y-69742380D02*
X63122619Y-68742380D01*
X62789285Y-69742380D01*
X62313095Y-69742380D02*
X62408333Y-69694761D01*
X62455952Y-69599523D01*
X62455952Y-68742380D01*
X62075000Y-69075714D02*
X61694047Y-69075714D01*
X61932142Y-68742380D02*
X61932142Y-69599523D01*
X61884523Y-69694761D01*
X61789285Y-69742380D01*
X61694047Y-69742380D01*
X50263690Y-69694761D02*
X50168452Y-69742380D01*
X49977976Y-69742380D01*
X49882738Y-69694761D01*
X49835119Y-69599523D01*
X49835119Y-69551904D01*
X49882738Y-69456666D01*
X49977976Y-69409047D01*
X50120833Y-69409047D01*
X50216071Y-69361428D01*
X50263690Y-69266190D01*
X50263690Y-69218571D01*
X50216071Y-69123333D01*
X50120833Y-69075714D01*
X49977976Y-69075714D01*
X49882738Y-69123333D01*
X49406547Y-69075714D02*
X49406547Y-70075714D01*
X49406547Y-69123333D02*
X49311309Y-69075714D01*
X49120833Y-69075714D01*
X49025595Y-69123333D01*
X48977976Y-69170952D01*
X48930357Y-69266190D01*
X48930357Y-69551904D01*
X48977976Y-69647142D01*
X49025595Y-69694761D01*
X49120833Y-69742380D01*
X49311309Y-69742380D01*
X49406547Y-69694761D01*
X48073214Y-69742380D02*
X48073214Y-69218571D01*
X48120833Y-69123333D01*
X48216071Y-69075714D01*
X48406547Y-69075714D01*
X48501785Y-69123333D01*
X48073214Y-69694761D02*
X48168452Y-69742380D01*
X48406547Y-69742380D01*
X48501785Y-69694761D01*
X48549404Y-69599523D01*
X48549404Y-69504285D01*
X48501785Y-69409047D01*
X48406547Y-69361428D01*
X48168452Y-69361428D01*
X48073214Y-69313809D01*
X47168452Y-69694761D02*
X47263690Y-69742380D01*
X47454166Y-69742380D01*
X47549404Y-69694761D01*
X47597023Y-69647142D01*
X47644642Y-69551904D01*
X47644642Y-69266190D01*
X47597023Y-69170952D01*
X47549404Y-69123333D01*
X47454166Y-69075714D01*
X47263690Y-69075714D01*
X47168452Y-69123333D01*
X46358928Y-69694761D02*
X46454166Y-69742380D01*
X46644642Y-69742380D01*
X46739880Y-69694761D01*
X46787500Y-69599523D01*
X46787500Y-69218571D01*
X46739880Y-69123333D01*
X46644642Y-69075714D01*
X46454166Y-69075714D01*
X46358928Y-69123333D01*
X46311309Y-69218571D01*
X46311309Y-69313809D01*
X46787500Y-69409047D01*
D10*
X15878571Y-69825714D02*
X15807142Y-69897142D01*
X15878571Y-69968571D01*
X15950000Y-69897142D01*
X15878571Y-69825714D01*
X15878571Y-69968571D01*
X15164285Y-68968571D02*
X14021428Y-69397142D01*
X15164285Y-69825714D01*
D11*
X5829761Y-69742380D02*
X6163095Y-69266190D01*
X6401190Y-69742380D02*
X6401190Y-68742380D01*
X6020238Y-68742380D01*
X5925000Y-68790000D01*
X5877380Y-68837619D01*
X5829761Y-68932857D01*
X5829761Y-69075714D01*
X5877380Y-69170952D01*
X5925000Y-69218571D01*
X6020238Y-69266190D01*
X6401190Y-69266190D01*
X5020238Y-69694761D02*
X5115476Y-69742380D01*
X5305952Y-69742380D01*
X5401190Y-69694761D01*
X5448809Y-69599523D01*
X5448809Y-69218571D01*
X5401190Y-69123333D01*
X5305952Y-69075714D01*
X5115476Y-69075714D01*
X5020238Y-69123333D01*
X4972619Y-69218571D01*
X4972619Y-69313809D01*
X5448809Y-69409047D01*
X4686904Y-69075714D02*
X4305952Y-69075714D01*
X4544047Y-68742380D02*
X4544047Y-69599523D01*
X4496428Y-69694761D01*
X4401190Y-69742380D01*
X4305952Y-69742380D01*
D12*
X14942820Y-18699480D02*
X14942820Y-19715480D01*
X14942820Y-19715480D02*
X14434820Y-19207480D01*
X14942820Y-19715480D02*
X15450820Y-19207480D01*
X15958820Y-17683480D02*
X16974820Y-17683480D01*
X16974820Y-17683480D02*
X16466820Y-17175480D01*
X16974820Y-17683480D02*
X16466820Y-18191480D01*
X14942820Y-16667480D02*
X14942820Y-15651480D01*
X14942820Y-15651480D02*
X15450820Y-16159480D01*
X14942820Y-15651480D02*
X14434820Y-16159480D01*
X13926820Y-17683480D02*
X12910820Y-17683480D01*
X13418820Y-17175480D02*
X12910820Y-17683480D01*
X12910820Y-17683480D02*
X13418820Y-18191480D01*
D13*
X86614000Y-4445000D02*
X88519000Y-2540000D01*
X88646000Y-6477000D02*
X88773000Y-6350000D01*
X88011000Y-2286000D02*
X88138000Y-2159000D01*
X86233000Y-4064000D02*
X88646000Y-6477000D01*
X88138000Y-2159000D02*
X90551000Y-4572000D01*
X90551000Y-4572000D02*
X90424000Y-4699000D01*
X86360000Y-3937000D02*
X86233000Y-4064000D01*
X79629000Y-4445000D02*
X81534000Y-2540000D01*
X81661000Y-6477000D02*
X81788000Y-6350000D01*
X81153000Y-2159000D02*
X83566000Y-4572000D01*
X81026000Y-2286000D02*
X81153000Y-2159000D01*
X79248000Y-4064000D02*
X81661000Y-6477000D01*
X79375000Y-3937000D02*
X79248000Y-4064000D01*
X83566000Y-4572000D02*
X83439000Y-4699000D01*
X72390000Y-3937000D02*
X72263000Y-4064000D01*
X74041000Y-2286000D02*
X74168000Y-2159000D01*
X72644000Y-4445000D02*
X74549000Y-2540000D01*
X74676000Y-6477000D02*
X74803000Y-6350000D01*
X76581000Y-4572000D02*
X76454000Y-4699000D01*
X74168000Y-2159000D02*
X76581000Y-4572000D01*
X72263000Y-4064000D02*
X74676000Y-6477000D01*
X65405000Y-3937000D02*
X65278000Y-4064000D01*
X65278000Y-4064000D02*
X67691000Y-6477000D01*
X69596000Y-4572000D02*
X69469000Y-4699000D01*
X67691000Y-6477000D02*
X67818000Y-6350000D01*
X67183000Y-2159000D02*
X69596000Y-4572000D01*
X67056000Y-2286000D02*
X67183000Y-2159000D01*
X65659000Y-4445000D02*
X67564000Y-2540000D01*
X58674000Y-4445000D02*
X60579000Y-2540000D01*
X60706000Y-6477000D02*
X60833000Y-6350000D01*
X60071000Y-2286000D02*
X60198000Y-2159000D01*
X58420000Y-3937000D02*
X58293000Y-4064000D01*
X60198000Y-2159000D02*
X62611000Y-4572000D01*
X58293000Y-4064000D02*
X60706000Y-6477000D01*
X62611000Y-4572000D02*
X62484000Y-4699000D01*
X51689000Y-4445000D02*
X53594000Y-2540000D01*
X53721000Y-6477000D02*
X53848000Y-6350000D01*
X51308000Y-4064000D02*
X53721000Y-6477000D01*
X51435000Y-3937000D02*
X51308000Y-4064000D01*
X55626000Y-4572000D02*
X55499000Y-4699000D01*
X53213000Y-2159000D02*
X55626000Y-4572000D01*
X53086000Y-2286000D02*
X53213000Y-2159000D01*
X20574000Y-12192000D02*
X23876000Y-12192000D01*
X23876000Y-12192000D02*
X23876000Y-11938000D01*
X20574000Y-9652000D02*
X20574000Y-9398000D01*
X23368000Y-9398000D02*
X23368000Y-12192000D01*
X20574000Y-11938000D02*
X20574000Y-12192000D01*
X23876000Y-9398000D02*
X23876000Y-9652000D01*
X20574000Y-9398000D02*
X23876000Y-9398000D01*
X20574000Y-26162000D02*
X23876000Y-26162000D01*
X20574000Y-25908000D02*
X20574000Y-26162000D01*
X23876000Y-23368000D02*
X23876000Y-23622000D01*
X23876000Y-26162000D02*
X23876000Y-25908000D01*
X20574000Y-23622000D02*
X20574000Y-23368000D01*
X20574000Y-23368000D02*
X23876000Y-23368000D01*
X23368000Y-23368000D02*
X23368000Y-26162000D01*
X8763000Y-23368000D02*
X8763000Y-26162000D01*
X5969000Y-26162000D02*
X9271000Y-26162000D01*
X5969000Y-23368000D02*
X9271000Y-23368000D01*
X5969000Y-25908000D02*
X5969000Y-26162000D01*
X9271000Y-23368000D02*
X9271000Y-23622000D01*
X5969000Y-23622000D02*
X5969000Y-23368000D01*
X9271000Y-26162000D02*
X9271000Y-25908000D01*
X8763000Y-9398000D02*
X8763000Y-12192000D01*
X5969000Y-9652000D02*
X5969000Y-9398000D01*
X9271000Y-12192000D02*
X9271000Y-11938000D01*
X5969000Y-12192000D02*
X9271000Y-12192000D01*
X5969000Y-11938000D02*
X5969000Y-12192000D01*
X9271000Y-9398000D02*
X9271000Y-9652000D01*
X5969000Y-9398000D02*
X9271000Y-9398000D01*
D10*
X18430428Y-29394571D02*
X17573285Y-29394571D01*
X18001857Y-30894571D02*
X18001857Y-29394571D01*
X16501857Y-30823142D02*
X16644714Y-30894571D01*
X16930428Y-30894571D01*
X17073285Y-30823142D01*
X17144714Y-30680285D01*
X17144714Y-30108857D01*
X17073285Y-29966000D01*
X16930428Y-29894571D01*
X16644714Y-29894571D01*
X16501857Y-29966000D01*
X16430428Y-30108857D01*
X16430428Y-30251714D01*
X17144714Y-30394571D01*
X15216142Y-30823142D02*
X15359000Y-30894571D01*
X15644714Y-30894571D01*
X15787571Y-30823142D01*
X15859000Y-30680285D01*
X15859000Y-30108857D01*
X15787571Y-29966000D01*
X15644714Y-29894571D01*
X15359000Y-29894571D01*
X15216142Y-29966000D01*
X15144714Y-30108857D01*
X15144714Y-30251714D01*
X15859000Y-30394571D01*
X14501857Y-29894571D02*
X14501857Y-30894571D01*
X14501857Y-30037428D02*
X14430428Y-29966000D01*
X14287571Y-29894571D01*
X14073285Y-29894571D01*
X13930428Y-29966000D01*
X13859000Y-30108857D01*
X13859000Y-30894571D01*
X13216142Y-30823142D02*
X13073285Y-30894571D01*
X12787571Y-30894571D01*
X12644714Y-30823142D01*
X12573285Y-30680285D01*
X12573285Y-30608857D01*
X12644714Y-30466000D01*
X12787571Y-30394571D01*
X13001857Y-30394571D01*
X13144714Y-30323142D01*
X13216142Y-30180285D01*
X13216142Y-30108857D01*
X13144714Y-29966000D01*
X13001857Y-29894571D01*
X12787571Y-29894571D01*
X12644714Y-29966000D01*
X12073285Y-29894571D02*
X11716142Y-30894571D01*
X11359000Y-29894571D02*
X11716142Y-30894571D01*
X11859000Y-31251714D01*
X11930428Y-31323142D01*
X12073285Y-31394571D01*
X18323285Y-31944571D02*
X17466142Y-31944571D01*
X17894714Y-33444571D02*
X17894714Y-31944571D01*
X16966142Y-33444571D02*
X16966142Y-31944571D01*
X16323285Y-33444571D02*
X16323285Y-32658857D01*
X16394714Y-32516000D01*
X16537571Y-32444571D01*
X16751857Y-32444571D01*
X16894714Y-32516000D01*
X16966142Y-32587428D01*
X14966142Y-32444571D02*
X14966142Y-33444571D01*
X15609000Y-32444571D02*
X15609000Y-33230285D01*
X15537571Y-33373142D01*
X15394714Y-33444571D01*
X15180428Y-33444571D01*
X15037571Y-33373142D01*
X14966142Y-33301714D01*
X14251857Y-33444571D02*
X14251857Y-32444571D01*
X14251857Y-32587428D02*
X14180428Y-32516000D01*
X14037571Y-32444571D01*
X13823285Y-32444571D01*
X13680428Y-32516000D01*
X13609000Y-32658857D01*
X13609000Y-33444571D01*
X13609000Y-32658857D02*
X13537571Y-32516000D01*
X13394714Y-32444571D01*
X13180428Y-32444571D01*
X13037571Y-32516000D01*
X12966142Y-32658857D01*
X12966142Y-33444571D01*
X12251857Y-33444571D02*
X12251857Y-31944571D01*
X12251857Y-32516000D02*
X12109000Y-32444571D01*
X11823285Y-32444571D01*
X11680428Y-32516000D01*
X11609000Y-32587428D01*
X11537571Y-32730285D01*
X11537571Y-33158857D01*
X11609000Y-33301714D01*
X11680428Y-33373142D01*
X11823285Y-33444571D01*
X12109000Y-33444571D01*
X12251857Y-33373142D01*
X19609000Y-35208857D02*
X19394714Y-35280285D01*
X19323285Y-35351714D01*
X19251857Y-35494571D01*
X19251857Y-35708857D01*
X19323285Y-35851714D01*
X19394714Y-35923142D01*
X19537571Y-35994571D01*
X20109000Y-35994571D01*
X20109000Y-34494571D01*
X19609000Y-34494571D01*
X19466142Y-34566000D01*
X19394714Y-34637428D01*
X19323285Y-34780285D01*
X19323285Y-34923142D01*
X19394714Y-35066000D01*
X19466142Y-35137428D01*
X19609000Y-35208857D01*
X20109000Y-35208857D01*
X18394714Y-35994571D02*
X18537571Y-35923142D01*
X18609000Y-35851714D01*
X18680428Y-35708857D01*
X18680428Y-35280285D01*
X18609000Y-35137428D01*
X18537571Y-35066000D01*
X18394714Y-34994571D01*
X18180428Y-34994571D01*
X18037571Y-35066000D01*
X17966142Y-35137428D01*
X17894714Y-35280285D01*
X17894714Y-35708857D01*
X17966142Y-35851714D01*
X18037571Y-35923142D01*
X18180428Y-35994571D01*
X18394714Y-35994571D01*
X16609000Y-35994571D02*
X16609000Y-35208857D01*
X16680428Y-35066000D01*
X16823285Y-34994571D01*
X17109000Y-34994571D01*
X17251857Y-35066000D01*
X16609000Y-35923142D02*
X16751857Y-35994571D01*
X17109000Y-35994571D01*
X17251857Y-35923142D01*
X17323285Y-35780285D01*
X17323285Y-35637428D01*
X17251857Y-35494571D01*
X17109000Y-35423142D01*
X16751857Y-35423142D01*
X16609000Y-35351714D01*
X15894714Y-35994571D02*
X15894714Y-34994571D01*
X15894714Y-35280285D02*
X15823285Y-35137428D01*
X15751857Y-35066000D01*
X15609000Y-34994571D01*
X15466142Y-34994571D01*
X14323285Y-35994571D02*
X14323285Y-34494571D01*
X14323285Y-35923142D02*
X14466142Y-35994571D01*
X14751857Y-35994571D01*
X14894714Y-35923142D01*
X14966142Y-35851714D01*
X15037571Y-35708857D01*
X15037571Y-35280285D01*
X14966142Y-35137428D01*
X14894714Y-35066000D01*
X14751857Y-34994571D01*
X14466142Y-34994571D01*
X14323285Y-35066000D01*
X11680428Y-35994571D02*
X12537571Y-35994571D01*
X12109000Y-35994571D02*
X12109000Y-34494571D01*
X12251857Y-34708857D01*
X12394714Y-34851714D01*
X12537571Y-34923142D01*
X11037571Y-35851714D02*
X10966142Y-35923142D01*
X11037571Y-35994571D01*
X11109000Y-35923142D01*
X11037571Y-35851714D01*
X11037571Y-35994571D01*
X10037571Y-34494571D02*
X9894714Y-34494571D01*
X9751857Y-34566000D01*
X9680428Y-34637428D01*
X9609000Y-34780285D01*
X9537571Y-35066000D01*
X9537571Y-35423142D01*
X9609000Y-35708857D01*
X9680428Y-35851714D01*
X9751857Y-35923142D01*
X9894714Y-35994571D01*
X10037571Y-35994571D01*
X10180428Y-35923142D01*
X10251857Y-35851714D01*
X10323285Y-35708857D01*
X10394714Y-35423142D01*
X10394714Y-35066000D01*
X10323285Y-34780285D01*
X10251857Y-34637428D01*
X10180428Y-34566000D01*
X10037571Y-34494571D01*
D13*
X41275000Y-8890000D02*
X41275000Y-6350000D01*
X50165000Y-8890000D02*
X41275000Y-8890000D01*
X50165000Y-6350000D02*
X50165000Y-8890000D01*
X41275000Y-6350000D02*
X50165000Y-6350000D01*
D12*
X44812142Y-7072380D02*
X44193095Y-7072380D01*
X44526428Y-7453333D01*
X44383571Y-7453333D01*
X44288333Y-7500952D01*
X44240714Y-7548571D01*
X44193095Y-7643809D01*
X44193095Y-7881904D01*
X44240714Y-7977142D01*
X44288333Y-8024761D01*
X44383571Y-8072380D01*
X44669285Y-8072380D01*
X44764523Y-8024761D01*
X44812142Y-7977142D01*
X43764523Y-7977142D02*
X43716904Y-8024761D01*
X43764523Y-8072380D01*
X43812142Y-8024761D01*
X43764523Y-7977142D01*
X43764523Y-8072380D01*
X43383571Y-7072380D02*
X42764523Y-7072380D01*
X43097857Y-7453333D01*
X42955000Y-7453333D01*
X42859761Y-7500952D01*
X42812142Y-7548571D01*
X42764523Y-7643809D01*
X42764523Y-7881904D01*
X42812142Y-7977142D01*
X42859761Y-8024761D01*
X42955000Y-8072380D01*
X43240714Y-8072380D01*
X43335952Y-8024761D01*
X43383571Y-7977142D01*
X42431190Y-7405714D02*
X42193095Y-8072380D01*
X41955000Y-7405714D01*
D13*
X35941000Y-1270000D02*
X27305000Y-1270000D01*
X35941000Y-3810000D02*
X35941000Y-1270000D01*
X27305000Y-3810000D02*
X35941000Y-3810000D01*
X27305000Y-1270000D02*
X27305000Y-3810000D01*
X40005000Y-1270000D02*
X42545000Y-1270000D01*
X40005000Y-3810000D02*
X40005000Y-1270000D01*
X47625000Y-3810000D02*
X40005000Y-3810000D01*
X47625000Y-1270000D02*
X47625000Y-3810000D01*
X42545000Y-1270000D02*
X47625000Y-1270000D01*
D12*
X44970904Y-33472380D02*
X44970904Y-32472380D01*
X44732809Y-32472380D01*
X44589952Y-32520000D01*
X44494714Y-32615238D01*
X44447095Y-32710476D01*
X44399476Y-32900952D01*
X44399476Y-33043809D01*
X44447095Y-33234285D01*
X44494714Y-33329523D01*
X44589952Y-33424761D01*
X44732809Y-33472380D01*
X44970904Y-33472380D01*
X44018523Y-32567619D02*
X43970904Y-32520000D01*
X43875666Y-32472380D01*
X43637571Y-32472380D01*
X43542333Y-32520000D01*
X43494714Y-32567619D01*
X43447095Y-32662857D01*
X43447095Y-32758095D01*
X43494714Y-32900952D01*
X44066142Y-33472380D01*
X43447095Y-33472380D01*
X42970904Y-33472380D02*
X42780428Y-33472380D01*
X42685190Y-33424761D01*
X42637571Y-33377142D01*
X42542333Y-33234285D01*
X42494714Y-33043809D01*
X42494714Y-32662857D01*
X42542333Y-32567619D01*
X42589952Y-32520000D01*
X42685190Y-32472380D01*
X42875666Y-32472380D01*
X42970904Y-32520000D01*
X43018523Y-32567619D01*
X43066142Y-32662857D01*
X43066142Y-32900952D01*
X43018523Y-32996190D01*
X42970904Y-33043809D01*
X42875666Y-33091428D01*
X42685190Y-33091428D01*
X42589952Y-33043809D01*
X42542333Y-32996190D01*
X42494714Y-32900952D01*
X44970904Y-30932380D02*
X44970904Y-29932380D01*
X44732809Y-29932380D01*
X44589952Y-29980000D01*
X44494714Y-30075238D01*
X44447095Y-30170476D01*
X44399476Y-30360952D01*
X44399476Y-30503809D01*
X44447095Y-30694285D01*
X44494714Y-30789523D01*
X44589952Y-30884761D01*
X44732809Y-30932380D01*
X44970904Y-30932380D01*
X44066142Y-29932380D02*
X43447095Y-29932380D01*
X43780428Y-30313333D01*
X43637571Y-30313333D01*
X43542333Y-30360952D01*
X43494714Y-30408571D01*
X43447095Y-30503809D01*
X43447095Y-30741904D01*
X43494714Y-30837142D01*
X43542333Y-30884761D01*
X43637571Y-30932380D01*
X43923285Y-30932380D01*
X44018523Y-30884761D01*
X44066142Y-30837142D01*
X42828047Y-29932380D02*
X42732809Y-29932380D01*
X42637571Y-29980000D01*
X42589952Y-30027619D01*
X42542333Y-30122857D01*
X42494714Y-30313333D01*
X42494714Y-30551428D01*
X42542333Y-30741904D01*
X42589952Y-30837142D01*
X42637571Y-30884761D01*
X42732809Y-30932380D01*
X42828047Y-30932380D01*
X42923285Y-30884761D01*
X42970904Y-30837142D01*
X43018523Y-30741904D01*
X43066142Y-30551428D01*
X43066142Y-30313333D01*
X43018523Y-30122857D01*
X42970904Y-30027619D01*
X42923285Y-29980000D01*
X42828047Y-29932380D01*
X44970904Y-28392380D02*
X44970904Y-27392380D01*
X44732809Y-27392380D01*
X44589952Y-27440000D01*
X44494714Y-27535238D01*
X44447095Y-27630476D01*
X44399476Y-27820952D01*
X44399476Y-27963809D01*
X44447095Y-28154285D01*
X44494714Y-28249523D01*
X44589952Y-28344761D01*
X44732809Y-28392380D01*
X44970904Y-28392380D01*
X44066142Y-27392380D02*
X43447095Y-27392380D01*
X43780428Y-27773333D01*
X43637571Y-27773333D01*
X43542333Y-27820952D01*
X43494714Y-27868571D01*
X43447095Y-27963809D01*
X43447095Y-28201904D01*
X43494714Y-28297142D01*
X43542333Y-28344761D01*
X43637571Y-28392380D01*
X43923285Y-28392380D01*
X44018523Y-28344761D01*
X44066142Y-28297142D01*
X42494714Y-28392380D02*
X43066142Y-28392380D01*
X42780428Y-28392380D02*
X42780428Y-27392380D01*
X42875666Y-27535238D01*
X42970904Y-27630476D01*
X43066142Y-27678095D01*
X44970904Y-25852380D02*
X44970904Y-24852380D01*
X44732809Y-24852380D01*
X44589952Y-24900000D01*
X44494714Y-24995238D01*
X44447095Y-25090476D01*
X44399476Y-25280952D01*
X44399476Y-25423809D01*
X44447095Y-25614285D01*
X44494714Y-25709523D01*
X44589952Y-25804761D01*
X44732809Y-25852380D01*
X44970904Y-25852380D01*
X44066142Y-24852380D02*
X43447095Y-24852380D01*
X43780428Y-25233333D01*
X43637571Y-25233333D01*
X43542333Y-25280952D01*
X43494714Y-25328571D01*
X43447095Y-25423809D01*
X43447095Y-25661904D01*
X43494714Y-25757142D01*
X43542333Y-25804761D01*
X43637571Y-25852380D01*
X43923285Y-25852380D01*
X44018523Y-25804761D01*
X44066142Y-25757142D01*
X43066142Y-24947619D02*
X43018523Y-24900000D01*
X42923285Y-24852380D01*
X42685190Y-24852380D01*
X42589952Y-24900000D01*
X42542333Y-24947619D01*
X42494714Y-25042857D01*
X42494714Y-25138095D01*
X42542333Y-25280952D01*
X43113761Y-25852380D01*
X42494714Y-25852380D01*
X44970904Y-23312380D02*
X44970904Y-22312380D01*
X44732809Y-22312380D01*
X44589952Y-22360000D01*
X44494714Y-22455238D01*
X44447095Y-22550476D01*
X44399476Y-22740952D01*
X44399476Y-22883809D01*
X44447095Y-23074285D01*
X44494714Y-23169523D01*
X44589952Y-23264761D01*
X44732809Y-23312380D01*
X44970904Y-23312380D01*
X44066142Y-22312380D02*
X43447095Y-22312380D01*
X43780428Y-22693333D01*
X43637571Y-22693333D01*
X43542333Y-22740952D01*
X43494714Y-22788571D01*
X43447095Y-22883809D01*
X43447095Y-23121904D01*
X43494714Y-23217142D01*
X43542333Y-23264761D01*
X43637571Y-23312380D01*
X43923285Y-23312380D01*
X44018523Y-23264761D01*
X44066142Y-23217142D01*
X43113761Y-22312380D02*
X42494714Y-22312380D01*
X42828047Y-22693333D01*
X42685190Y-22693333D01*
X42589952Y-22740952D01*
X42542333Y-22788571D01*
X42494714Y-22883809D01*
X42494714Y-23121904D01*
X42542333Y-23217142D01*
X42589952Y-23264761D01*
X42685190Y-23312380D01*
X42970904Y-23312380D01*
X43066142Y-23264761D01*
X43113761Y-23217142D01*
X45066142Y-19772380D02*
X44447095Y-19772380D01*
X44780428Y-20153333D01*
X44637571Y-20153333D01*
X44542333Y-20200952D01*
X44494714Y-20248571D01*
X44447095Y-20343809D01*
X44447095Y-20581904D01*
X44494714Y-20677142D01*
X44542333Y-20724761D01*
X44637571Y-20772380D01*
X44923285Y-20772380D01*
X45018523Y-20724761D01*
X45066142Y-20677142D01*
X44018523Y-20677142D02*
X43970904Y-20724761D01*
X44018523Y-20772380D01*
X44066142Y-20724761D01*
X44018523Y-20677142D01*
X44018523Y-20772380D01*
X43637571Y-19772380D02*
X43018523Y-19772380D01*
X43351857Y-20153333D01*
X43209000Y-20153333D01*
X43113761Y-20200952D01*
X43066142Y-20248571D01*
X43018523Y-20343809D01*
X43018523Y-20581904D01*
X43066142Y-20677142D01*
X43113761Y-20724761D01*
X43209000Y-20772380D01*
X43494714Y-20772380D01*
X43589952Y-20724761D01*
X43637571Y-20677142D01*
X42685190Y-20105714D02*
X42447095Y-20772380D01*
X42209000Y-20105714D01*
X37096904Y-33472380D02*
X37096904Y-32472380D01*
X36858809Y-32472380D01*
X36715952Y-32520000D01*
X36620714Y-32615238D01*
X36573095Y-32710476D01*
X36525476Y-32900952D01*
X36525476Y-33043809D01*
X36573095Y-33234285D01*
X36620714Y-33329523D01*
X36715952Y-33424761D01*
X36858809Y-33472380D01*
X37096904Y-33472380D01*
X36144523Y-32567619D02*
X36096904Y-32520000D01*
X36001666Y-32472380D01*
X35763571Y-32472380D01*
X35668333Y-32520000D01*
X35620714Y-32567619D01*
X35573095Y-32662857D01*
X35573095Y-32758095D01*
X35620714Y-32900952D01*
X36192142Y-33472380D01*
X35573095Y-33472380D01*
X35001666Y-32900952D02*
X35096904Y-32853333D01*
X35144523Y-32805714D01*
X35192142Y-32710476D01*
X35192142Y-32662857D01*
X35144523Y-32567619D01*
X35096904Y-32520000D01*
X35001666Y-32472380D01*
X34811190Y-32472380D01*
X34715952Y-32520000D01*
X34668333Y-32567619D01*
X34620714Y-32662857D01*
X34620714Y-32710476D01*
X34668333Y-32805714D01*
X34715952Y-32853333D01*
X34811190Y-32900952D01*
X35001666Y-32900952D01*
X35096904Y-32948571D01*
X35144523Y-32996190D01*
X35192142Y-33091428D01*
X35192142Y-33281904D01*
X35144523Y-33377142D01*
X35096904Y-33424761D01*
X35001666Y-33472380D01*
X34811190Y-33472380D01*
X34715952Y-33424761D01*
X34668333Y-33377142D01*
X34620714Y-33281904D01*
X34620714Y-33091428D01*
X34668333Y-32996190D01*
X34715952Y-32948571D01*
X34811190Y-32900952D01*
X37096904Y-30932380D02*
X37096904Y-29932380D01*
X36858809Y-29932380D01*
X36715952Y-29980000D01*
X36620714Y-30075238D01*
X36573095Y-30170476D01*
X36525476Y-30360952D01*
X36525476Y-30503809D01*
X36573095Y-30694285D01*
X36620714Y-30789523D01*
X36715952Y-30884761D01*
X36858809Y-30932380D01*
X37096904Y-30932380D01*
X36144523Y-30027619D02*
X36096904Y-29980000D01*
X36001666Y-29932380D01*
X35763571Y-29932380D01*
X35668333Y-29980000D01*
X35620714Y-30027619D01*
X35573095Y-30122857D01*
X35573095Y-30218095D01*
X35620714Y-30360952D01*
X36192142Y-30932380D01*
X35573095Y-30932380D01*
X35239761Y-29932380D02*
X34573095Y-29932380D01*
X35001666Y-30932380D01*
X37096904Y-28392380D02*
X37096904Y-27392380D01*
X36858809Y-27392380D01*
X36715952Y-27440000D01*
X36620714Y-27535238D01*
X36573095Y-27630476D01*
X36525476Y-27820952D01*
X36525476Y-27963809D01*
X36573095Y-28154285D01*
X36620714Y-28249523D01*
X36715952Y-28344761D01*
X36858809Y-28392380D01*
X37096904Y-28392380D01*
X36144523Y-27487619D02*
X36096904Y-27440000D01*
X36001666Y-27392380D01*
X35763571Y-27392380D01*
X35668333Y-27440000D01*
X35620714Y-27487619D01*
X35573095Y-27582857D01*
X35573095Y-27678095D01*
X35620714Y-27820952D01*
X36192142Y-28392380D01*
X35573095Y-28392380D01*
X34715952Y-27392380D02*
X34906428Y-27392380D01*
X35001666Y-27440000D01*
X35049285Y-27487619D01*
X35144523Y-27630476D01*
X35192142Y-27820952D01*
X35192142Y-28201904D01*
X35144523Y-28297142D01*
X35096904Y-28344761D01*
X35001666Y-28392380D01*
X34811190Y-28392380D01*
X34715952Y-28344761D01*
X34668333Y-28297142D01*
X34620714Y-28201904D01*
X34620714Y-27963809D01*
X34668333Y-27868571D01*
X34715952Y-27820952D01*
X34811190Y-27773333D01*
X35001666Y-27773333D01*
X35096904Y-27820952D01*
X35144523Y-27868571D01*
X35192142Y-27963809D01*
X37096904Y-25852380D02*
X37096904Y-24852380D01*
X36858809Y-24852380D01*
X36715952Y-24900000D01*
X36620714Y-24995238D01*
X36573095Y-25090476D01*
X36525476Y-25280952D01*
X36525476Y-25423809D01*
X36573095Y-25614285D01*
X36620714Y-25709523D01*
X36715952Y-25804761D01*
X36858809Y-25852380D01*
X37096904Y-25852380D01*
X36144523Y-24947619D02*
X36096904Y-24900000D01*
X36001666Y-24852380D01*
X35763571Y-24852380D01*
X35668333Y-24900000D01*
X35620714Y-24947619D01*
X35573095Y-25042857D01*
X35573095Y-25138095D01*
X35620714Y-25280952D01*
X36192142Y-25852380D01*
X35573095Y-25852380D01*
X34668333Y-24852380D02*
X35144523Y-24852380D01*
X35192142Y-25328571D01*
X35144523Y-25280952D01*
X35049285Y-25233333D01*
X34811190Y-25233333D01*
X34715952Y-25280952D01*
X34668333Y-25328571D01*
X34620714Y-25423809D01*
X34620714Y-25661904D01*
X34668333Y-25757142D01*
X34715952Y-25804761D01*
X34811190Y-25852380D01*
X35049285Y-25852380D01*
X35144523Y-25804761D01*
X35192142Y-25757142D01*
X37096904Y-23312380D02*
X37096904Y-22312380D01*
X36858809Y-22312380D01*
X36715952Y-22360000D01*
X36620714Y-22455238D01*
X36573095Y-22550476D01*
X36525476Y-22740952D01*
X36525476Y-22883809D01*
X36573095Y-23074285D01*
X36620714Y-23169523D01*
X36715952Y-23264761D01*
X36858809Y-23312380D01*
X37096904Y-23312380D01*
X36144523Y-22407619D02*
X36096904Y-22360000D01*
X36001666Y-22312380D01*
X35763571Y-22312380D01*
X35668333Y-22360000D01*
X35620714Y-22407619D01*
X35573095Y-22502857D01*
X35573095Y-22598095D01*
X35620714Y-22740952D01*
X36192142Y-23312380D01*
X35573095Y-23312380D01*
X34715952Y-22645714D02*
X34715952Y-23312380D01*
X34954047Y-22264761D02*
X35192142Y-22979047D01*
X34573095Y-22979047D01*
X36573095Y-19820000D02*
X36668333Y-19772380D01*
X36811190Y-19772380D01*
X36954047Y-19820000D01*
X37049285Y-19915238D01*
X37096904Y-20010476D01*
X37144523Y-20200952D01*
X37144523Y-20343809D01*
X37096904Y-20534285D01*
X37049285Y-20629523D01*
X36954047Y-20724761D01*
X36811190Y-20772380D01*
X36715952Y-20772380D01*
X36573095Y-20724761D01*
X36525476Y-20677142D01*
X36525476Y-20343809D01*
X36715952Y-20343809D01*
X36096904Y-20772380D02*
X36096904Y-19772380D01*
X35525476Y-20772380D01*
X35525476Y-19772380D01*
X35049285Y-20772380D02*
X35049285Y-19772380D01*
X34811190Y-19772380D01*
X34668333Y-19820000D01*
X34573095Y-19915238D01*
X34525476Y-20010476D01*
X34477857Y-20200952D01*
X34477857Y-20343809D01*
X34525476Y-20534285D01*
X34573095Y-20629523D01*
X34668333Y-20724761D01*
X34811190Y-20772380D01*
X35049285Y-20772380D01*
X37144523Y-17946666D02*
X36668333Y-17946666D01*
X37239761Y-18232380D02*
X36906428Y-17232380D01*
X36573095Y-18232380D01*
X35715952Y-18232380D02*
X36287380Y-18232380D01*
X36001666Y-18232380D02*
X36001666Y-17232380D01*
X36096904Y-17375238D01*
X36192142Y-17470476D01*
X36287380Y-17518095D01*
X35335000Y-17327619D02*
X35287380Y-17280000D01*
X35192142Y-17232380D01*
X34954047Y-17232380D01*
X34858809Y-17280000D01*
X34811190Y-17327619D01*
X34763571Y-17422857D01*
X34763571Y-17518095D01*
X34811190Y-17660952D01*
X35382619Y-18232380D01*
X34763571Y-18232380D01*
X45018523Y-17946666D02*
X44542333Y-17946666D01*
X45113761Y-18232380D02*
X44780428Y-17232380D01*
X44447095Y-18232380D01*
X43589952Y-18232380D02*
X44161380Y-18232380D01*
X43875666Y-18232380D02*
X43875666Y-17232380D01*
X43970904Y-17375238D01*
X44066142Y-17470476D01*
X44161380Y-17518095D01*
X43256619Y-17232380D02*
X42637571Y-17232380D01*
X42970904Y-17613333D01*
X42828047Y-17613333D01*
X42732809Y-17660952D01*
X42685190Y-17708571D01*
X42637571Y-17803809D01*
X42637571Y-18041904D01*
X42685190Y-18137142D01*
X42732809Y-18184761D01*
X42828047Y-18232380D01*
X43113761Y-18232380D01*
X43209000Y-18184761D01*
X43256619Y-18137142D01*
X42224523Y-15406666D02*
X41748333Y-15406666D01*
X42319761Y-15692380D02*
X41986428Y-14692380D01*
X41653095Y-15692380D01*
X40795952Y-15692380D02*
X41367380Y-15692380D01*
X41081666Y-15692380D02*
X41081666Y-14692380D01*
X41176904Y-14835238D01*
X41272142Y-14930476D01*
X41367380Y-14978095D01*
X39843571Y-15692380D02*
X40415000Y-15692380D01*
X40129285Y-15692380D02*
X40129285Y-14692380D01*
X40224523Y-14835238D01*
X40319761Y-14930476D01*
X40415000Y-14978095D01*
X42224523Y-12866666D02*
X41748333Y-12866666D01*
X42319761Y-13152380D02*
X41986428Y-12152380D01*
X41653095Y-13152380D01*
X40795952Y-13152380D02*
X41367380Y-13152380D01*
X41081666Y-13152380D02*
X41081666Y-12152380D01*
X41176904Y-12295238D01*
X41272142Y-12390476D01*
X41367380Y-12438095D01*
X40176904Y-12152380D02*
X40081666Y-12152380D01*
X39986428Y-12200000D01*
X39938809Y-12247619D01*
X39891190Y-12342857D01*
X39843571Y-12533333D01*
X39843571Y-12771428D01*
X39891190Y-12961904D01*
X39938809Y-13057142D01*
X39986428Y-13104761D01*
X40081666Y-13152380D01*
X40176904Y-13152380D01*
X40272142Y-13104761D01*
X40319761Y-13057142D01*
X40367380Y-12961904D01*
X40415000Y-12771428D01*
X40415000Y-12533333D01*
X40367380Y-12342857D01*
X40319761Y-12247619D01*
X40272142Y-12200000D01*
X40176904Y-12152380D01*
X42224523Y-10326666D02*
X41748333Y-10326666D01*
X42319761Y-10612380D02*
X41986428Y-9612380D01*
X41653095Y-10612380D01*
X40748333Y-10612380D02*
X41081666Y-10136190D01*
X41319761Y-10612380D02*
X41319761Y-9612380D01*
X40938809Y-9612380D01*
X40843571Y-9660000D01*
X40795952Y-9707619D01*
X40748333Y-9802857D01*
X40748333Y-9945714D01*
X40795952Y-10040952D01*
X40843571Y-10088571D01*
X40938809Y-10136190D01*
X41319761Y-10136190D01*
X40319761Y-10088571D02*
X39986428Y-10088571D01*
X39843571Y-10612380D02*
X40319761Y-10612380D01*
X40319761Y-9612380D01*
X39843571Y-9612380D01*
X39081666Y-10088571D02*
X39415000Y-10088571D01*
X39415000Y-10612380D02*
X39415000Y-9612380D01*
X38938809Y-9612380D01*
X49126086Y-11601873D02*
X49762482Y-10965477D01*
X49610959Y-10813954D01*
X49489741Y-10753345D01*
X49368523Y-10753345D01*
X49277609Y-10783650D01*
X49126086Y-10874563D01*
X49035172Y-10965477D01*
X48944259Y-11117000D01*
X48913954Y-11207914D01*
X48913954Y-11329132D01*
X48974563Y-11450350D01*
X49126086Y-11601873D01*
X49095782Y-10419995D02*
X49095782Y-10359386D01*
X49065477Y-10268472D01*
X48913954Y-10116949D01*
X48823040Y-10086644D01*
X48762431Y-10086644D01*
X48671518Y-10116949D01*
X48610908Y-10177558D01*
X48550299Y-10298776D01*
X48550299Y-11026086D01*
X48156340Y-10632127D01*
X48580604Y-9783599D02*
X48186644Y-9389639D01*
X48156340Y-9844208D01*
X48065426Y-9753294D01*
X47974512Y-9722989D01*
X47913903Y-9722989D01*
X47822989Y-9753294D01*
X47671467Y-9904817D01*
X47641162Y-9995731D01*
X47641162Y-10056340D01*
X47671467Y-10147253D01*
X47853294Y-10329081D01*
X47944208Y-10359386D01*
X48004817Y-10359386D01*
X49126086Y-14141873D02*
X49762482Y-13505477D01*
X49610959Y-13353954D01*
X49489741Y-13293345D01*
X49368523Y-13293345D01*
X49277609Y-13323650D01*
X49126086Y-13414563D01*
X49035172Y-13505477D01*
X48944259Y-13657000D01*
X48913954Y-13747914D01*
X48913954Y-13869132D01*
X48974563Y-13990350D01*
X49126086Y-14141873D01*
X49095782Y-12959995D02*
X49095782Y-12899386D01*
X49065477Y-12808472D01*
X48913954Y-12656949D01*
X48823040Y-12626644D01*
X48762431Y-12626644D01*
X48671518Y-12656949D01*
X48610908Y-12717558D01*
X48550299Y-12838776D01*
X48550299Y-13566086D01*
X48156340Y-13172127D01*
X48489690Y-12353903D02*
X48489690Y-12293294D01*
X48459386Y-12202380D01*
X48307863Y-12050857D01*
X48216949Y-12020553D01*
X48156340Y-12020553D01*
X48065426Y-12050857D01*
X48004817Y-12111467D01*
X47944208Y-12232685D01*
X47944208Y-12959995D01*
X47550248Y-12566035D01*
X49126086Y-16681873D02*
X49762482Y-16045477D01*
X49610959Y-15893954D01*
X49489741Y-15833345D01*
X49368523Y-15833345D01*
X49277609Y-15863650D01*
X49126086Y-15954563D01*
X49035172Y-16045477D01*
X48944259Y-16197000D01*
X48913954Y-16287914D01*
X48913954Y-16409132D01*
X48974563Y-16530350D01*
X49126086Y-16681873D01*
X49095782Y-15499995D02*
X49095782Y-15439386D01*
X49065477Y-15348472D01*
X48913954Y-15196949D01*
X48823040Y-15166644D01*
X48762431Y-15166644D01*
X48671518Y-15196949D01*
X48610908Y-15257558D01*
X48550299Y-15378776D01*
X48550299Y-16106086D01*
X48156340Y-15712127D01*
X47550248Y-15106035D02*
X47913903Y-15469690D01*
X47732076Y-15287863D02*
X48368472Y-14651467D01*
X48338167Y-14802989D01*
X48338167Y-14924208D01*
X48368472Y-15015121D01*
X49126086Y-19221873D02*
X49762482Y-18585477D01*
X49610959Y-18433954D01*
X49489741Y-18373345D01*
X49368523Y-18373345D01*
X49277609Y-18403650D01*
X49126086Y-18494563D01*
X49035172Y-18585477D01*
X48944259Y-18737000D01*
X48913954Y-18827914D01*
X48913954Y-18949132D01*
X48974563Y-19070350D01*
X49126086Y-19221873D01*
X49095782Y-18039995D02*
X49095782Y-17979386D01*
X49065477Y-17888472D01*
X48913954Y-17736949D01*
X48823040Y-17706644D01*
X48762431Y-17706644D01*
X48671518Y-17736949D01*
X48610908Y-17797558D01*
X48550299Y-17918776D01*
X48550299Y-18646086D01*
X48156340Y-18252127D01*
X48398776Y-17221771D02*
X48338167Y-17161162D01*
X48247253Y-17130857D01*
X48186644Y-17130857D01*
X48095731Y-17161162D01*
X47944208Y-17252076D01*
X47792685Y-17403599D01*
X47701771Y-17555121D01*
X47671467Y-17646035D01*
X47671467Y-17706644D01*
X47701771Y-17797558D01*
X47762380Y-17858167D01*
X47853294Y-17888472D01*
X47913903Y-17888472D01*
X48004817Y-17858167D01*
X48156340Y-17767253D01*
X48307863Y-17615731D01*
X48398776Y-17464208D01*
X48429081Y-17373294D01*
X48429081Y-17312685D01*
X48398776Y-17221771D01*
X49126086Y-21761873D02*
X49762482Y-21125477D01*
X49610959Y-20973954D01*
X49489741Y-20913345D01*
X49368523Y-20913345D01*
X49277609Y-20943650D01*
X49126086Y-21034563D01*
X49035172Y-21125477D01*
X48944259Y-21277000D01*
X48913954Y-21367914D01*
X48913954Y-21489132D01*
X48974563Y-21610350D01*
X49126086Y-21761873D01*
X48156340Y-20792127D02*
X48519995Y-21155782D01*
X48338167Y-20973954D02*
X48974563Y-20337558D01*
X48944259Y-20489081D01*
X48944259Y-20610299D01*
X48974563Y-20701213D01*
X47853294Y-20489081D02*
X47732076Y-20367863D01*
X47701771Y-20276949D01*
X47701771Y-20216340D01*
X47732076Y-20064817D01*
X47822989Y-19913294D01*
X48065426Y-19670857D01*
X48156340Y-19640553D01*
X48216949Y-19640553D01*
X48307863Y-19670857D01*
X48429081Y-19792076D01*
X48459386Y-19882989D01*
X48459386Y-19943599D01*
X48429081Y-20034512D01*
X48277558Y-20186035D01*
X48186644Y-20216340D01*
X48126035Y-20216340D01*
X48035121Y-20186035D01*
X47913903Y-20064817D01*
X47883599Y-19973903D01*
X47883599Y-19913294D01*
X47913903Y-19822380D01*
X49126086Y-24301873D02*
X49762482Y-23665477D01*
X49610959Y-23513954D01*
X49489741Y-23453345D01*
X49368523Y-23453345D01*
X49277609Y-23483650D01*
X49126086Y-23574563D01*
X49035172Y-23665477D01*
X48944259Y-23817000D01*
X48913954Y-23907914D01*
X48913954Y-24029132D01*
X48974563Y-24150350D01*
X49126086Y-24301873D01*
X48156340Y-23332127D02*
X48519995Y-23695782D01*
X48338167Y-23513954D02*
X48974563Y-22877558D01*
X48944259Y-23029081D01*
X48944259Y-23150299D01*
X48974563Y-23241213D01*
X48156340Y-22604817D02*
X48247253Y-22635121D01*
X48307863Y-22635121D01*
X48398776Y-22604817D01*
X48429081Y-22574512D01*
X48459386Y-22483599D01*
X48459386Y-22422989D01*
X48429081Y-22332076D01*
X48307863Y-22210857D01*
X48216949Y-22180553D01*
X48156340Y-22180553D01*
X48065426Y-22210857D01*
X48035121Y-22241162D01*
X48004817Y-22332076D01*
X48004817Y-22392685D01*
X48035121Y-22483599D01*
X48156340Y-22604817D01*
X48186644Y-22695731D01*
X48186644Y-22756340D01*
X48156340Y-22847253D01*
X48035121Y-22968472D01*
X47944208Y-22998776D01*
X47883599Y-22998776D01*
X47792685Y-22968472D01*
X47671467Y-22847253D01*
X47641162Y-22756340D01*
X47641162Y-22695731D01*
X47671467Y-22604817D01*
X47792685Y-22483599D01*
X47883599Y-22453294D01*
X47944208Y-22453294D01*
X48035121Y-22483599D01*
X49126086Y-26841873D02*
X49762482Y-26205477D01*
X49610959Y-26053954D01*
X49489741Y-25993345D01*
X49368523Y-25993345D01*
X49277609Y-26023650D01*
X49126086Y-26114563D01*
X49035172Y-26205477D01*
X48944259Y-26357000D01*
X48913954Y-26447914D01*
X48913954Y-26569132D01*
X48974563Y-26690350D01*
X49126086Y-26841873D01*
X48156340Y-25872127D02*
X48519995Y-26235782D01*
X48338167Y-26053954D02*
X48974563Y-25417558D01*
X48944259Y-25569081D01*
X48944259Y-25690299D01*
X48974563Y-25781213D01*
X48580604Y-25023599D02*
X48156340Y-24599334D01*
X47792685Y-25508472D01*
X49126086Y-29381873D02*
X49762482Y-28745477D01*
X49610959Y-28593954D01*
X49489741Y-28533345D01*
X49368523Y-28533345D01*
X49277609Y-28563650D01*
X49126086Y-28654563D01*
X49035172Y-28745477D01*
X48944259Y-28897000D01*
X48913954Y-28987914D01*
X48913954Y-29109132D01*
X48974563Y-29230350D01*
X49126086Y-29381873D01*
X48156340Y-28412127D02*
X48519995Y-28775782D01*
X48338167Y-28593954D02*
X48974563Y-27957558D01*
X48944259Y-28109081D01*
X48944259Y-28230299D01*
X48974563Y-28321213D01*
X48247253Y-27230248D02*
X48368472Y-27351467D01*
X48398776Y-27442380D01*
X48398776Y-27502989D01*
X48368472Y-27654512D01*
X48277558Y-27806035D01*
X48035121Y-28048472D01*
X47944208Y-28078776D01*
X47883599Y-28078776D01*
X47792685Y-28048472D01*
X47671467Y-27927253D01*
X47641162Y-27836340D01*
X47641162Y-27775731D01*
X47671467Y-27684817D01*
X47822989Y-27533294D01*
X47913903Y-27502989D01*
X47974512Y-27502989D01*
X48065426Y-27533294D01*
X48186644Y-27654512D01*
X48216949Y-27745426D01*
X48216949Y-27806035D01*
X48186644Y-27896949D01*
X49126086Y-31921873D02*
X49762482Y-31285477D01*
X49610959Y-31133954D01*
X49489741Y-31073345D01*
X49368523Y-31073345D01*
X49277609Y-31103650D01*
X49126086Y-31194563D01*
X49035172Y-31285477D01*
X48944259Y-31437000D01*
X48913954Y-31527914D01*
X48913954Y-31649132D01*
X48974563Y-31770350D01*
X49126086Y-31921873D01*
X48156340Y-30952127D02*
X48519995Y-31315782D01*
X48338167Y-31133954D02*
X48974563Y-30497558D01*
X48944259Y-30649081D01*
X48944259Y-30770299D01*
X48974563Y-30861213D01*
X48216949Y-29739944D02*
X48519995Y-30042989D01*
X48247253Y-30376340D01*
X48247253Y-30315731D01*
X48216949Y-30224817D01*
X48065426Y-30073294D01*
X47974512Y-30042989D01*
X47913903Y-30042989D01*
X47822989Y-30073294D01*
X47671467Y-30224817D01*
X47641162Y-30315731D01*
X47641162Y-30376340D01*
X47671467Y-30467253D01*
X47822989Y-30618776D01*
X47913903Y-30649081D01*
X47974512Y-30649081D01*
X49126086Y-34461873D02*
X49762482Y-33825477D01*
X49610959Y-33673954D01*
X49489741Y-33613345D01*
X49368523Y-33613345D01*
X49277609Y-33643650D01*
X49126086Y-33734563D01*
X49035172Y-33825477D01*
X48944259Y-33977000D01*
X48913954Y-34067914D01*
X48913954Y-34189132D01*
X48974563Y-34310350D01*
X49126086Y-34461873D01*
X48156340Y-33492127D02*
X48519995Y-33855782D01*
X48338167Y-33673954D02*
X48974563Y-33037558D01*
X48944259Y-33189081D01*
X48944259Y-33310299D01*
X48974563Y-33401213D01*
X48035121Y-32522380D02*
X47610857Y-32946644D01*
X48429081Y-32431467D02*
X48126035Y-33037558D01*
X47732076Y-32643599D01*
X48552513Y-38410323D02*
X49118198Y-37844638D01*
X48983511Y-37709951D01*
X48875761Y-37656076D01*
X48768012Y-37656076D01*
X48687200Y-37683013D01*
X48552513Y-37763826D01*
X48471700Y-37844638D01*
X48390888Y-37979325D01*
X48363951Y-38060137D01*
X48363951Y-38167887D01*
X48417826Y-38275636D01*
X48552513Y-38410323D01*
X47690516Y-37548326D02*
X48013765Y-37871575D01*
X47852140Y-37709951D02*
X48417826Y-37144265D01*
X48390888Y-37278952D01*
X48390888Y-37386702D01*
X48417826Y-37467514D01*
X48067639Y-36794079D02*
X47717453Y-36443893D01*
X47690516Y-36847954D01*
X47609703Y-36767142D01*
X47528891Y-36740204D01*
X47475016Y-36740204D01*
X47394204Y-36767142D01*
X47259517Y-36901829D01*
X47232580Y-36982641D01*
X47232580Y-37036516D01*
X47259517Y-37117328D01*
X47421142Y-37278952D01*
X47501954Y-37305890D01*
X47555829Y-37305890D01*
X46120262Y-38194824D02*
X45850888Y-37925450D01*
X46012513Y-38410323D02*
X46389636Y-37656076D01*
X45635389Y-38033200D01*
X45150516Y-37548326D02*
X45473765Y-37871575D01*
X45312140Y-37709951D02*
X45877826Y-37144265D01*
X45850888Y-37278952D01*
X45850888Y-37386702D01*
X45877826Y-37467514D01*
X45042766Y-36686329D02*
X44665642Y-37063453D01*
X45392952Y-36605517D02*
X45123578Y-37144265D01*
X44773392Y-36794079D01*
X40965904Y-36874476D02*
X40165904Y-36874476D01*
X40165904Y-37179238D01*
X40204000Y-37255428D01*
X40242095Y-37293523D01*
X40318285Y-37331619D01*
X40432571Y-37331619D01*
X40508761Y-37293523D01*
X40546857Y-37255428D01*
X40584952Y-37179238D01*
X40584952Y-36874476D01*
X40965904Y-37674476D02*
X40432571Y-37674476D01*
X40584952Y-37674476D02*
X40508761Y-37712571D01*
X40470666Y-37750666D01*
X40432571Y-37826857D01*
X40432571Y-37903047D01*
X40432571Y-38512571D02*
X41080190Y-38512571D01*
X41156380Y-38474476D01*
X41194476Y-38436380D01*
X41232571Y-38360190D01*
X41232571Y-38245904D01*
X41194476Y-38169714D01*
X40927809Y-38512571D02*
X40965904Y-38436380D01*
X40965904Y-38284000D01*
X40927809Y-38207809D01*
X40889714Y-38169714D01*
X40813523Y-38131619D01*
X40584952Y-38131619D01*
X40508761Y-38169714D01*
X40470666Y-38207809D01*
X40432571Y-38284000D01*
X40432571Y-38436380D01*
X40470666Y-38512571D01*
X38426000Y-37293523D02*
X38387904Y-37217333D01*
X38387904Y-37103047D01*
X38426000Y-36988761D01*
X38502190Y-36912571D01*
X38578380Y-36874476D01*
X38730761Y-36836380D01*
X38845047Y-36836380D01*
X38997428Y-36874476D01*
X39073619Y-36912571D01*
X39149809Y-36988761D01*
X39187904Y-37103047D01*
X39187904Y-37179238D01*
X39149809Y-37293523D01*
X39111714Y-37331619D01*
X38845047Y-37331619D01*
X38845047Y-37179238D01*
X39187904Y-37674476D02*
X38387904Y-37674476D01*
X39187904Y-38131619D01*
X38387904Y-38131619D01*
X39187904Y-38512571D02*
X38387904Y-38512571D01*
X38387904Y-38703047D01*
X38426000Y-38817333D01*
X38502190Y-38893523D01*
X38578380Y-38931619D01*
X38730761Y-38969714D01*
X38845047Y-38969714D01*
X38997428Y-38931619D01*
X39073619Y-38893523D01*
X39149809Y-38817333D01*
X39187904Y-38703047D01*
X39187904Y-38512571D01*
X36609904Y-36798285D02*
X36609904Y-37293523D01*
X36914666Y-37026857D01*
X36914666Y-37141142D01*
X36952761Y-37217333D01*
X36990857Y-37255428D01*
X37067047Y-37293523D01*
X37257523Y-37293523D01*
X37333714Y-37255428D01*
X37371809Y-37217333D01*
X37409904Y-37141142D01*
X37409904Y-36912571D01*
X37371809Y-36836380D01*
X37333714Y-36798285D01*
X37333714Y-37636380D02*
X37371809Y-37674476D01*
X37409904Y-37636380D01*
X37371809Y-37598285D01*
X37333714Y-37636380D01*
X37409904Y-37636380D01*
X36609904Y-37941142D02*
X36609904Y-38436380D01*
X36914666Y-38169714D01*
X36914666Y-38284000D01*
X36952761Y-38360190D01*
X36990857Y-38398285D01*
X37067047Y-38436380D01*
X37257523Y-38436380D01*
X37333714Y-38398285D01*
X37371809Y-38360190D01*
X37409904Y-38284000D01*
X37409904Y-38055428D01*
X37371809Y-37979238D01*
X37333714Y-37941142D01*
X36876571Y-38703047D02*
X37409904Y-38893523D01*
X36876571Y-39084000D01*
X32274421Y-36390018D02*
X32651544Y-37144265D01*
X31897297Y-36767142D01*
X32274421Y-37521389D02*
X31708735Y-36955703D01*
X31924234Y-37171203D02*
X31843422Y-37198140D01*
X31735673Y-37305890D01*
X31708735Y-37386702D01*
X31708735Y-37440577D01*
X31735673Y-37521389D01*
X31897297Y-37683013D01*
X31978109Y-37709951D01*
X32031984Y-37709951D01*
X32112796Y-37683013D01*
X32220546Y-37575264D01*
X32247483Y-37494452D01*
X31520173Y-38275636D02*
X31223862Y-37979325D01*
X31196925Y-37898513D01*
X31223862Y-37817700D01*
X31331612Y-37709951D01*
X31412424Y-37683013D01*
X31493236Y-38248699D02*
X31574048Y-38221761D01*
X31708735Y-38087074D01*
X31735673Y-38006262D01*
X31708735Y-37925450D01*
X31654860Y-37871575D01*
X31574048Y-37844638D01*
X31493236Y-37871575D01*
X31358549Y-38006262D01*
X31277737Y-38033200D01*
X30954488Y-38087074D02*
X30738989Y-38302574D01*
X30685114Y-37979325D02*
X31169987Y-38464198D01*
X31196925Y-38545010D01*
X31169987Y-38625822D01*
X31116112Y-38679697D01*
X30219294Y-37036516D02*
X29653608Y-36470830D01*
X29518921Y-36605517D01*
X29465047Y-36713267D01*
X29465047Y-36821016D01*
X29491984Y-36901829D01*
X29572796Y-37036516D01*
X29653608Y-37117328D01*
X29788296Y-37198140D01*
X29869108Y-37225078D01*
X29976857Y-37225078D01*
X30084607Y-37171203D01*
X30219294Y-37036516D01*
X29357297Y-37898513D02*
X29680546Y-37575264D01*
X29518921Y-37736888D02*
X28953236Y-37171203D01*
X29087923Y-37198140D01*
X29195673Y-37198140D01*
X29276485Y-37171203D01*
X28629987Y-37602201D02*
X28576112Y-37602201D01*
X28495300Y-37629139D01*
X28360613Y-37763826D01*
X28333676Y-37844638D01*
X28333676Y-37898513D01*
X28360613Y-37979325D01*
X28414488Y-38033200D01*
X28522238Y-38087074D01*
X29168735Y-38087074D01*
X28818549Y-38437261D01*
X29889446Y-4976340D02*
X29253050Y-4339944D01*
X29101527Y-4491467D01*
X29040918Y-4612685D01*
X29040918Y-4733903D01*
X29071223Y-4824817D01*
X29162136Y-4976340D01*
X29253050Y-5067253D01*
X29404573Y-5158167D01*
X29495487Y-5188472D01*
X29616705Y-5188472D01*
X29737923Y-5127863D01*
X29889446Y-4976340D01*
X28495436Y-5097558D02*
X28434827Y-5158167D01*
X28404522Y-5249081D01*
X28404522Y-5309690D01*
X28434827Y-5400604D01*
X28525740Y-5552127D01*
X28677263Y-5703650D01*
X28828786Y-5794563D01*
X28919700Y-5824868D01*
X28980309Y-5824868D01*
X29071223Y-5794563D01*
X29131832Y-5733954D01*
X29162136Y-5643040D01*
X29162136Y-5582431D01*
X29131832Y-5491518D01*
X29040918Y-5339995D01*
X28889395Y-5188472D01*
X28737872Y-5097558D01*
X28646959Y-5067253D01*
X28586349Y-5067253D01*
X28495436Y-5097558D01*
X29889446Y-7516340D02*
X29253050Y-6879944D01*
X29101527Y-7031467D01*
X29040918Y-7152685D01*
X29040918Y-7273903D01*
X29071223Y-7364817D01*
X29162136Y-7516340D01*
X29253050Y-7607253D01*
X29404573Y-7698167D01*
X29495487Y-7728472D01*
X29616705Y-7728472D01*
X29737923Y-7667863D01*
X29889446Y-7516340D01*
X28919700Y-8486086D02*
X29283355Y-8122431D01*
X29101527Y-8304259D02*
X28465131Y-7667863D01*
X28616654Y-7698167D01*
X28737872Y-7698167D01*
X28828786Y-7667863D01*
X29874294Y-30327516D02*
X29308608Y-29761830D01*
X29173921Y-29896517D01*
X29120047Y-30004267D01*
X29120047Y-30112016D01*
X29146984Y-30192829D01*
X29227796Y-30327516D01*
X29308608Y-30408328D01*
X29443296Y-30489140D01*
X29524108Y-30516078D01*
X29631857Y-30516078D01*
X29739607Y-30462203D01*
X29874294Y-30327516D01*
X29012297Y-31189513D02*
X29335546Y-30866264D01*
X29173921Y-31027888D02*
X28608236Y-30462203D01*
X28742923Y-30489140D01*
X28850673Y-30489140D01*
X28931485Y-30462203D01*
X28096425Y-30974013D02*
X28042551Y-31027888D01*
X28015613Y-31108700D01*
X28015613Y-31162575D01*
X28042551Y-31243387D01*
X28123363Y-31378074D01*
X28258050Y-31512761D01*
X28392737Y-31593574D01*
X28473549Y-31620511D01*
X28527424Y-31620511D01*
X28608236Y-31593574D01*
X28662111Y-31539699D01*
X28689048Y-31458887D01*
X28689048Y-31405012D01*
X28662111Y-31324200D01*
X28581299Y-31189513D01*
X28446612Y-31054826D01*
X28311925Y-30974013D01*
X28231112Y-30947076D01*
X28177238Y-30947076D01*
X28096425Y-30974013D01*
X29889446Y-32916340D02*
X29253050Y-32279944D01*
X29101527Y-32431467D01*
X29040918Y-32552685D01*
X29040918Y-32673903D01*
X29071223Y-32764817D01*
X29162136Y-32916340D01*
X29253050Y-33007253D01*
X29404573Y-33098167D01*
X29495487Y-33128472D01*
X29616705Y-33128472D01*
X29737923Y-33067863D01*
X29889446Y-32916340D01*
X28919700Y-33886086D02*
X29283355Y-33522431D01*
X29101527Y-33704259D02*
X28465131Y-33067863D01*
X28616654Y-33098167D01*
X28737872Y-33098167D01*
X28828786Y-33067863D01*
X28313608Y-34492178D02*
X28677263Y-34128523D01*
X28495436Y-34310350D02*
X27859040Y-33673954D01*
X28010562Y-33704259D01*
X28131781Y-33704259D01*
X28222695Y-33673954D01*
X29889446Y-27836340D02*
X29253050Y-27199944D01*
X29101527Y-27351467D01*
X29040918Y-27472685D01*
X29040918Y-27593903D01*
X29071223Y-27684817D01*
X29162136Y-27836340D01*
X29253050Y-27927253D01*
X29404573Y-28018167D01*
X29495487Y-28048472D01*
X29616705Y-28048472D01*
X29737923Y-27987863D01*
X29889446Y-27836340D01*
X29222746Y-28503040D02*
X29101527Y-28624259D01*
X29010613Y-28654563D01*
X28950004Y-28654563D01*
X28798481Y-28624259D01*
X28646959Y-28533345D01*
X28404522Y-28290908D01*
X28374217Y-28199995D01*
X28374217Y-28139386D01*
X28404522Y-28048472D01*
X28525740Y-27927253D01*
X28616654Y-27896949D01*
X28677263Y-27896949D01*
X28768177Y-27927253D01*
X28919700Y-28078776D01*
X28950004Y-28169690D01*
X28950004Y-28230299D01*
X28919700Y-28321213D01*
X28798481Y-28442431D01*
X28707568Y-28472736D01*
X28646959Y-28472736D01*
X28556045Y-28442431D01*
X29889446Y-25296340D02*
X29253050Y-24659944D01*
X29101527Y-24811467D01*
X29040918Y-24932685D01*
X29040918Y-25053903D01*
X29071223Y-25144817D01*
X29162136Y-25296340D01*
X29253050Y-25387253D01*
X29404573Y-25478167D01*
X29495487Y-25508472D01*
X29616705Y-25508472D01*
X29737923Y-25447863D01*
X29889446Y-25296340D01*
X28798481Y-25659995D02*
X28828786Y-25569081D01*
X28828786Y-25508472D01*
X28798481Y-25417558D01*
X28768177Y-25387253D01*
X28677263Y-25356949D01*
X28616654Y-25356949D01*
X28525740Y-25387253D01*
X28404522Y-25508472D01*
X28374217Y-25599386D01*
X28374217Y-25659995D01*
X28404522Y-25750908D01*
X28434827Y-25781213D01*
X28525740Y-25811518D01*
X28586349Y-25811518D01*
X28677263Y-25781213D01*
X28798481Y-25659995D01*
X28889395Y-25629690D01*
X28950004Y-25629690D01*
X29040918Y-25659995D01*
X29162136Y-25781213D01*
X29192441Y-25872127D01*
X29192441Y-25932736D01*
X29162136Y-26023650D01*
X29040918Y-26144868D01*
X28950004Y-26175172D01*
X28889395Y-26175172D01*
X28798481Y-26144868D01*
X28677263Y-26023650D01*
X28646959Y-25932736D01*
X28646959Y-25872127D01*
X28677263Y-25781213D01*
X29889446Y-22756340D02*
X29253050Y-22119944D01*
X29101527Y-22271467D01*
X29040918Y-22392685D01*
X29040918Y-22513903D01*
X29071223Y-22604817D01*
X29162136Y-22756340D01*
X29253050Y-22847253D01*
X29404573Y-22938167D01*
X29495487Y-22968472D01*
X29616705Y-22968472D01*
X29737923Y-22907863D01*
X29889446Y-22756340D01*
X28677263Y-22695731D02*
X28252999Y-23119995D01*
X29162136Y-23483650D01*
X29889446Y-20216340D02*
X29253050Y-19579944D01*
X29101527Y-19731467D01*
X29040918Y-19852685D01*
X29040918Y-19973903D01*
X29071223Y-20064817D01*
X29162136Y-20216340D01*
X29253050Y-20307253D01*
X29404573Y-20398167D01*
X29495487Y-20428472D01*
X29616705Y-20428472D01*
X29737923Y-20367863D01*
X29889446Y-20216340D01*
X28343913Y-20489081D02*
X28465131Y-20367863D01*
X28556045Y-20337558D01*
X28616654Y-20337558D01*
X28768177Y-20367863D01*
X28919700Y-20458776D01*
X29162136Y-20701213D01*
X29192441Y-20792127D01*
X29192441Y-20852736D01*
X29162136Y-20943650D01*
X29040918Y-21064868D01*
X28950004Y-21095172D01*
X28889395Y-21095172D01*
X28798481Y-21064868D01*
X28646959Y-20913345D01*
X28616654Y-20822431D01*
X28616654Y-20761822D01*
X28646959Y-20670908D01*
X28768177Y-20549690D01*
X28859091Y-20519386D01*
X28919700Y-20519386D01*
X29010613Y-20549690D01*
X29889446Y-17676340D02*
X29253050Y-17039944D01*
X29101527Y-17191467D01*
X29040918Y-17312685D01*
X29040918Y-17433903D01*
X29071223Y-17524817D01*
X29162136Y-17676340D01*
X29253050Y-17767253D01*
X29404573Y-17858167D01*
X29495487Y-17888472D01*
X29616705Y-17888472D01*
X29737923Y-17827863D01*
X29889446Y-17676340D01*
X28313608Y-17979386D02*
X28616654Y-17676340D01*
X28950004Y-17949081D01*
X28889395Y-17949081D01*
X28798481Y-17979386D01*
X28646959Y-18130908D01*
X28616654Y-18221822D01*
X28616654Y-18282431D01*
X28646959Y-18373345D01*
X28798481Y-18524868D01*
X28889395Y-18555172D01*
X28950004Y-18555172D01*
X29040918Y-18524868D01*
X29192441Y-18373345D01*
X29222746Y-18282431D01*
X29222746Y-18221822D01*
X29889446Y-15136340D02*
X29253050Y-14499944D01*
X29101527Y-14651467D01*
X29040918Y-14772685D01*
X29040918Y-14893903D01*
X29071223Y-14984817D01*
X29162136Y-15136340D01*
X29253050Y-15227253D01*
X29404573Y-15318167D01*
X29495487Y-15348472D01*
X29616705Y-15348472D01*
X29737923Y-15287863D01*
X29889446Y-15136340D01*
X28556045Y-15621213D02*
X28980309Y-16045477D01*
X28465131Y-15227253D02*
X29071223Y-15530299D01*
X28677263Y-15924259D01*
X29889446Y-12596340D02*
X29253050Y-11959944D01*
X29101527Y-12111467D01*
X29040918Y-12232685D01*
X29040918Y-12353903D01*
X29071223Y-12444817D01*
X29162136Y-12596340D01*
X29253050Y-12687253D01*
X29404573Y-12778167D01*
X29495487Y-12808472D01*
X29616705Y-12808472D01*
X29737923Y-12747863D01*
X29889446Y-12596340D01*
X28677263Y-12535731D02*
X28283304Y-12929690D01*
X28737872Y-12959995D01*
X28646959Y-13050908D01*
X28616654Y-13141822D01*
X28616654Y-13202431D01*
X28646959Y-13293345D01*
X28798481Y-13444868D01*
X28889395Y-13475172D01*
X28950004Y-13475172D01*
X29040918Y-13444868D01*
X29222746Y-13263040D01*
X29253050Y-13172127D01*
X29253050Y-13111518D01*
X29889446Y-10056340D02*
X29253050Y-9419944D01*
X29101527Y-9571467D01*
X29040918Y-9692685D01*
X29040918Y-9813903D01*
X29071223Y-9904817D01*
X29162136Y-10056340D01*
X29253050Y-10147253D01*
X29404573Y-10238167D01*
X29495487Y-10268472D01*
X29616705Y-10268472D01*
X29737923Y-10207863D01*
X29889446Y-10056340D01*
X28707568Y-10086644D02*
X28646959Y-10086644D01*
X28556045Y-10116949D01*
X28404522Y-10268472D01*
X28374217Y-10359386D01*
X28374217Y-10419995D01*
X28404522Y-10510908D01*
X28465131Y-10571518D01*
X28586349Y-10632127D01*
X29313659Y-10632127D01*
X28919700Y-11026086D01*
X42319761Y-1992380D02*
X41986428Y-2992380D01*
X41653095Y-1992380D01*
X41319761Y-2992380D02*
X41319761Y-2325714D01*
X41319761Y-1992380D02*
X41367380Y-2040000D01*
X41319761Y-2087619D01*
X41272142Y-2040000D01*
X41319761Y-1992380D01*
X41319761Y-2087619D01*
X40843571Y-2325714D02*
X40843571Y-2992380D01*
X40843571Y-2420952D02*
X40795952Y-2373333D01*
X40700714Y-2325714D01*
X40557857Y-2325714D01*
X40462619Y-2373333D01*
X40415000Y-2468571D01*
X40415000Y-2992380D01*
X34800714Y-2040000D02*
X34895952Y-1992380D01*
X35038809Y-1992380D01*
X35181666Y-2040000D01*
X35276904Y-2135238D01*
X35324523Y-2230476D01*
X35372142Y-2420952D01*
X35372142Y-2563809D01*
X35324523Y-2754285D01*
X35276904Y-2849523D01*
X35181666Y-2944761D01*
X35038809Y-2992380D01*
X34943571Y-2992380D01*
X34800714Y-2944761D01*
X34753095Y-2897142D01*
X34753095Y-2563809D01*
X34943571Y-2563809D01*
X34324523Y-2992380D02*
X34324523Y-1992380D01*
X33753095Y-2992380D01*
X33753095Y-1992380D01*
X33276904Y-2992380D02*
X33276904Y-1992380D01*
X33038809Y-1992380D01*
X32895952Y-2040000D01*
X32800714Y-2135238D01*
X32753095Y-2230476D01*
X32705476Y-2420952D01*
X32705476Y-2563809D01*
X32753095Y-2754285D01*
X32800714Y-2849523D01*
X32895952Y-2944761D01*
X33038809Y-2992380D01*
X33276904Y-2992380D01*
X26434240Y-4408462D02*
X26097522Y-4745179D01*
X26703614Y-4543149D02*
X25760805Y-4071744D01*
X26232209Y-5014553D01*
X25962835Y-5283927D02*
X25828148Y-5418614D01*
X25727133Y-5452286D01*
X25659789Y-5452286D01*
X25491431Y-5418614D01*
X25323072Y-5317599D01*
X25053698Y-5048225D01*
X25020026Y-4947210D01*
X25020026Y-4879866D01*
X25053698Y-4778851D01*
X25188385Y-4644164D01*
X25289400Y-4610492D01*
X25356744Y-4610492D01*
X25457759Y-4644164D01*
X25626118Y-4812523D01*
X25659789Y-4913538D01*
X25659789Y-4980881D01*
X25626118Y-5081897D01*
X25491431Y-5216584D01*
X25390415Y-5250255D01*
X25323072Y-5250255D01*
X25222057Y-5216584D01*
X24077217Y-5687988D02*
X25592446Y-5991034D01*
X24582293Y-6664469D02*
X23875187Y-5957362D01*
X23706828Y-6125721D01*
X23639484Y-6260408D01*
X23639484Y-6395095D01*
X23673156Y-6496110D01*
X23774171Y-6664469D01*
X23875187Y-6765484D01*
X24043545Y-6866499D01*
X24144561Y-6900171D01*
X24279248Y-6900171D01*
X24413935Y-6832828D01*
X24582293Y-6664469D01*
X23269095Y-6698141D02*
X23201752Y-6698141D01*
X23100736Y-6731812D01*
X22932378Y-6900171D01*
X22898706Y-7001186D01*
X22898706Y-7068530D01*
X22932378Y-7169545D01*
X22999721Y-7236889D01*
X23134408Y-7304232D01*
X23942530Y-7304232D01*
X23504797Y-7741965D01*
X22561988Y-7270560D02*
X22124256Y-7708293D01*
X22629332Y-7741965D01*
X22528317Y-7842980D01*
X22494645Y-7943995D01*
X22494645Y-8011339D01*
X22528317Y-8112354D01*
X22696675Y-8280713D01*
X22797691Y-8314385D01*
X22865034Y-8314385D01*
X22966049Y-8280713D01*
X23168080Y-8078682D01*
X23201752Y-7977667D01*
X23201752Y-7910324D01*
X23894240Y-4408462D02*
X23557522Y-4745179D01*
X24163614Y-4543149D02*
X23220805Y-4071744D01*
X23692209Y-5014553D01*
X22951431Y-4947210D02*
X22985102Y-4846194D01*
X22985102Y-4778851D01*
X22951431Y-4677836D01*
X22917759Y-4644164D01*
X22816744Y-4610492D01*
X22749400Y-4610492D01*
X22648385Y-4644164D01*
X22513698Y-4778851D01*
X22480026Y-4879866D01*
X22480026Y-4947210D01*
X22513698Y-5048225D01*
X22547370Y-5081897D01*
X22648385Y-5115568D01*
X22715728Y-5115568D01*
X22816744Y-5081897D01*
X22951431Y-4947210D01*
X23052446Y-4913538D01*
X23119789Y-4913538D01*
X23220805Y-4947210D01*
X23355492Y-5081897D01*
X23389163Y-5182912D01*
X23389163Y-5250255D01*
X23355492Y-5351271D01*
X23220805Y-5485958D01*
X23119789Y-5519629D01*
X23052446Y-5519629D01*
X22951431Y-5485958D01*
X22816744Y-5351271D01*
X22783072Y-5250255D01*
X22783072Y-5182912D01*
X22816744Y-5081897D01*
X21537217Y-5687988D02*
X23052446Y-5991034D01*
X22042293Y-6664469D02*
X21335187Y-5957362D01*
X21166828Y-6125721D01*
X21099484Y-6260408D01*
X21099484Y-6395095D01*
X21133156Y-6496110D01*
X21234171Y-6664469D01*
X21335187Y-6765484D01*
X21503545Y-6866499D01*
X21604561Y-6900171D01*
X21739248Y-6900171D01*
X21873935Y-6832828D01*
X22042293Y-6664469D01*
X20729095Y-6698141D02*
X20661752Y-6698141D01*
X20560736Y-6731812D01*
X20392378Y-6900171D01*
X20358706Y-7001186D01*
X20358706Y-7068530D01*
X20392378Y-7169545D01*
X20459721Y-7236889D01*
X20594408Y-7304232D01*
X21402530Y-7304232D01*
X20964797Y-7741965D01*
X20055660Y-7371576D02*
X19988317Y-7371576D01*
X19887301Y-7405247D01*
X19718943Y-7573606D01*
X19685271Y-7674621D01*
X19685271Y-7741965D01*
X19718943Y-7842980D01*
X19786286Y-7910324D01*
X19920973Y-7977667D01*
X20729095Y-7977667D01*
X20291362Y-8415400D01*
X21522599Y-4576820D02*
X21455255Y-4711507D01*
X21286896Y-4879866D01*
X21185881Y-4913538D01*
X21118537Y-4913538D01*
X21017522Y-4879866D01*
X20950179Y-4812523D01*
X20916507Y-4711507D01*
X20916507Y-4644164D01*
X20950179Y-4543149D01*
X21051194Y-4374790D01*
X21084866Y-4273775D01*
X21084866Y-4206431D01*
X21051194Y-4105416D01*
X20983850Y-4038072D01*
X20882835Y-4004400D01*
X20815492Y-4004400D01*
X20714476Y-4038072D01*
X20546118Y-4206431D01*
X20478774Y-4341118D01*
X20377759Y-5654316D02*
X20445102Y-5654316D01*
X20579789Y-5586973D01*
X20647133Y-5519629D01*
X20714476Y-5384942D01*
X20714476Y-5250255D01*
X20680805Y-5149240D01*
X20579789Y-4980881D01*
X20478774Y-4879866D01*
X20310415Y-4778851D01*
X20209400Y-4745179D01*
X20074713Y-4745179D01*
X19940026Y-4812523D01*
X19872683Y-4879866D01*
X19805339Y-5014553D01*
X19805339Y-5081897D01*
X19805339Y-6361423D02*
X20142057Y-6024706D01*
X19434950Y-5317599D01*
X18982599Y-4576820D02*
X18915255Y-4711507D01*
X18746896Y-4879866D01*
X18645881Y-4913538D01*
X18578537Y-4913538D01*
X18477522Y-4879866D01*
X18410179Y-4812523D01*
X18376507Y-4711507D01*
X18376507Y-4644164D01*
X18410179Y-4543149D01*
X18511194Y-4374790D01*
X18544866Y-4273775D01*
X18544866Y-4206431D01*
X18511194Y-4105416D01*
X18443850Y-4038072D01*
X18342835Y-4004400D01*
X18275492Y-4004400D01*
X18174476Y-4038072D01*
X18006118Y-4206431D01*
X17938774Y-4341118D01*
X18309163Y-5317599D02*
X17602057Y-4610492D01*
X17433698Y-4778851D01*
X17366354Y-4913538D01*
X17366354Y-5048225D01*
X17400026Y-5149240D01*
X17501041Y-5317599D01*
X17602057Y-5418614D01*
X17770415Y-5519629D01*
X17871431Y-5553301D01*
X18006118Y-5553301D01*
X18140805Y-5485958D01*
X18309163Y-5317599D01*
X17433698Y-5789003D02*
X17096980Y-6125721D01*
X17703072Y-5923690D02*
X16760263Y-5452286D01*
X17231667Y-6395095D01*
X16442599Y-4576820D02*
X16375255Y-4711507D01*
X16206896Y-4879866D01*
X16105881Y-4913538D01*
X16038537Y-4913538D01*
X15937522Y-4879866D01*
X15870179Y-4812523D01*
X15836507Y-4711507D01*
X15836507Y-4644164D01*
X15870179Y-4543149D01*
X15971194Y-4374790D01*
X16004866Y-4273775D01*
X16004866Y-4206431D01*
X15971194Y-4105416D01*
X15903850Y-4038072D01*
X15802835Y-4004400D01*
X15735492Y-4004400D01*
X15634476Y-4038072D01*
X15466118Y-4206431D01*
X15398774Y-4341118D01*
X15297759Y-5654316D02*
X15365102Y-5654316D01*
X15499789Y-5586973D01*
X15567133Y-5519629D01*
X15634476Y-5384942D01*
X15634476Y-5250255D01*
X15600805Y-5149240D01*
X15499789Y-4980881D01*
X15398774Y-4879866D01*
X15230415Y-4778851D01*
X15129400Y-4745179D01*
X14994713Y-4745179D01*
X14860026Y-4812523D01*
X14792683Y-4879866D01*
X14725339Y-5014553D01*
X14725339Y-5081897D01*
X15062057Y-6024706D02*
X14354950Y-5317599D01*
X14657996Y-6428767D02*
X14556980Y-5721660D01*
X13950889Y-5721660D02*
X14759011Y-5721660D01*
X13902599Y-4644164D02*
X13195492Y-3937057D01*
X13027133Y-4105416D01*
X12959789Y-4240103D01*
X12959789Y-4374790D01*
X12993461Y-4475805D01*
X13094476Y-4644164D01*
X13195492Y-4745179D01*
X13363850Y-4846194D01*
X13464866Y-4879866D01*
X13599553Y-4879866D01*
X13734240Y-4812523D01*
X13902599Y-4644164D01*
X12825102Y-5721660D02*
X13229163Y-5317599D01*
X13027133Y-5519629D02*
X12320026Y-4812523D01*
X12488385Y-4846194D01*
X12623072Y-4846194D01*
X12724087Y-4812523D01*
X11680263Y-5452286D02*
X11612919Y-5519629D01*
X11579248Y-5620645D01*
X11579248Y-5687988D01*
X11612919Y-5789003D01*
X11713935Y-5957362D01*
X11882293Y-6125721D01*
X12050652Y-6226736D01*
X12151667Y-6260408D01*
X12219011Y-6260408D01*
X12320026Y-6226736D01*
X12387370Y-6159393D01*
X12421041Y-6058377D01*
X12421041Y-5991034D01*
X12387370Y-5890019D01*
X12286354Y-5721660D01*
X12117996Y-5553301D01*
X11949637Y-5452286D01*
X11848622Y-5418614D01*
X11781278Y-5418614D01*
X11680263Y-5452286D01*
X10602767Y-6462438D02*
X12117996Y-6765484D01*
X10636439Y-7775637D02*
X10703782Y-7775637D01*
X10838469Y-7708293D01*
X10905813Y-7640950D01*
X10973156Y-7506263D01*
X10973156Y-7371576D01*
X10939484Y-7270560D01*
X10838469Y-7102202D01*
X10737454Y-7001186D01*
X10569095Y-6900171D01*
X10468080Y-6866499D01*
X10333393Y-6866499D01*
X10198706Y-6933843D01*
X10131362Y-7001186D01*
X10064019Y-7135873D01*
X10064019Y-7203217D01*
X10400736Y-8078682D02*
X10333393Y-8213369D01*
X10165034Y-8381728D01*
X10064019Y-8415400D01*
X9996675Y-8415400D01*
X9895660Y-8381728D01*
X9828317Y-8314385D01*
X9794645Y-8213369D01*
X9794645Y-8146026D01*
X9828317Y-8045011D01*
X9929332Y-7876652D01*
X9963004Y-7775637D01*
X9963004Y-7708293D01*
X9929332Y-7607278D01*
X9861988Y-7539934D01*
X9760973Y-7506263D01*
X9693630Y-7506263D01*
X9592614Y-7539934D01*
X9424256Y-7708293D01*
X9356912Y-7842980D01*
X11362599Y-4644164D02*
X10655492Y-3937057D01*
X10924866Y-4677836D01*
X10184087Y-4408462D01*
X10891194Y-5115568D01*
X9712683Y-4879866D02*
X9577996Y-5014553D01*
X9544324Y-5115568D01*
X9544324Y-5250255D01*
X9645339Y-5418614D01*
X9881041Y-5654316D01*
X10049400Y-5755332D01*
X10184087Y-5755332D01*
X10285102Y-5721660D01*
X10419789Y-5586973D01*
X10453461Y-5485958D01*
X10453461Y-5351271D01*
X10352446Y-5182912D01*
X10116744Y-4947210D01*
X9948385Y-4846194D01*
X9813698Y-4846194D01*
X9712683Y-4879866D01*
X9813698Y-6125721D02*
X9746354Y-6260408D01*
X9577996Y-6428767D01*
X9476980Y-6462438D01*
X9409637Y-6462438D01*
X9308622Y-6428767D01*
X9241278Y-6361423D01*
X9207606Y-6260408D01*
X9207606Y-6193064D01*
X9241278Y-6092049D01*
X9342293Y-5923690D01*
X9375965Y-5822675D01*
X9375965Y-5755332D01*
X9342293Y-5654316D01*
X9274950Y-5586973D01*
X9173935Y-5553301D01*
X9106591Y-5553301D01*
X9005576Y-5586973D01*
X8837217Y-5755332D01*
X8769874Y-5890019D01*
X9140263Y-6866499D02*
X8433156Y-6159393D01*
X8822599Y-4644164D02*
X8115492Y-3937057D01*
X8384866Y-4677836D01*
X7644087Y-4408462D01*
X8351194Y-5115568D01*
X8014476Y-5452286D02*
X7307370Y-4745179D01*
X7677759Y-5721660D02*
X7610415Y-5856347D01*
X7442057Y-6024706D01*
X7341041Y-6058377D01*
X7273698Y-6058377D01*
X7172683Y-6024706D01*
X7105339Y-5957362D01*
X7071667Y-5856347D01*
X7071667Y-5789003D01*
X7105339Y-5687988D01*
X7206354Y-5519629D01*
X7240026Y-5418614D01*
X7240026Y-5351271D01*
X7206354Y-5250255D01*
X7139011Y-5182912D01*
X7037996Y-5149240D01*
X6970652Y-5149240D01*
X6869637Y-5182912D01*
X6701278Y-5351271D01*
X6633935Y-5485958D01*
X6162530Y-5890019D02*
X6027843Y-6024706D01*
X5994171Y-6125721D01*
X5994171Y-6260408D01*
X6095187Y-6428767D01*
X6330889Y-6664469D01*
X6499248Y-6765484D01*
X6633935Y-6765484D01*
X6734950Y-6731812D01*
X6869637Y-6597125D01*
X6903309Y-6496110D01*
X6903309Y-6361423D01*
X6802293Y-6193064D01*
X6566591Y-5957362D01*
X6398232Y-5856347D01*
X6263545Y-5856347D01*
X6162530Y-5890019D01*
D13*
X94615000Y-81280000D02*
X97155000Y-78740000D01*
X2540000Y-81280000D02*
X0Y-78740000D01*
X94615000Y-81280000D02*
X2540000Y-81280000D01*
X97155000Y0D02*
X97155000Y-78740000D01*
X0Y0D02*
X97155000Y0D01*
X0Y0D02*
X0Y-78740000D01*
M02*
