M48
;DRILL file {KiCad 5.0.1-33cea8e~68~ubuntu16.04.1} date Sun 11 Nov 2018 12:10:49 PM PST
;FORMAT={-:-/ absolute / inch / decimal}
FMAT,2
INCH,TZ
T1C0.0130
T2C0.0394
T3C0.0433
T4C0.0984
%
G90
G05
M72
T1
X0.245Y-2.884
X0.59Y-0.48
X0.614Y-1.372
X0.7145Y-1.3735
X0.775Y-1.415
X0.775Y-1.56
X0.7865Y-1.0905
X0.858Y-0.249
X0.966Y-1.408
X1.11Y-1.072
X1.113Y-1.527
X1.375Y-0.15
X1.453Y-0.351
X1.525Y-0.15
X1.606Y-0.11
X2.057Y-2.493
X2.086Y-2.9
X2.239Y-1.329
X2.2427Y-1.127
X2.271Y-2.103
X2.279Y-2.452
X2.462Y-2.074
X2.586Y-0.526
X2.656Y-1.6605
X2.66Y-0.8685
X2.66Y-0.976
X2.662Y-0.5
X2.7Y-1.267
X2.796Y-1.371
X2.819Y-0.908
X2.878Y-1.349
X3.0225Y-2.052
X3.03Y-0.981
X3.06Y-0.533
X3.202Y-1.359
X3.258Y-1.331
X3.453Y-0.5473
X3.55Y-1.32
X3.572Y-0.548
T2
X2.8586Y-0.0986
X3.Y-0.24
X0.2Y-0.425
X0.4Y-0.425
X0.775Y-0.975
X0.975Y-0.975
X2.5836Y-0.0986
X2.725Y-0.24
X2.0336Y-0.0986
X2.175Y-0.24
X3.4086Y-0.0986
X3.55Y-0.24
X0.775Y-0.425
X0.975Y-0.425
X1.725Y-0.1
X1.125Y-0.1
X2.3086Y-0.0986
X2.45Y-0.24
X3.1336Y-0.0986
X3.275Y-0.24
X1.925Y-0.3
X1.225Y-0.2
X0.325Y-0.1
X0.425Y-0.1
X0.525Y-0.1
X0.625Y-0.1
X0.725Y-0.1
X0.825Y-0.1
X0.925Y-0.1
X1.025Y-0.1
X0.2Y-0.975
X0.4Y-0.975
T3
X1.81Y-2.
X1.81Y-2.2559
X1.9872Y-2.
X1.9872Y-2.2559
X2.56Y-2.
X2.56Y-2.2559
X2.7372Y-2.
X2.7372Y-2.2559
X2.Y-1.2
X2.Y-1.4559
X2.1772Y-1.2
X2.1772Y-1.4559
X3.31Y-2.
X3.31Y-2.2559
X3.4872Y-2.
X3.4872Y-2.2559
X2.Y-2.4
X2.Y-2.6559
X2.1772Y-2.4
X2.1772Y-2.6559
X3.125Y-2.4
X3.125Y-2.6559
X3.3022Y-2.4
X3.3022Y-2.6559
X2.935Y-2.
X2.935Y-2.2559
X3.1122Y-2.
X3.1122Y-2.2559
X3.125Y-0.8
X3.125Y-1.0559
X3.3022Y-0.8
X3.3022Y-1.0559
X0.5Y-2.8
X0.5Y-3.0559
X0.6772Y-2.8
X0.6772Y-3.0559
X1.25Y-2.8
X1.25Y-3.0559
X1.4272Y-2.8
X1.4272Y-3.0559
X3.5Y-1.2
X3.5Y-1.4559
X3.6772Y-1.2
X3.6772Y-1.4559
X3.125Y-0.4
X3.125Y-0.6559
X3.3022Y-0.4
X3.3022Y-0.6559
X3.5Y-2.8
X3.5Y-3.0559
X3.6772Y-2.8
X3.6772Y-3.0559
X0.875Y-1.6
X0.875Y-1.8559
X1.0522Y-1.6
X1.0522Y-1.8559
X2.185Y-2.
X2.185Y-2.2559
X2.3622Y-2.
X2.3622Y-2.2559
X3.5Y-0.8
X3.5Y-1.0559
X3.6772Y-0.8
X3.6772Y-1.0559
X0.125Y-2.8
X0.125Y-3.0559
X0.3022Y-2.8
X0.3022Y-3.0559
X3.125Y-1.6
X3.125Y-1.8559
X3.3022Y-1.6
X3.3022Y-1.8559
X2.375Y-1.6
X2.375Y-1.8559
X2.5522Y-1.6
X2.5522Y-1.8559
X1.25Y-2.4
X1.25Y-2.6559
X1.4272Y-2.4
X1.4272Y-2.6559
X1.625Y-2.8
X1.625Y-3.0559
X1.8022Y-2.8
X1.8022Y-3.0559
X0.125Y-1.6
X0.125Y-1.8559
X0.3022Y-1.6
X0.3022Y-1.8559
X1.435Y-2.
X1.435Y-2.2559
X1.6122Y-2.
X1.6122Y-2.2559
X2.75Y-2.4
X2.75Y-2.6559
X2.9272Y-2.4
X2.9272Y-2.6559
X0.875Y-2.8
X0.875Y-3.0559
X1.0522Y-2.8
X1.0522Y-3.0559
X3.5Y-0.4
X3.5Y-0.6559
X3.6772Y-0.4
X3.6772Y-0.6559
X2.375Y-0.8
X2.375Y-1.0559
X2.5522Y-0.8
X2.5522Y-1.0559
X2.75Y-1.2
X2.75Y-1.4559
X2.9272Y-1.2
X2.9272Y-1.4559
X0.225Y-0.57
X0.225Y-0.8259
X0.4022Y-0.57
X0.4022Y-0.8259
X0.875Y-2.4
X0.875Y-2.6559
X1.0522Y-2.4
X1.0522Y-2.6559
X2.Y-1.6
X2.Y-1.8559
X2.1772Y-1.6
X2.1772Y-1.8559
X2.75Y-0.4
X2.75Y-0.6559
X2.9272Y-0.4
X2.9272Y-0.6559
X0.5Y-0.825
X0.5Y-1.0809
X0.6772Y-0.825
X0.6772Y-1.0809
X0.5Y-2.4
X0.5Y-2.6559
X0.6772Y-2.4
X0.6772Y-2.6559
X1.225Y-0.1
X1.225Y-0.3
X1.225Y-0.4
X1.225Y-0.5
X1.225Y-0.6
X1.225Y-0.7
X1.225Y-0.8
X1.225Y-0.9
X1.225Y-1.
X1.225Y-1.1
X1.225Y-1.2
X1.225Y-1.3
X1.225Y-1.4
X1.325Y-1.4
X1.425Y-1.4
X1.525Y-0.7
X1.525Y-0.8
X1.525Y-0.9
X1.525Y-1.
X1.525Y-1.1
X1.525Y-1.2
X1.525Y-1.3
X1.525Y-1.4
X1.625Y-0.7
X1.625Y-0.8
X1.625Y-0.9
X1.625Y-1.
X1.625Y-1.1
X1.625Y-1.2
X1.625Y-1.3
X1.625Y-1.4
X1.725Y-0.2
X1.725Y-0.4
X1.725Y-0.5
X1.725Y-0.6
X1.725Y-1.4
X1.825Y-0.1
X1.825Y-0.2
X1.825Y-0.3
X1.825Y-0.4
X1.825Y-0.5
X1.825Y-0.6
X1.825Y-0.7
X1.825Y-0.8
X1.825Y-0.9
X1.825Y-1.
X1.825Y-1.1
X1.825Y-1.2
X1.825Y-1.3
X1.825Y-1.4
X2.375Y-1.2
X2.375Y-1.4559
X2.5522Y-1.2
X2.5522Y-1.4559
X1.625Y-1.6
X1.625Y-1.8559
X1.8022Y-1.6
X1.8022Y-1.8559
X0.125Y-2.4
X0.125Y-2.6559
X0.3022Y-2.4
X0.3022Y-2.6559
X2.75Y-0.8
X2.75Y-1.0559
X2.9272Y-0.8
X2.9272Y-1.0559
X0.875Y-1.2
X0.875Y-1.4559
X1.0522Y-1.2
X1.0522Y-1.4559
X0.125Y-1.2
X0.125Y-1.4559
X0.3022Y-1.2
X0.3022Y-1.4559
X0.775Y-0.57
X0.775Y-0.8259
X0.9522Y-0.57
X0.9522Y-0.8259
X2.75Y-1.6
X2.75Y-1.8559
X2.9272Y-1.6
X2.9272Y-1.8559
X0.5Y-1.6
X0.5Y-1.8559
X0.6772Y-1.6
X0.6772Y-1.8559
X2.375Y-2.4
X2.375Y-2.6559
X2.5522Y-2.4
X2.5522Y-2.6559
X2.375Y-0.4
X2.375Y-0.6559
X2.5522Y-0.4
X2.5522Y-0.6559
X2.Y-0.4
X2.Y-0.6559
X2.1772Y-0.4
X2.1772Y-0.6559
X3.125Y-2.8
X3.125Y-3.0559
X3.3022Y-2.8
X3.3022Y-3.0559
X0.5Y-0.3141
X0.5Y-0.57
X0.6772Y-0.3141
X0.6772Y-0.57
X2.75Y-2.8
X2.75Y-3.0559
X2.9272Y-2.8
X2.9272Y-3.0559
X0.31Y-2.
X0.31Y-2.2559
X0.4872Y-2.
X0.4872Y-2.2559
X3.5Y-2.4
X3.5Y-2.6559
X3.6772Y-2.4
X3.6772Y-2.6559
X2.375Y-2.8
X2.375Y-3.0559
X2.5522Y-2.8
X2.5522Y-3.0559
X1.25Y-1.6
X1.25Y-1.8559
X1.4272Y-1.6
X1.4272Y-1.8559
X2.Y-0.8
X2.Y-1.0559
X2.1772Y-0.8
X2.1772Y-1.0559
X2.Y-2.8
X2.Y-3.0559
X2.1772Y-2.8
X2.1772Y-3.0559
X0.685Y-2.
X0.685Y-2.2559
X0.8622Y-2.
X0.8622Y-2.2559
X1.625Y-2.4
X1.625Y-2.6559
X1.8022Y-2.4
X1.8022Y-2.6559
X1.06Y-2.
X1.06Y-2.2559
X1.2372Y-2.
X1.2372Y-2.2559
X3.125Y-1.2
X3.125Y-1.4559
X3.3022Y-1.2
X3.3022Y-1.4559
X3.5Y-1.6
X3.5Y-1.8559
X3.6772Y-1.6
X3.6772Y-1.8559
T4
X0.125Y-2.125
X3.675Y-2.125
X3.675Y-0.125
X0.125Y-0.125
T0
M30
